COMMENT @(#)57	1.3  src/bos/usr/lpp/tls/fonts/Chtp117.bdf, cmdtw, bos411, 9428A410j 2/24/94 13:18:33
COMMENT
COMMENT   COMPONENT_NAME: cmdtw
COMMENT
COMMENT   FUNCTIONS: none
COMMENT
COMMENT   ORIGINS: 27
COMMENT
COMMENT   IBM CONFIDENTIAL -- (IBM Confidential Restricted when
COMMENT   combined with the aggregated modules for this product)
COMMENT                    SOURCE MATERIALS
COMMENT
COMMENT   (C) COPYRIGHT International Business Machines Corp. 1992
COMMENT   All Rights Reserved
COMMENT   US Government Users Restricted Rights - Use, duplication or
COMMENT   disclosure restricted by GSA ADP Schedule Contract with IBM Corp.
COMMENT
STARTFONT 2.1
FONT  -IBM_AIX-Sung-Medium-R-Normal--27-170-100-100-M-260-CNS11643.1986-1
SIZE 27 100 100
FONTBOUNDINGBOX 26 27 0 -1
STARTPROPERTIES 20
FONTNAME_REGISTRY "-"
FOUNDRY "IBM_AIX"
FAMILY_NAME "Sung"
WEIGHT_NAME "Medium"
SLANT "R"
SETWIDTH_NAME "Normal"
ADD_STYLE_NAME ""
PIXEL_SIZE 27
POINT_SIZE 170
RESOLUTION_X 100
RESOLUTION_Y 100
SPACING "M"
AVERAGE_WIDTH 260
CHARSET_REGISTRY "CNS11643.1986"
CHARSET_ENCODING "1"
FONT_ASCENT 26
FONT_DESCENT 1
DEFAULT_CHAR 8724
CAP_HEIGHT 27
COPYRIGHT "Copyright, 1992 by IBM."
ENDPROPERTIES
CHARS 6086
STARTCHAR 2121
ENCODING 8481
SWIDTH 962 0
DWIDTH 26 0
BBX 26 27 0 -1
BITMAP
00000000
00000000
00000000
00000000
00000000
00000000
00000000
00000000
00000000
00000000
00000000
00000000
00000000
00000000
00000000
00000000
00000000
00000000
00000000
00000000
00000000
00000000
00000000
00000000
00000000
00000000
00000000
ENDCHAR
STARTCHAR 2122
ENCODING 8482
SWIDTH 962 0
DWIDTH 26 0
BBX 26 27 0 -1
BITMAP
00000000
00000000
00000000
00000000
00000000
00000000
00000000
00000000
00000000
00000000
00000000
00000000
00000000
00000000
00000000
00000000
00000000
00000000
06000000
0f000000
0f000000
07000000
03000000
06000000
0c000000
00000000
00000000
ENDCHAR
STARTCHAR 2123
ENCODING 8483
SWIDTH 962 0
DWIDTH 26 0
BBX 26 27 0 -1
BITMAP
00000000
00000000
00000000
00000000
00000000
00000000
00000000
00000000
00000000
00000000
00000000
00000000
00000000
00000000
00000000
00000000
00000000
00000000
60000000
18000000
0c000000
06000000
07000000
03000000
03000000
00000000
00000000
ENDCHAR
STARTCHAR 2124
ENCODING 8484
SWIDTH 962 0
DWIDTH 26 0
BBX 26 27 0 -1
BITMAP
00000000
00000000
00000000
00000000
00000000
00000000
00000000
00000000
00000000
00000000
00000000
00000000
00000000
00000000
00000000
00000000
00000000
0f000000
10800000
20400000
20400000
20400000
20400000
10800000
0f000000
00000000
00000000
ENDCHAR
STARTCHAR 2125
ENCODING 8485
SWIDTH 962 0
DWIDTH 26 0
BBX 26 27 0 -1
BITMAP
00000000
00000000
00000000
00000000
00000000
00000000
00000000
00000000
00000000
00000000
00000000
00000000
00000000
00000000
00000000
00000000
00000000
00000000
00000000
06000000
0f000000
0f000000
06000000
00000000
00000000
00000000
00000000
ENDCHAR
STARTCHAR 2126
ENCODING 8486
SWIDTH 962 0
DWIDTH 26 0
BBX 26 27 0 -1
BITMAP
00000000
00000000
00000000
00000000
00000000
00000000
00000000
00000000
00000000
00000000
00180000
003c0000
007e0000
007e0000
003c0000
00180000
00000000
00000000
00000000
00000000
00000000
00000000
00000000
00000000
00000000
00000000
00000000
ENDCHAR
STARTCHAR 2127
ENCODING 8487
SWIDTH 962 0
DWIDTH 26 0
BBX 26 27 0 -1
BITMAP
00000000
00000000
00000000
00000000
00000000
00000000
00000000
00180000
003c0000
003c0000
00180000
00000000
00000000
00000000
00000000
00180000
003c0000
003c0000
001c0000
000c0000
00180000
00300000
00000000
00000000
00000000
00000000
00000000
ENDCHAR
STARTCHAR 2128
ENCODING 8488
SWIDTH 962 0
DWIDTH 26 0
BBX 26 27 0 -1
BITMAP
00000000
00000000
00000000
00000000
00000000
00000000
00000000
00180000
003c0000
003c0000
00180000
00000000
00000000
00000000
00000000
00180000
003c0000
003c0000
00180000
00000000
00000000
00000000
00000000
00000000
00000000
00000000
00000000
ENDCHAR
STARTCHAR 2129
ENCODING 8489
SWIDTH 962 0
DWIDTH 26 0
BBX 26 27 0 -1
BITMAP
00000000
00000000
00780000
01860000
03030000
06018000
07018000
07018000
02030000
00030000
00060000
000c0000
000c0000
00080000
00180000
00100000
00100000
00100000
00000000
00000000
00100000
00380000
00380000
00100000
00000000
00000000
00000000
ENDCHAR
STARTCHAR 212a
ENCODING 8490
SWIDTH 962 0
DWIDTH 26 0
BBX 26 27 0 -1
BITMAP
00000000
00000000
00100000
00380000
00380000
00380000
00380000
00380000
00380000
00380000
00380000
00100000
00100000
00100000
00100000
00100000
00100000
00100000
00000000
00000000
00100000
00380000
00380000
00100000
00000000
00000000
00000000
ENDCHAR
STARTCHAR 212b
ENCODING 8491
SWIDTH 962 0
DWIDTH 26 0
BBX 26 27 0 -1
BITMAP
00000000
00000000
00000000
00000000
00000000
00000000
00000000
00000000
00000000
00000000
00180000
003c0000
00180000
00000000
00000000
00180000
003c0000
00180000
00000000
00000000
00000000
00000000
00000000
00000000
00000000
00000000
00000000
ENDCHAR
STARTCHAR 212c
ENCODING 8492
SWIDTH 962 0
DWIDTH 26 0
BBX 26 27 0 -1
BITMAP
00000000
00000000
00000000
00000000
00000000
00000000
00000000
00000000
00000000
00000000
30180c00
783c1e00
30180c00
00000000
00000000
00000000
00000000
00000000
00000000
00000000
00000000
00000000
00000000
00000000
00000000
00000000
00000000
ENDCHAR
STARTCHAR 212d
ENCODING 8493
SWIDTH 962 0
DWIDTH 26 0
BBX 26 27 0 -1
BITMAP
00000000
00000000
00000000
00000000
00000000
00000000
00000000
00000000
00000000
00000000
0300c000
0781e000
0300c000
00000000
00000000
00000000
00000000
00000000
00000000
00000000
00000000
00000000
00000000
00000000
00000000
00000000
00000000
ENDCHAR
STARTCHAR 212e
ENCODING 8494
SWIDTH 962 0
DWIDTH 26 0
BBX 26 27 0 -1
BITMAP
00000000
00000000
00000000
00000000
00000000
00000000
00000000
00000000
00000000
00000000
00000000
00180000
003c0000
00180000
00300000
00400000
00000000
00000000
00000000
00000000
00000000
00000000
00000000
00000000
00000000
00000000
00000000
ENDCHAR
STARTCHAR 212f
ENCODING 8495
SWIDTH 962 0
DWIDTH 26 0
BBX 26 27 0 -1
BITMAP
00000000
00000000
00000000
00000000
00000000
00000000
00000000
00000000
00000000
00000000
00000000
00400000
00300000
00380000
00180000
00000000
00000000
00000000
00000000
00000000
00000000
00000000
00000000
00000000
00000000
00000000
00000000
ENDCHAR
STARTCHAR 2130
ENCODING 8496
SWIDTH 962 0
DWIDTH 26 0
BBX 26 27 0 -1
BITMAP
00000000
00000000
00000000
00000000
00000000
00000000
00000000
00000000
00000000
00000000
00000000
00000000
00000000
00000000
00000000
00000000
00c00000
01e00000
00c00000
00000000
00000000
00000000
00000000
00000000
00000000
00000000
00000000
ENDCHAR
STARTCHAR 2131
ENCODING 8497
SWIDTH 962 0
DWIDTH 26 0
BBX 26 27 0 -1
BITMAP
00000000
00000000
00000000
00000000
00000000
00000000
00000000
00000000
00000000
00000000
18000000
3c000000
3c000000
18000000
00000000
00000000
00000000
00000000
00000000
00000000
00000000
00000000
00000000
00000000
00000000
00000000
00000000
ENDCHAR
STARTCHAR 2132
ENCODING 8498
SWIDTH 962 0
DWIDTH 26 0
BBX 26 27 0 -1
BITMAP
00000000
00000000
00000000
00000000
00000000
00000000
00000000
00000000
00000000
00000000
000c0000
001e0000
000c0000
00000000
00000000
000c0000
001e0000
000c0000
00180000
00000000
00000000
00000000
00000000
00000000
00000000
00000000
00000000
ENDCHAR
STARTCHAR 2133
ENCODING 8499
SWIDTH 962 0
DWIDTH 26 0
BBX 26 27 0 -1
BITMAP
00000000
00000000
00000000
00000000
00000000
00000000
00000000
00000000
00000000
00000000
00180000
003c0000
00180000
00000000
00000000
00180000
003c0000
00180000
00000000
00000000
00000000
00000000
00000000
00000000
00000000
00000000
00000000
ENDCHAR
STARTCHAR 2134
ENCODING 8500
SWIDTH 962 0
DWIDTH 26 0
BBX 26 27 0 -1
BITMAP
00000000
00000000
00000000
00000000
00000000
00000000
00000000
00000000
003e0000
00630000
00430000
00030000
00060000
00040000
00040000
00000000
00000000
00040000
000e0000
00040000
00000000
00000000
00000000
00000000
00000000
00000000
00000000
ENDCHAR
STARTCHAR 2135
ENCODING 8501
SWIDTH 962 0
DWIDTH 26 0
BBX 26 27 0 -1
BITMAP
00000000
00000000
00000000
00000000
00000000
00000000
00000000
00000000
00080000
001c0000
001c0000
001c0000
00080000
00080000
00080000
00000000
00000000
00080000
001c0000
00080000
00000000
00000000
00000000
00000000
00000000
00000000
00000000
ENDCHAR
STARTCHAR 2136
ENCODING 8502
SWIDTH 962 0
DWIDTH 26 0
BBX 26 27 0 -1
BITMAP
00000000
00180000
00180000
00180000
00180000
00180000
00180000
00180000
00180000
00180000
00180000
00180000
00180000
00180000
00180000
00180000
00180000
00180000
00180000
00180000
00180000
00180000
00180000
00180000
00180000
00000000
00000000
ENDCHAR
STARTCHAR 2137
ENCODING 8503
SWIDTH 962 0
DWIDTH 26 0
BBX 26 27 0 -1
BITMAP
00000000
00000000
00000000
00000000
00000000
00000000
00000000
00000000
00000000
00000000
00000000
00000000
0ffff000
0ffff000
00000000
00000000
00000000
00000000
00000000
00000000
00000000
00000000
00000000
00000000
00000000
00000000
00000000
ENDCHAR
STARTCHAR 2138
ENCODING 8504
SWIDTH 962 0
DWIDTH 26 0
BBX 26 27 0 -1
BITMAP
00000000
00000000
00000000
00000000
00000000
00000000
00000000
00000000
00000000
00180000
00180000
00180000
00180000
00180000
00180000
00180000
00180000
00180000
00180000
00000000
00000000
00000000
00000000
00000000
00000000
00000000
00000000
ENDCHAR
STARTCHAR 2139
ENCODING 8505
SWIDTH 962 0
DWIDTH 26 0
BBX 26 27 0 -1
BITMAP
00000000
00000000
00000000
00000000
00000000
00000000
00000000
00000000
00000000
00000000
00000000
00000000
00ff0000
00ff0000
00000000
00000000
00000000
00000000
00000000
00000000
00000000
00000000
00000000
00000000
00000000
00000000
00000000
ENDCHAR
STARTCHAR 213a
ENCODING 8506
SWIDTH 962 0
DWIDTH 26 0
BBX 26 27 0 -1
BITMAP
00000000
00000300
00000300
00000300
00000300
00000300
00000300
00000300
00000300
00000300
00000300
00000300
00000300
00000300
00000300
00000300
00000300
00000300
00000300
00000300
00000300
00000300
00000300
00000300
00000300
00000000
00000000
ENDCHAR
STARTCHAR 213b
ENCODING 8507
SWIDTH 962 0
DWIDTH 26 0
BBX 26 27 0 -1
BITMAP
00000000
ffffff00
ffffff00
00000000
00000000
00000000
00000000
00000000
00000000
00000000
00000000
00000000
00000000
00000000
00000000
00000000
00000000
00000000
00000000
00000000
00000000
00000000
00000000
00000000
00000000
00000000
00000000
ENDCHAR
STARTCHAR 213c
ENCODING 8508
SWIDTH 962 0
DWIDTH 26 0
BBX 26 27 0 -1
BITMAP
00000000
00001800
00000c00
00000600
00000300
00000600
00000c00
00001800
00000c00
00000600
00000300
00000600
00000c00
00001800
00000c00
00000600
00000300
00000600
00000c00
00001800
00000c00
00000600
00000300
00000600
00000c00
00000000
00000000
ENDCHAR
STARTCHAR 213d
ENCODING 8509
SWIDTH 962 0
DWIDTH 26 0
BBX 26 27 0 -1
BITMAP
00000000
10410400
38e38e00
6db6db00
c71c7100
82082000
00000000
00000000
00000000
00000000
00000000
00000000
00000000
00000000
00000000
00000000
00000000
00000000
00000000
00000000
00000000
00000000
00000000
00000000
00000000
00000000
00000000
ENDCHAR
STARTCHAR 213e
ENCODING 8510
SWIDTH 962 0
DWIDTH 26 0
BBX 26 27 0 -1
BITMAP
00000000
00000200
00000400
00000800
00001800
00001000
00003000
00003000
00006000
00006000
00006000
00006000
00006000
00006000
00006000
00006000
00006000
00006000
00003000
00003000
00001000
00001800
00000800
00000400
00000200
00000000
00000000
ENDCHAR
STARTCHAR 213f
ENCODING 8511
SWIDTH 962 0
DWIDTH 26 0
BBX 26 27 0 -1
BITMAP
00000000
40000000
20000000
10000000
18000000
08000000
0c000000
0c000000
06000000
06000000
06000000
06000000
06000000
06000000
06000000
06000000
06000000
06000000
0c000000
0c000000
08000000
18000000
10000000
20000000
40000000
00000000
00000000
ENDCHAR
STARTCHAR 2140
ENCODING 8512
SWIDTH 962 0
DWIDTH 26 0
BBX 26 27 0 -1
BITMAP
00000000
00000000
00000000
00000000
00000000
00000000
00000000
00000000
00000000
00000000
00000000
00000000
00000000
01ffc000
07ffe000
1e007800
30000c00
60000600
c0000300
80000100
00000000
00000000
00000000
00000000
00000000
00000000
00000000
ENDCHAR
STARTCHAR 2141
ENCODING 8513
SWIDTH 962 0
DWIDTH 26 0
BBX 26 27 0 -1
BITMAP
00000000
00000000
00000000
00000000
00000000
00000000
80000100
c0000300
60000600
30000c00
1e007800
07ffe000
01ff8000
00000000
00000000
00000000
00000000
00000000
00000000
00000000
00000000
00000000
00000000
00000000
00000000
00000000
00000000
ENDCHAR
STARTCHAR 2142
ENCODING 8514
SWIDTH 962 0
DWIDTH 26 0
BBX 26 27 0 -1
BITMAP
00000000
00001e00
00003000
00006000
00006000
00006000
00006000
00006000
00006000
00006000
00006000
0000c000
00018000
00018000
0000c000
00006000
00006000
00006000
00006000
00006000
00006000
00006000
00006000
00003000
00001e00
00000000
00000000
ENDCHAR
STARTCHAR 2143
ENCODING 8515
SWIDTH 962 0
DWIDTH 26 0
BBX 26 27 0 -1
BITMAP
00000000
78000000
0c000000
06000000
06000000
06000000
06000000
06000000
06000000
06000000
06000000
03000000
01800000
01800000
03000000
06000000
06000000
06000000
06000000
06000000
06000000
06000000
06000000
0c000000
78000000
00000000
00000000
ENDCHAR
STARTCHAR 2144
ENCODING 8516
SWIDTH 962 0
DWIDTH 26 0
BBX 26 27 0 -1
BITMAP
00000000
00000000
00000000
00000000
00000000
00000000
00000000
00000000
00000000
00000000
00000000
00000000
00000000
00100000
00380000
1feff800
7fc7fe00
ff83ff00
c0000300
80000100
80000100
00000000
00000000
00000000
00000000
00000000
00000000
ENDCHAR
STARTCHAR 2145
ENCODING 8517
SWIDTH 962 0
DWIDTH 26 0
BBX 26 27 0 -1
BITMAP
00000000
00000000
00000000
00000000
00000000
80000100
80000100
c0000300
ffc1ff00
7fe3fe00
1ff7f800
001c0000
00080000
00000000
00000000
00000000
00000000
00000000
00000000
00000000
00000000
00000000
00000000
00000000
00000000
00000000
00000000
ENDCHAR
STARTCHAR 2146
ENCODING 8518
SWIDTH 962 0
DWIDTH 26 0
BBX 26 27 0 -1
BITMAP
00000000
00001c00
00007000
0001c000
00010000
00010000
00010000
00010000
00010000
00010000
00010000
00010000
00010000
00010000
00010000
00010000
00010000
00010000
00010000
00010000
00010000
00010000
0001c000
00007000
00001c00
00000000
00000000
ENDCHAR
STARTCHAR 2147
ENCODING 8519
SWIDTH 962 0
DWIDTH 26 0
BBX 26 27 0 -1
BITMAP
00000000
38000000
0e000000
03800000
00800000
00800000
00800000
00800000
00800000
00800000
00800000
00800000
00800000
00800000
00800000
00800000
00800000
00800000
00800000
00800000
00800000
00800000
03800000
0e000000
38000000
00000000
00000000
ENDCHAR
STARTCHAR 2148
ENCODING 8520
SWIDTH 962 0
DWIDTH 26 0
BBX 26 27 0 -1
BITMAP
00000000
00000000
00000000
00000000
00000000
00000000
00000000
00000000
00000000
00000000
00000000
00000000
00000000
1ffff800
3ffffc00
30000c00
60000600
60000600
c0000300
c0000300
80000100
00000000
00000000
00000000
00000000
00000000
00000000
ENDCHAR
STARTCHAR 2149
ENCODING 8521
SWIDTH 962 0
DWIDTH 26 0
BBX 26 27 0 -1
BITMAP
00000000
00000000
00000000
00000000
00000000
80000100
c0000300
c0000300
60000600
70000600
30000c00
3ffffc00
1ffff800
00000000
00000000
00000000
00000000
00000000
00000000
00000000
00000000
00000000
00000000
00000000
00000000
00000000
00000000
ENDCHAR
STARTCHAR 214a
ENCODING 8522
SWIDTH 962 0
DWIDTH 26 0
BBX 26 27 0 -1
BITMAP
00000000
0003fc00
0003f800
0003f000
0003e000
0003c000
0003c000
00038000
00038000
00038000
00030000
00030000
00030000
00030000
00030000
00030000
00038000
00038000
00038000
0003c000
0003c000
0003e000
0003f000
0003f800
0003fc00
00000000
00000000
ENDCHAR
STARTCHAR 214b
ENCODING 8523
SWIDTH 962 0
DWIDTH 26 0
BBX 26 27 0 -1
BITMAP
00000000
3fc00000
1fc00000
0fc00000
07c00000
03c00000
03c00000
01c00000
01c00000
01c00000
00c00000
00c00000
00c00000
00c00000
00c00000
00c00000
01c00000
01c00000
01c00000
03c00000
03c00000
07c00000
0fc00000
1fc00000
3fc00000
00000000
00000000
ENDCHAR
STARTCHAR 214c
ENCODING 8524
SWIDTH 962 0
DWIDTH 26 0
BBX 26 27 0 -1
BITMAP
00000000
00000000
00000000
00000000
00000000
00000000
00000000
00000000
00000000
00000000
00000000
00000000
00000000
ffffff00
ffffff00
ff81ff00
fc003f00
f0000f00
e0000700
c0000300
80000100
00000000
00000000
00000000
00000000
00000000
00000000
ENDCHAR
STARTCHAR 214d
ENCODING 8525
SWIDTH 962 0
DWIDTH 26 0
BBX 26 27 0 -1
BITMAP
00000000
00000000
00000000
00000000
00000000
80000100
c0000300
e0000700
f0000f00
fc003f00
ff81ff00
ffffff00
ffffff00
00000000
00000000
00000000
00000000
00000000
00000000
00000000
00000000
00000000
00000000
00000000
00000000
00000000
00000000
ENDCHAR
STARTCHAR 214e
ENCODING 8526
SWIDTH 962 0
DWIDTH 26 0
BBX 26 27 0 -1
BITMAP
00000000
00004400
0000cc00
00008800
00019800
00011000
00033000
00022000
00066000
00044000
000cc000
00088000
00110000
00110000
00088000
000cc000
00044000
00066000
00022000
00033000
00011000
00019800
00008800
0000cc00
00004400
00000000
00000000
ENDCHAR
STARTCHAR 214f
ENCODING 8527
SWIDTH 962 0
DWIDTH 26 0
BBX 26 27 0 -1
BITMAP
00000000
22000000
33000000
11000000
19800000
08800000
0cc00000
04400000
06600000
02200000
03300000
01100000
00880000
00880000
01100000
03300000
02200000
06600000
04400000
0cc00000
08800000
19800000
11000000
33000000
22000000
00000000
00000000
ENDCHAR
STARTCHAR 2150
ENCODING 8528
SWIDTH 962 0
DWIDTH 26 0
BBX 26 27 0 -1
BITMAP
00000000
00000000
00000000
00000000
00000000
00000000
00000000
00000000
00000000
00000000
00180000
007e0000
01c38000
0700e000
1c183800
707e0e00
c1c38300
0700e000
1c003800
70000e00
c0000300
00000000
00000000
00000000
00000000
00000000
00000000
ENDCHAR
STARTCHAR 2151
ENCODING 8529
SWIDTH 962 0
DWIDTH 26 0
BBX 26 27 0 -1
BITMAP
00000000
00000000
00000000
00000000
00000000
c0000300
70000e00
1c003800
0700e000
c1c38300
707e0e00
1c183800
0700e000
01c38000
007e0000
001c0000
00000000
00000000
00000000
00000000
00000000
00000000
00000000
00000000
00000000
00000000
00000000
ENDCHAR
STARTCHAR 2152
ENCODING 8530
SWIDTH 962 0
DWIDTH 26 0
BBX 26 27 0 -1
BITMAP
00000000
00000400
00000c00
00000800
00001800
00001000
00003000
00002000
00006000
00004000
0000c000
00008000
00010000
00010000
00008000
0000c000
00004000
00006000
00002000
00003000
00001000
00001800
00000800
00000c00
00000400
00000000
00000000
ENDCHAR
STARTCHAR 2153
ENCODING 8531
SWIDTH 962 0
DWIDTH 26 0
BBX 26 27 0 -1
BITMAP
00000000
20000000
30000000
10000000
18000000
08000000
0c000000
04000000
06000000
02000000
03000000
01000000
00800000
00800000
01000000
03000000
02000000
06000000
04000000
0c000000
08000000
18000000
10000000
30000000
20000000
00000000
00000000
ENDCHAR
STARTCHAR 2154
ENCODING 8532
SWIDTH 962 0
DWIDTH 26 0
BBX 26 27 0 -1
BITMAP
00000000
00000000
00000000
00000000
00000000
00000000
00000000
00000000
00000000
00000000
00000000
00000000
00000000
00080000
001c0000
00360000
00630000
00c18000
0180c000
07007000
1e003c00
78000f00
00000000
00000000
00000000
00000000
00000000
ENDCHAR
STARTCHAR 2155
ENCODING 8533
SWIDTH 962 0
DWIDTH 26 0
BBX 26 27 0 -1
BITMAP
00000000
00000000
00000000
00000000
78000f00
1e003c00
07007000
0180c000
00c18000
00630000
00360000
001c0000
00080000
00000000
00000000
00000000
00000000
00000000
00000000
00000000
00000000
00000000
00000000
00000000
00000000
00000000
00000000
ENDCHAR
STARTCHAR 2156
ENCODING 8534
SWIDTH 962 0
DWIDTH 26 0
BBX 26 27 0 -1
BITMAP
00000000
0007fc00
00040000
00040000
00040000
00040000
00040000
00040000
00040000
00040000
00040000
00040000
00040000
00040000
00040000
00040000
00000000
00000000
00000000
00000000
00000000
00000000
00000000
00000000
00000000
00000000
00000000
ENDCHAR
STARTCHAR 2157
ENCODING 8535
SWIDTH 962 0
DWIDTH 26 0
BBX 26 27 0 -1
BITMAP
00000000
00000000
00000000
00000000
00000000
00000000
00000000
00000000
00000000
00000000
00200000
00200000
00200000
00200000
00200000
00200000
00200000
00200000
00200000
00200000
00200000
00200000
00200000
00200000
3fe00000
00000000
00000000
ENDCHAR
STARTCHAR 2158
ENCODING 8536
SWIDTH 962 0
DWIDTH 26 0
BBX 26 27 0 -1
BITMAP
00000000
00000000
00000000
00000000
00000000
00000000
00000000
00000000
00000000
00000000
00000000
00000000
00000000
3ffffc00
3ffffc00
00000c00
00000c00
00000c00
00000c00
00000c00
00000c00
00000c00
00000c00
00000000
00000000
00000000
00000000
ENDCHAR
STARTCHAR 2159
ENCODING 8537
SWIDTH 962 0
DWIDTH 26 0
BBX 26 27 0 -1
BITMAP
00000000
00000000
00000000
30000000
30000000
30000000
30000000
30000000
30000000
30000000
30000000
3ffffc00
3ffffc00
00000000
00000000
00000000
00000000
00000000
00000000
00000000
00000000
00000000
00000000
00000000
00000000
00000000
00000000
ENDCHAR
STARTCHAR 215a
ENCODING 8538
SWIDTH 962 0
DWIDTH 26 0
BBX 26 27 0 -1
BITMAP
00000000
0007fc00
00040400
00040400
0004fc00
00048000
00048000
00048000
00048000
00048000
00048000
00048000
00048000
00048000
00048000
00048000
00048000
00078000
00000000
00000000
00000000
00000000
00000000
00000000
00000000
00000000
00000000
ENDCHAR
STARTCHAR 215b
ENCODING 8539
SWIDTH 962 0
DWIDTH 26 0
BBX 26 27 0 -1
BITMAP
00000000
00000000
00000000
00000000
00000000
00000000
00000000
00000000
01e00000
01200000
01200000
01200000
01200000
01200000
01200000
01200000
01200000
01200000
01200000
01200000
01200000
3f200000
20200000
20200000
3fe00000
00000000
00000000
ENDCHAR
STARTCHAR 215c
ENCODING 8540
SWIDTH 962 0
DWIDTH 26 0
BBX 26 27 0 -1
BITMAP
00000000
00000000
00000000
00000000
00000000
00000000
00000000
00000000
00000000
00000000
00000000
00000000
00000000
3ffffc00
20000400
20000400
3fffe400
00002400
00002400
00002400
00002400
00002400
00003c00
00000000
00000000
00000000
00000000
ENDCHAR
STARTCHAR 215d
ENCODING 8541
SWIDTH 962 0
DWIDTH 26 0
BBX 26 27 0 -1
BITMAP
00000000
00000000
00000000
3c000000
24000000
24000000
24000000
24000000
24000000
27fffc00
20000400
20000400
3ffffc00
00000000
00000000
00000000
00000000
00000000
00000000
00000000
00000000
00000000
00000000
00000000
00000000
00000000
00000000
ENDCHAR
STARTCHAR 215e
ENCODING 8542
SWIDTH 962 0
DWIDTH 26 0
BBX 26 27 0 -1
BITMAP
00000000
00000000
00000000
00000000
00000000
00000000
00000000
00000000
00004000
00018000
00030000
00030000
00060000
00060000
00060000
00060000
00030000
00030000
00018000
00004000
00000000
00000000
00000000
00000000
00000000
00000000
00000000
ENDCHAR
STARTCHAR 215f
ENCODING 8543
SWIDTH 962 0
DWIDTH 26 0
BBX 26 27 0 -1
BITMAP
00000000
00000000
00000000
00000000
00000000
00000000
00000000
01000000
00c00000
00600000
00600000
00300000
00300000
00300000
00300000
00600000
00600000
00c00000
01000000
00000000
00000000
00000000
00000000
00000000
00000000
00000000
00000000
ENDCHAR
STARTCHAR 2160
ENCODING 8544
SWIDTH 962 0
DWIDTH 26 0
BBX 26 27 0 -1
BITMAP
00000000
00000000
00000000
00000000
00000000
00000000
00000000
0000c000
00010000
00030000
00030000
00020000
000c0000
00180000
000c0000
00020000
00030000
00030000
00010000
0000c000
00000000
00000000
00000000
00000000
00000000
00000000
00000000
ENDCHAR
STARTCHAR 2161
ENCODING 8545
SWIDTH 962 0
DWIDTH 26 0
BBX 26 27 0 -1
BITMAP
00000000
00000000
00000000
00000000
00000000
00000000
00000000
03000000
00800000
00c00000
00c00000
00400000
00300000
00180000
00300000
00400000
00c00000
00c00000
00800000
03000000
00000000
00000000
00000000
00000000
00000000
00000000
00000000
ENDCHAR
STARTCHAR 2162
ENCODING 8546
SWIDTH 962 0
DWIDTH 26 0
BBX 26 27 0 -1
BITMAP
00000000
00000000
00000000
00000000
00000000
00000000
00000000
0000c000
00018000
00030000
00020000
00020000
00020000
00020000
00020000
00020000
00030000
00018000
0000c000
00000000
00000000
00000000
00000000
00000000
00000000
00000000
00000000
ENDCHAR
STARTCHAR 2163
ENCODING 8547
SWIDTH 962 0
DWIDTH 26 0
BBX 26 27 0 -1
BITMAP
00000000
00000000
00000000
00000000
00000000
00000000
00000000
03000000
01800000
00c00000
00400000
00400000
00400000
00400000
00400000
00400000
00c00000
01800000
03000000
00000000
00000000
00000000
00000000
00000000
00000000
00000000
00000000
ENDCHAR
STARTCHAR 2164
ENCODING 8548
SWIDTH 962 0
DWIDTH 26 0
BBX 26 27 0 -1
BITMAP
00000000
00000c00
00003000
00006000
0000c000
0000f000
0000f800
0000f800
00007000
00000000
00000000
00000000
00000000
00000000
00000000
00000000
00000000
00000000
00000000
00000000
00000000
00000000
00000000
00000000
00000000
00000000
00000000
ENDCHAR
STARTCHAR 2165
ENCODING 8549
SWIDTH 962 0
DWIDTH 26 0
BBX 26 27 0 -1
BITMAP
00000000
0e000000
1f000000
1f000000
0f000000
03000000
06000000
0c000000
30000000
00000000
00000000
00000000
00000000
00000000
00000000
00000000
00000000
00000000
00000000
00000000
00000000
00000000
00000000
00000000
00000000
00000000
00000000
ENDCHAR
STARTCHAR 2166
ENCODING 8550
SWIDTH 962 0
DWIDTH 26 0
BBX 26 27 0 -1
BITMAP
00000000
00018600
00030c00
00061800
000e3800
000f3c00
000f3c00
00061800
00000000
00000000
00000000
00000000
00000000
00000000
00000000
00000000
00000000
00000000
00000000
00000000
00000000
00000000
00000000
00000000
00000000
00000000
00000000
ENDCHAR
STARTCHAR 2167
ENCODING 8551
SWIDTH 962 0
DWIDTH 26 0
BBX 26 27 0 -1
BITMAP
00000000
18600000
3cf00000
3cf00000
1c700000
18600000
30c00000
61800000
00000000
00000000
00000000
00000000
00000000
00000000
00000000
00000000
00000000
00000000
00000000
00000000
00000000
00000000
00000000
00000000
00000000
00000000
00000000
ENDCHAR
STARTCHAR 2168
ENCODING 8552
SWIDTH 962 0
DWIDTH 26 0
BBX 26 27 0 -1
BITMAP
00000000
01000000
23800000
73800000
71c00000
38e00000
1c600000
0c300000
06100000
02000000
00000000
00000000
00000000
00000000
00000000
00000000
00000000
00000000
00000000
00000000
00000000
00000000
00000000
00000000
00000000
00000000
00000000
ENDCHAR
STARTCHAR 2169
ENCODING 8553
SWIDTH 962 0
DWIDTH 26 0
BBX 26 27 0 -1
BITMAP
00000000
00008000
0001c400
0001ce00
00038e00
00071c00
00063800
000c3000
00086000
00004000
00000000
00000000
00000000
00000000
00000000
00000000
00000000
00000000
00000000
00000000
00000000
00000000
00000000
00000000
00000000
00000000
00000000
ENDCHAR
STARTCHAR 216a
ENCODING 8554
SWIDTH 962 0
DWIDTH 26 0
BBX 26 27 0 -1
BITMAP
00000000
00600000
00f00000
003c0000
00070000
00000000
00000000
00000000
00000000
00000000
00000000
00000000
00000000
00000000
00000000
00000000
00000000
00000000
00000000
00000000
00000000
00000000
00000000
00000000
00000000
00000000
00000000
ENDCHAR
STARTCHAR 216b
ENCODING 8555
SWIDTH 962 0
DWIDTH 26 0
BBX 26 27 0 -1
BITMAP
00000000
00060000
000f0000
00380000
00e00000
00000000
00000000
00000000
00000000
00000000
00000000
00000000
00000000
00000000
00000000
00000000
00000000
00000000
00000000
00000000
00000000
00000000
00000000
00000000
00000000
00000000
00000000
ENDCHAR
STARTCHAR 216c
ENCODING 8556
SWIDTH 962 0
DWIDTH 26 0
BBX 26 27 0 -1
BITMAP
00000000
00000000
00018000
01818000
01818000
01818000
01818000
0181f000
01ff8000
0f818000
01818000
01818000
01818000
01818000
01818000
01818000
0181f000
01ff8000
0f818000
01818000
01818000
01818000
01818000
01800000
00000000
00000000
00000000
ENDCHAR
STARTCHAR 216d
ENCODING 8557
SWIDTH 962 0
DWIDTH 26 0
BBX 26 27 0 -1
BITMAP
00000000
00000000
00000000
01f00000
03180000
060c0000
060c0000
060c0000
060c0000
03380000
01e00000
03800000
06c00000
0e61f000
0c704000
1c384000
1818c000
180c8000
1c0f8000
0c070000
0e038000
078dc000
01f87800
00000000
00000000
00000000
00000000
ENDCHAR
STARTCHAR 216e
ENCODING 8558
SWIDTH 962 0
DWIDTH 26 0
BBX 26 27 0 -1
BITMAP
00000000
00000000
00000000
00000000
00000000
00000000
30000c00
18181800
0e187000
0318c000
01db8000
007e0000
3ffffc00
3ffffc00
007e0000
01db8000
0318c000
0e187000
18181800
30000c00
00000000
00000000
00000000
00000000
00000000
00000000
00000000
ENDCHAR
STARTCHAR 216f
ENCODING 8559
SWIDTH 962 0
DWIDTH 26 0
BBX 26 27 0 -1
BITMAP
00000000
00000000
00000000
00000000
00000000
18181800
0c3c3000
063c6000
0318c000
01818000
00c30000
0c663000
1e3c7800
1e187800
0c3c3000
00660000
00c30000
01818000
0318c000
063c6000
0c3c3000
18181800
00000000
00000000
00000000
00000000
00000000
ENDCHAR
STARTCHAR 2170
ENCODING 8560
SWIDTH 962 0
DWIDTH 26 0
BBX 26 27 0 -1
BITMAP
00000000
00000000
003c0000
00420000
00830000
00870000
00860000
00c00000
00700000
00380000
00ce0000
01070000
01018000
01808000
00e08000
00710000
001e0000
000e0000
00030000
00010000
00410000
00e10000
00e10000
00620000
003c0000
00000000
00000000
ENDCHAR
STARTCHAR 2171
ENCODING 8561
SWIDTH 962 0
DWIDTH 26 0
BBX 26 27 0 -1
BITMAP
00000000
00000000
00000000
00000000
00000000
00000000
00000000
00000000
00000000
01818000
01c1c000
01818000
01818000
01818000
03030000
03030000
02020000
06060000
08040000
10080000
20100000
00000000
00000000
00000000
00000000
00000000
00000000
ENDCHAR
STARTCHAR 2172
ENCODING 8562
SWIDTH 962 0
DWIDTH 26 0
BBX 26 27 0 -1
BITMAP
00000000
00000000
00000000
007e0000
01c38000
0700e000
0c003000
08001000
18001800
10000800
30000c00
20000400
20000400
20000400
20000400
30000c00
10000800
18001800
08001000
0c003000
0700e000
01c38000
007e0000
00000000
00000000
00000000
00000000
ENDCHAR
STARTCHAR 2173
ENCODING 8563
SWIDTH 962 0
DWIDTH 26 0
BBX 26 27 0 -1
BITMAP
00000000
00000000
00000000
007e0000
01ff8000
07ffe000
0ffff000
0ffff000
1ffff800
1ffff800
3ffffc00
3ffffc00
3ffffc00
3ffffc00
3ffffc00
3ffffc00
1ffff800
1ffff800
1ffff000
0ffff000
07ffe000
01ff8000
007e0000
00000000
00000000
00000000
00000000
ENDCHAR
STARTCHAR 2174
ENCODING 8564
SWIDTH 962 0
DWIDTH 26 0
BBX 26 27 0 -1
BITMAP
00000000
00000000
00100000
00380000
006c0000
00440000
00c60000
00820000
01830000
03018000
02008000
0600c000
04004000
0c006000
18003000
10001000
30001800
20000800
60000c00
40000400
fffffe00
00000000
00000000
00000000
00000000
00000000
00000000
ENDCHAR
STARTCHAR 2175
ENCODING 8565
SWIDTH 962 0
DWIDTH 26 0
BBX 26 27 0 -1
BITMAP
00000000
00000000
00100000
00380000
007c0000
007c0000
00fe0000
00fe0000
01ff0000
03ff8000
03ff8000
07ffc000
07ffc000
0fffe000
1ffff000
1ffff000
3ffff800
3ffff800
7ffffc00
7ffffc00
fffffe00
00000000
00000000
00000000
00000000
00000000
00000000
ENDCHAR
STARTCHAR 2176
ENCODING 8566
SWIDTH 962 0
DWIDTH 26 0
BBX 26 27 0 -1
BITMAP
00000000
00000000
00000000
007e0000
01c38000
0700e000
0c3c3000
08c31000
19819800
1300c800
32004c00
24002400
24002400
24002400
24002400
32004c00
1300c800
19819800
08c31000
0c3c3000
0700e000
01c38000
007e0000
00000000
00000000
00000000
00000000
ENDCHAR
STARTCHAR 2177
ENCODING 8567
SWIDTH 962 0
DWIDTH 26 0
BBX 26 27 0 -1
BITMAP
00000000
00100000
00100000
00100000
00380000
00280000
006c0000
00440000
00440000
00c60000
ffc3ff00
60000600
38001c00
0c003000
0700e000
01818000
03008000
0310c000
02384000
026c4000
06c74000
0781e000
0600e000
0c006000
08002000
00000000
00000000
ENDCHAR
STARTCHAR 2178
ENCODING 8568
SWIDTH 962 0
DWIDTH 26 0
BBX 26 27 0 -1
BITMAP
00000000
00100000
00100000
00100000
00380000
00380000
007c0000
007c0000
007c0000
00fe0000
ffffff00
7ffffe00
3ffffc00
0ffff000
07ffe000
01ff8000
03ff8000
03ffc000
03ffc000
03efc000
07c7c000
0781e000
0600e000
0c006000
08002000
00000000
00000000
ENDCHAR
STARTCHAR 2179
ENCODING 8569
SWIDTH 962 0
DWIDTH 26 0
BBX 26 27 0 -1
BITMAP
00000000
00080000
001c0000
00360000
00630000
00c18000
0180c000
03006000
06003000
0c001800
18000c00
30000600
60000300
30000600
18000c00
0c001800
06003000
03006000
0180c000
00c18000
00630000
00360000
001c0000
00080000
00000000
00000000
00000000
ENDCHAR
STARTCHAR 217a
ENCODING 8570
SWIDTH 962 0
DWIDTH 26 0
BBX 26 27 0 -1
BITMAP
00000000
00080000
001c0000
003e0000
007f0000
00ff8000
01ffc000
03ffe000
07fff000
0ffff800
1ffffc00
3ffffe00
7fffff00
3ffffe00
1ffffc00
0ffff800
07fff000
03ffe000
01ffc000
00ff8000
007f0000
003e0000
001c0000
00080000
00000000
00000000
00000000
ENDCHAR
STARTCHAR 217b
ENCODING 8571
SWIDTH 962 0
DWIDTH 26 0
BBX 26 27 0 -1
BITMAP
00000000
00000000
00000000
3ffffc00
20000400
20000400
20000400
20000400
20000400
20000400
20000400
20000400
20000400
20000400
20000400
20000400
20000400
20000400
20000400
20000400
20000400
20000400
3ffffc00
00000000
00000000
00000000
00000000
ENDCHAR
STARTCHAR 217c
ENCODING 8572
SWIDTH 962 0
DWIDTH 26 0
BBX 26 27 0 -1
BITMAP
00000000
00000000
00000000
3ffffc00
3ffffc00
3ffffc00
3ffffc00
3ffffc00
3ffffc00
3ffffc00
3ffffc00
3ffffc00
3ffffc00
3ffffc00
3ffffc00
3ffffc00
3ffffc00
3ffffc00
3ffffc00
3ffffc00
3ffffc00
3ffffc00
3ffffc00
00000000
00000000
00000000
00000000
ENDCHAR
STARTCHAR 217d
ENCODING 8573
SWIDTH 962 0
DWIDTH 26 0
BBX 26 27 0 -1
BITMAP
00000000
00000000
00000000
00000000
00000000
fffffe00
40000400
60000c00
20000800
30001800
10001000
18003000
0c006000
04004000
0600c000
02008000
03018000
01830000
00820000
00c60000
00440000
006c0000
00380000
00100000
00000000
00000000
00000000
ENDCHAR
STARTCHAR 217e
ENCODING 8574
SWIDTH 962 0
DWIDTH 26 0
BBX 26 27 0 -1
BITMAP
00000000
00000000
00000000
00000000
00000000
fffffe00
7ffffc00
7ffffc00
3ffff800
3ffff800
1ffff000
1ffff000
0fffe000
07ffc000
07ffc000
03ff8000
03ff8000
01ff0000
00fe0000
00fe0000
007c0000
007c0000
00380000
00100000
00000000
00000000
00000000
ENDCHAR
STARTCHAR 2221
ENCODING 8737
SWIDTH 962 0
DWIDTH 26 0
BBX 26 27 0 -1
BITMAP
00000000
00000000
00000000
007e0000
01c38000
0700e000
0c003000
08011000
19ff9800
10180800
30180c00
21180400
21980400
219fc400
21980400
31980c00
11980800
1bffd800
08001000
0c003000
0700e000
01c38000
007e0000
00000000
00000000
00000000
00000000
ENDCHAR
STARTCHAR 2222
ENCODING 8738
SWIDTH 962 0
DWIDTH 26 0
BBX 26 27 0 -1
BITMAP
00000000
00000300
07800600
18c00c00
30601800
60003000
60006000
c000c000
c0018000
c0030000
c0060000
c18c0000
63187800
3c318c00
00630600
00c60600
01860600
030c0600
060c0600
0c0c0c00
180c0c00
300c1800
60063000
c003c000
80000000
00000000
00000000
ENDCHAR
STARTCHAR 2223
ENCODING 8739
SWIDTH 962 0
DWIDTH 26 0
BBX 26 27 0 -1
BITMAP
00000000
ffffff00
00000000
00000000
00000000
00000000
00000000
00000000
00000000
00000000
00000000
00000000
00000000
00000000
00000000
00000000
00000000
00000000
00000000
00000000
00000000
00000000
00000000
00000000
00000000
00000000
00000000
ENDCHAR
STARTCHAR 2224
ENCODING 8740
SWIDTH 962 0
DWIDTH 26 0
BBX 26 27 0 -1
BITMAP
00000000
ffffff00
ffffff00
ffffff00
00000000
00000000
00000000
00000000
00000000
00000000
00000000
00000000
00000000
00000000
00000000
00000000
00000000
00000000
00000000
00000000
00000000
00000000
00000000
00000000
00000000
00000000
00000000
ENDCHAR
STARTCHAR 2225
ENCODING 8741
SWIDTH 962 0
DWIDTH 26 0
BBX 26 27 0 -1
BITMAP
00000000
00000000
00000000
00000000
00000000
00000000
00000000
00000000
00000000
00000000
00000000
00000000
00000000
00000000
00000000
00000000
00000000
00000000
00000000
00000000
00000000
00000000
00000000
00000000
ffffff00
00000000
00000000
ENDCHAR
STARTCHAR 2226
ENCODING 8742
SWIDTH 962 0
DWIDTH 26 0
BBX 26 27 0 -1
BITMAP
00000000
00000000
00000000
00000000
00000000
00000000
00000000
00000000
00000000
00000000
00000000
00000000
00000000
00000000
00000000
00000000
00000000
00000000
00000000
00000000
00000000
00000000
ffffff00
ffffff00
ffffff00
00000000
00000000
ENDCHAR
STARTCHAR 2227
ENCODING 8743
SWIDTH 962 0
DWIDTH 26 0
BBX 26 27 0 -1
BITMAP
00000000
3c3c3c00
3c3c3c00
00000000
00000000
00000000
00000000
00000000
00000000
00000000
00000000
00000000
00000000
00000000
00000000
00000000
00000000
00000000
00000000
00000000
00000000
00000000
00000000
00000000
00000000
00000000
00000000
ENDCHAR
STARTCHAR 2228
ENCODING 8744
SWIDTH 962 0
DWIDTH 26 0
BBX 26 27 0 -1
BITMAP
00000000
3f18fc00
3f18fc00
00000000
00000000
00000000
00000000
00000000
00000000
00000000
00000000
00000000
00000000
00000000
00000000
00000000
00000000
00000000
00000000
00000000
00000000
00000000
00000000
00000000
00000000
00000000
00000000
ENDCHAR
STARTCHAR 2229
ENCODING 8745
SWIDTH 962 0
DWIDTH 26 0
BBX 26 27 0 -1
BITMAP
00000000
00000000
00000000
00000000
00000000
00000000
00000000
00000000
00000000
00000000
00000000
00000000
00000000
00000000
00000000
00000000
00000000
00000000
00000000
00000000
00000000
00000000
00000000
1e3c3c00
1e3c3c00
00000000
00000000
ENDCHAR
STARTCHAR 222a
ENCODING 8746
SWIDTH 962 0
DWIDTH 26 0
BBX 26 27 0 -1
BITMAP
00000000
00000000
00000000
00000000
00000000
00000000
00000000
00000000
00000000
00000000
00000000
00000000
00000000
00000000
00000000
00000000
00000000
00000000
00000000
00000000
00000000
00000000
00000000
1f99f800
1f99f800
00000000
00000000
ENDCHAR
STARTCHAR 222b
ENCODING 8747
SWIDTH 962 0
DWIDTH 26 0
BBX 26 27 0 -1
BITMAP
00000000
00000000
00000000
00000000
0300c000
0781e000
0cc33000
18661800
303c0c00
60180600
00000000
00000000
00000000
00000000
00000000
00000000
00000000
00000000
00000000
00000000
00000000
00000000
00000000
00000000
00000000
00000000
00000000
ENDCHAR
STARTCHAR 222c
ENCODING 8748
SWIDTH 962 0
DWIDTH 26 0
BBX 26 27 0 -1
BITMAP
00000000
00000000
00000000
00000000
0700e000
0f81f000
1fc3f800
39e79c00
70fe0f00
e03c0700
00000000
00000000
00000000
00000000
00000000
00000000
00000000
00000000
00000000
00000000
00000000
00000000
00000000
00000000
00000000
00000000
00000000
ENDCHAR
STARTCHAR 222d
ENCODING 8749
SWIDTH 962 0
DWIDTH 26 0
BBX 26 27 0 -1
BITMAP
00000000
00000000
00000000
00000000
00000000
00000000
00000000
00000000
00060000
00678000
007e0000
01e60000
00660000
00660000
00678000
007e0000
01e60000
00600000
00000000
00000000
00000000
00000000
00000000
00000000
00000000
00000000
00000000
ENDCHAR
STARTCHAR 222e
ENCODING 8750
SWIDTH 962 0
DWIDTH 26 0
BBX 26 27 0 -1
BITMAP
00000000
00000000
00000000
00000000
00000000
00000000
00000000
00000000
01e00000
03300000
03300000
01200000
00c00000
01ee0000
03340000
06380000
061c0000
06260000
01c30000
00000000
00000000
00000000
00000000
00000000
00000000
00000000
00000000
ENDCHAR
STARTCHAR 222f
ENCODING 8751
SWIDTH 962 0
DWIDTH 26 0
BBX 26 27 0 -1
BITMAP
00000000
00000000
00000000
83040000
c30c0000
63180000
23100000
33300000
1b600000
0b400000
0fc00000
07800000
03000000
03000000
07800000
0fc00000
0b400000
1b600000
33300000
23100000
63180000
c30c0000
83040000
00000000
00000000
00000000
00000000
ENDCHAR
STARTCHAR 2230
ENCODING 8752
SWIDTH 962 0
DWIDTH 26 0
BBX 26 27 0 -1
BITMAP
00000000
00000000
00000000
00000000
00180000
00180000
00180000
00180000
00180000
00180000
00180000
00180000
1ffff800
1ffff800
00180000
00180000
00180000
00180000
00180000
00180000
00180000
00180000
00000000
00000000
00000000
00000000
00000000
ENDCHAR
STARTCHAR 2231
ENCODING 8753
SWIDTH 962 0
DWIDTH 26 0
BBX 26 27 0 -1
BITMAP
00000000
00000000
00000000
00000000
00000000
00000000
00000000
00000000
00000000
00000000
00000000
00000000
1ffff800
1ffff800
00000000
00000000
00000000
00000000
00000000
00000000
00000000
00000000
00000000
00000000
00000000
00000000
00000000
ENDCHAR
STARTCHAR 2232
ENCODING 8754
SWIDTH 962 0
DWIDTH 26 0
BBX 26 27 0 -1
BITMAP
00000000
00000000
00000000
00000000
00000000
0c003000
06006000
0300c000
01818000
00c30000
00660000
003c0000
00180000
003c0000
00660000
00c30000
01818000
0300c000
06006000
0c003000
00000000
00000000
00000000
00000000
00000000
00000000
00000000
ENDCHAR
STARTCHAR 2233
ENCODING 8755
SWIDTH 962 0
DWIDTH 26 0
BBX 26 27 0 -1
BITMAP
00000000
00000000
00000000
00000000
00180000
003c0000
003c0000
00180000
00000000
00000000
00000000
00000000
3ffffc00
3ffffc00
00000000
00000000
00000000
00000000
00180000
003c0000
003c0000
00180000
00000000
00000000
00000000
00000000
00000000
ENDCHAR
STARTCHAR 2234
ENCODING 8756
SWIDTH 962 0
DWIDTH 26 0
BBX 26 27 0 -1
BITMAP
00000000
00000000
00000000
00180000
00180000
00180000
00180000
00180000
00180000
00180000
00180000
1ffff800
1ffff800
00180000
00180000
00180000
00180000
00180000
00180000
00180000
00000000
1ffff800
1ffff800
00000000
00000000
00000000
00000000
ENDCHAR
STARTCHAR 2235
ENCODING 8757
SWIDTH 962 0
DWIDTH 26 0
BBX 26 27 0 -1
BITMAP
00000000
000fff00
00080000
00080000
00100000
00100000
00100000
00200000
00200000
00200000
00400000
00400000
00400000
00800000
00800000
00800000
21000000
21000000
51000000
92000000
0a000000
0a000000
04000000
04000000
00000000
00000000
00000000
ENDCHAR
STARTCHAR 2236
ENCODING 8758
SWIDTH 962 0
DWIDTH 26 0
BBX 26 27 0 -1
BITMAP
00000000
00000000
00000000
00000000
00001800
00007000
0001c000
00070000
001c0000
00700000
01c00000
07000000
1c000000
30000000
1c000000
07000000
01c00000
00700000
001c0000
00070000
0001c000
00007000
00001800
00000000
00000000
00000000
00000000
ENDCHAR
STARTCHAR 2237
ENCODING 8759
SWIDTH 962 0
DWIDTH 26 0
BBX 26 27 0 -1
BITMAP
00000000
00000000
00000000
00000000
30000000
1c000000
07000000
01c00000
00700000
001c0000
00070000
0001c000
00007000
00001800
00007000
0001c000
00070000
001c0000
00700000
01c00000
07000000
1c000000
30000000
00000000
00000000
00000000
00000000
ENDCHAR
STARTCHAR 2238
ENCODING 8760
SWIDTH 962 0
DWIDTH 26 0
BBX 26 27 0 -1
BITMAP
00000000
00000000
00000000
00000000
00000000
00000000
00000000
00000000
00000000
1ffff800
1ffff800
00000000
00000000
00000000
00000000
1ffff800
1ffff800
00000000
00000000
00000000
00000000
00000000
00000000
00000000
00000000
00000000
00000000
ENDCHAR
STARTCHAR 2239
ENCODING 8761
SWIDTH 962 0
DWIDTH 26 0
BBX 26 27 0 -1
BITMAP
00000000
00000000
00000000
00001800
0000f000
00078000
003c0000
01e00000
0f000000
38000000
0f000000
01e00000
003c0000
00078000
0000f000
00001800
00000000
1ffff800
1ffff800
00000000
00000000
1ffff800
1ffff800
00000000
00000000
00000000
00000000
ENDCHAR
STARTCHAR 223a
ENCODING 8762
SWIDTH 962 0
DWIDTH 26 0
BBX 26 27 0 -1
BITMAP
00000000
00000000
00000000
18000000
0f000000
01e00000
003c0000
00078000
0000f000
00001c00
0000f000
00078000
003c0000
01e00000
0f000000
18000000
00000000
1ffff800
1ffff800
00000000
00000000
1ffff800
1ffff800
00000000
00000000
00000000
00000000
ENDCHAR
STARTCHAR 223b
ENCODING 8763
SWIDTH 962 0
DWIDTH 26 0
BBX 26 27 0 -1
BITMAP
00000000
00000000
00008000
00008000
00018000
00010000
00030000
00020000
00060000
1ffff800
1ffff800
00080000
00180000
00100000
00300000
1ffff800
1ffff800
00400000
00c00000
00800000
01800000
01000000
03000000
02000000
00000000
00000000
00000000
ENDCHAR
STARTCHAR 223c
ENCODING 8764
SWIDTH 962 0
DWIDTH 26 0
BBX 26 27 0 -1
BITMAP
00000000
00000000
00000000
00000000
00000000
00000000
00000000
00000000
0f00f000
10810800
20420400
40240200
40180200
40180200
40240200
20420400
10810800
0f00f000
00000000
00000000
00000000
00000000
00000000
00000000
00000000
00000000
00000000
ENDCHAR
STARTCHAR 223d
ENCODING 8765
SWIDTH 962 0
DWIDTH 26 0
BBX 26 27 0 -1
BITMAP
00000000
00000000
00000000
00000000
07000000
07000000
07000000
00000000
00000000
1ffff800
00000000
00000000
00000000
00000000
00000000
00000000
1ffff800
00000000
00000000
0000e000
0000e000
0000e000
00000000
00000000
00000000
00000000
00000000
ENDCHAR
STARTCHAR 223e
ENCODING 8766
SWIDTH 962 0
DWIDTH 26 0
BBX 26 27 0 -1
BITMAP
00000000
00000000
00000000
00000000
00000000
1ffff800
00000000
00000000
00000000
00000000
00000000
00000000
1ffff800
00000000
00000000
00000000
00000000
00000000
00000000
1ffff800
00000000
00000000
00000000
00000000
00000000
00000000
00000000
ENDCHAR
STARTCHAR 223f
ENCODING 8767
SWIDTH 962 0
DWIDTH 26 0
BBX 26 27 0 -1
BITMAP
00000000
00000000
00000000
00000000
00000000
00000000
00000000
00000000
00180000
00180000
00180000
00180000
01ff8000
01ff8000
00180000
00180000
00180000
00180000
00000000
00000000
00000000
00000000
00000000
00000000
00000000
00000000
00000000
ENDCHAR
STARTCHAR 2240
ENCODING 8768
SWIDTH 962 0
DWIDTH 26 0
BBX 26 27 0 -1
BITMAP
00000000
00000000
00000000
00000000
00000000
00000000
00000000
00000000
00000000
00000000
00000000
00000000
01ff8000
01ff8000
00000000
00000000
00000000
00000000
00000000
00000000
00000000
00000000
00000000
00000000
00000000
00000000
00000000
ENDCHAR
STARTCHAR 2241
ENCODING 8769
SWIDTH 962 0
DWIDTH 26 0
BBX 26 27 0 -1
BITMAP
00000000
00000000
00000000
00000000
00000000
00000000
00000000
00000000
0000c000
00038000
000e0000
00380000
00e00000
01800000
00e00000
00380000
000e0000
00038000
0000c000
00000000
00000000
00000000
00000000
00000000
00000000
00000000
00000000
ENDCHAR
STARTCHAR 2242
ENCODING 8770
SWIDTH 962 0
DWIDTH 26 0
BBX 26 27 0 -1
BITMAP
00000000
00000000
00000000
00000000
00000000
00000000
00000000
00000000
03000000
01c00000
00700000
001c0000
00070000
00018000
00070000
001c0000
00700000
01c00000
03000000
00000000
00000000
00000000
00000000
00000000
00000000
00000000
00000000
ENDCHAR
STARTCHAR 2243
ENCODING 8771
SWIDTH 962 0
DWIDTH 26 0
BBX 26 27 0 -1
BITMAP
00000000
00000000
00000000
00000000
00000000
00000000
00000000
00000000
00000000
00000000
01ff8000
01ff8000
00000000
00000000
01ff8000
01ff8000
00000000
00000000
00000000
00000000
00000000
00000000
00000000
00000000
00000000
00000000
00000000
ENDCHAR
STARTCHAR 2244
ENCODING 8772
SWIDTH 962 0
DWIDTH 26 0
BBX 26 27 0 -1
BITMAP
00000000
00000000
00000000
00000000
00000000
00000000
00000000
00000000
00000000
00000000
0f800000
3fe00000
60780300
c01e0600
0007fc00
0001f000
00000000
00000000
00000000
00000000
00000000
00000000
00000000
00000000
00000000
00000000
00000000
ENDCHAR
STARTCHAR 2245
ENCODING 8773
SWIDTH 962 0
DWIDTH 26 0
BBX 26 27 0 -1
BITMAP
00000000
00000000
00000000
00000000
007e0000
01818000
02004000
04002000
04002000
08001000
08001000
08001000
08001000
08001000
08001000
08001000
08001000
08001000
08001000
08001000
08001000
08001000
00000000
00000000
00000000
00000000
00000000
ENDCHAR
STARTCHAR 2246
ENCODING 8774
SWIDTH 962 0
DWIDTH 26 0
BBX 26 27 0 -1
BITMAP
00000000
00000000
00000000
00000000
08001000
08001000
08001000
08001000
08001000
08001000
08001000
08001000
08001000
08001000
08001000
08001000
08001000
04002000
04002000
02004000
01818000
007e0000
00000000
00000000
00000000
00000000
00000000
ENDCHAR
STARTCHAR 2247
ENCODING 8775
SWIDTH 962 0
DWIDTH 26 0
BBX 26 27 0 -1
BITMAP
00000000
00000000
00000000
00000000
00100000
00100000
00100000
00100000
00100000
00100000
00100000
00100000
00100000
00100000
00100000
00100000
00100000
00100000
00100000
00100000
3ffff800
00000000
00000000
00000000
00000000
00000000
00000000
ENDCHAR
STARTCHAR 2248
ENCODING 8776
SWIDTH 962 0
DWIDTH 26 0
BBX 26 27 0 -1
BITMAP
00000000
00000000
00000000
00000000
00001000
00002000
00004000
00008000
00010000
00020000
00040000
00080000
00100000
00200000
00400000
00800000
01000000
02000000
04000000
08000000
1ffff800
00000000
00000000
00000000
00000000
00000000
00000000
ENDCHAR
STARTCHAR 2249
ENCODING 8777
SWIDTH 962 0
DWIDTH 26 0
BBX 26 27 0 -1
BITMAP
00000000
00000000
00000000
00000000
18000000
18000000
18000000
18000000
18000000
18000000
18000000
18000000
18000000
18000000
18000000
18000000
18000000
18000000
18000000
1ffff800
1ffff800
00000000
00000000
00000000
00000000
00000000
00000000
ENDCHAR
STARTCHAR 224a
ENCODING 8778
SWIDTH 962 0
DWIDTH 26 0
BBX 26 27 0 -1
BITMAP
00000000
00000000
00000000
00000000
00001800
00003800
00007800
0000d800
00019800
00031800
00061800
000c1800
00181800
00301800
00601800
00c01800
01801800
03001800
06001800
0c001800
1ffff800
1ffff800
00000000
00000000
00000000
00000000
00000000
ENDCHAR
STARTCHAR 224b
ENCODING 8779
SWIDTH 962 0
DWIDTH 26 0
BBX 26 27 0 -1
BITMAP
00000000
00000000
00000000
f0000000
30000000
30000000
30000000
30000000
30000000
30000000
30f07b00
31998f00
31098c00
33098c00
3604d800
36047800
3604c000
3604f000
330dbc00
31090c00
319b0600
fcf30600
00030600
0001fc00
00000000
00000000
00000000
ENDCHAR
STARTCHAR 224c
ENCODING 8780
SWIDTH 962 0
DWIDTH 26 0
BBX 26 27 0 -1
BITMAP
00000000
00000000
00000000
f0000000
30000000
30000000
30000000
30000000
30000000
31e7c000
30686000
30703000
30603000
30603000
30603000
30603000
30603000
30603000
30603000
30603000
30603000
fdf0fc00
00000000
00000000
00000000
00000000
00000000
ENDCHAR
STARTCHAR 224d
ENCODING 8781
SWIDTH 962 0
DWIDTH 26 0
BBX 26 27 0 -1
BITMAP
00000000
00180000
00240000
00420000
00400000
00400000
00200000
00200000
00200000
00100000
00100000
00100000
00080000
00080000
00080000
00040000
00040000
00040000
00020000
00020000
00020000
00020000
00420000
00240000
00180000
00000000
00000000
ENDCHAR
STARTCHAR 224e
ENCODING 8782
SWIDTH 962 0
DWIDTH 26 0
BBX 26 27 0 -1
BITMAP
00000000
0001c000
00036000
00063000
000c3000
000c0000
001c0000
007f0000
00cd8000
018cc000
030c6000
060c3000
060c3000
02182000
03186000
0198c000
00d98000
007f0000
001c0000
00180000
00300000
0c300000
0ce00000
06c00000
03800000
00000000
00000000
ENDCHAR
STARTCHAR 224f
ENCODING 8783
SWIDTH 962 0
DWIDTH 26 0
BBX 26 27 0 -1
BITMAP
00000000
00000000
00000000
00000000
00000000
00000000
0c003000
1e007800
1e007800
0c003000
00000000
00000000
00000000
00000000
00000000
00000000
00180000
003c0000
003c0000
00180000
00000000
00000000
00000000
00000000
00000000
00000000
00000000
ENDCHAR
STARTCHAR 2250
ENCODING 8784
SWIDTH 962 0
DWIDTH 26 0
BBX 26 27 0 -1
BITMAP
00000000
00000000
00000000
00000000
00180000
003c0000
003c0000
00180000
00000000
00000000
00000000
00000000
00000000
00000000
00000000
00000000
00000000
18001800
3c003c00
3c003c00
18001800
00000000
00000000
00000000
00000000
00000000
00000000
ENDCHAR
STARTCHAR 2251
ENCODING 8785
SWIDTH 962 0
DWIDTH 26 0
BBX 26 27 0 -1
BITMAP
00000000
007c0000
00c60000
01830000
03018000
02008000
02008000
02008000
03018000
01830000
00c60000
007c0000
00100000
00100000
00100000
00100000
3ffff800
00100000
00100000
00100000
00100000
00100000
00100000
00100000
00100000
00000000
00000000
ENDCHAR
STARTCHAR 2252
ENCODING 8786
SWIDTH 962 0
DWIDTH 26 0
BBX 26 27 0 -1
BITMAP
00000000
00000000
00100000
00380000
007c0000
00d60000
01930000
03118000
0610c000
0c106000
18103000
00100000
00100000
00100000
007c0000
00c60000
01830000
03018000
02008000
02008000
02008000
03018000
01830000
00c60000
007c0000
00000000
00000000
ENDCHAR
STARTCHAR 2253
ENCODING 8787
SWIDTH 962 0
DWIDTH 26 0
BBX 26 27 0 -1
BITMAP
00000000
00000000
00000000
007e0000
01db8000
0718e000
0c183000
0c183000
18181800
30180c00
30180c00
60180600
7ffffe00
7ffffe00
60180600
60180600
30180c00
30180c00
18181800
0c181800
07187000
01d9c000
007f0000
00000000
00000000
00000000
00000000
ENDCHAR
STARTCHAR 2254
ENCODING 8788
SWIDTH 962 0
DWIDTH 26 0
BBX 26 27 0 -1
BITMAP
00000000
00000000
00000000
007e0000
01c38000
0700e000
0c003000
0c003000
18001800
30000c00
30180c00
603c0600
607e0600
607e0600
603c0600
60180600
30000c00
30000c00
18001800
0c001800
07007000
01c1c000
007f0000
00000000
00000000
00000000
00000000
ENDCHAR
STARTCHAR 2255
ENCODING 8789
SWIDTH 962 0
DWIDTH 26 0
BBX 26 27 0 -1
BITMAP
00000000
00000000
00180000
003c0000
007e0000
00db0000
01998000
0318c000
06186000
0c183000
18181800
00180000
00180000
00180000
00180000
00180000
00180000
00180000
00180000
00180000
00180000
00180000
00180000
00180000
00000000
00000000
00000000
ENDCHAR
STARTCHAR 2256
ENCODING 8790
SWIDTH 962 0
DWIDTH 26 0
BBX 26 27 0 -1
BITMAP
00000000
00000000
00180000
00180000
00180000
00180000
00180000
00180000
00180000
00180000
00180000
00180000
00180000
00180000
00180000
18181800
0c183000
06186000
0318c000
01998000
00db0000
007e0000
003c0000
00180000
00000000
00000000
00000000
ENDCHAR
STARTCHAR 2257
ENCODING 8791
SWIDTH 962 0
DWIDTH 26 0
BBX 26 27 0 -1
BITMAP
00000000
00000000
00000000
00000000
00020000
00030000
00018000
0000c000
00006000
00003000
00001800
00000c00
7ffffe00
7ffffe00
00000c00
00001800
00003000
00006000
0000c000
00018000
00030000
00020000
00000000
00000000
00000000
00000000
00000000
ENDCHAR
STARTCHAR 2258
ENCODING 8792
SWIDTH 962 0
DWIDTH 26 0
BBX 26 27 0 -1
BITMAP
00000000
00000000
00000000
00000000
00400000
00c00000
01800000
03000000
06000000
0c000000
18000000
30000000
7ffffe00
7ffffe00
30000000
18000000
0c000000
06000000
03000000
01800000
00c00000
00400000
00000000
00000000
00000000
00000000
00000000
ENDCHAR
STARTCHAR 2259
ENCODING 8793
SWIDTH 962 0
DWIDTH 26 0
BBX 26 27 0 -1
BITMAP
00000000
00000000
00000000
00000000
1fe00000
1fe00000
1e000000
1b000000
19800000
18c00000
18600000
00300000
00180000
000c0000
00060000
00030000
00018000
0000c000
00006000
00003000
00001800
00000c00
00000000
00000000
00000000
00000000
00000000
ENDCHAR
STARTCHAR 225a
ENCODING 8794
SWIDTH 962 0
DWIDTH 26 0
BBX 26 27 0 -1
BITMAP
00000000
00000000
00000000
00000000
0007f800
0007f800
00007800
0000d800
00019800
00031800
00061800
000c1800
00180000
00300000
00600000
00c00000
01800000
03000000
06000000
0c000000
18000000
00000000
00000000
00000000
00000000
00000000
00000000
ENDCHAR
STARTCHAR 225b
ENCODING 8795
SWIDTH 962 0
DWIDTH 26 0
BBX 26 27 0 -1
BITMAP
00000000
00000000
00000000
00000c00
00001800
00003000
00006000
0000c000
00018000
00030000
00060000
000c0000
00180000
18300000
18600000
18c00000
19800000
1b000000
1e000000
1ff00000
1ff00000
00000000
00000000
00000000
00000000
00000000
00000000
ENDCHAR
STARTCHAR 225c
ENCODING 8796
SWIDTH 962 0
DWIDTH 26 0
BBX 26 27 0 -1
BITMAP
00000000
00000000
00000000
00000000
18000000
0c000000
06000000
03000000
01800000
00c00000
00600000
00300000
00180000
000c1800
00061800
00031800
00019800
0000d800
00007800
000ff800
000ff800
00000000
00000000
00000000
00000000
00000000
00000000
ENDCHAR
STARTCHAR 225d
ENCODING 8797
SWIDTH 962 0
DWIDTH 26 0
BBX 26 27 0 -1
BITMAP
00000000
00660000
00660000
00660000
00660000
00660000
00660000
00660000
00660000
00660000
00660000
00660000
00660000
00660000
00660000
00660000
00660000
00660000
00660000
00660000
00660000
00660000
00660000
00660000
00660000
00000000
00000000
ENDCHAR
STARTCHAR 225e
ENCODING 8798
SWIDTH 962 0
DWIDTH 26 0
BBX 26 27 0 -1
BITMAP
00000000
00180000
00180000
00180000
00180000
00180000
00180000
00180000
00180000
00180000
00180000
00180000
00180000
00180000
00180000
00180000
00180000
00180000
00180000
00180000
00180000
00180000
00180000
00180000
00180000
00000000
00000000
ENDCHAR
STARTCHAR 225f
ENCODING 8799
SWIDTH 962 0
DWIDTH 26 0
BBX 26 27 0 -1
BITMAP
00000000
00000300
00000600
00000c00
00001800
00003000
00006000
0000c000
00018000
00030000
00060000
000c0000
00180000
00300000
00600000
00c00000
01800000
03000000
06000000
0c000000
18000000
30000000
60000000
c0000000
80000000
00000000
00000000
ENDCHAR
STARTCHAR 2260
ENCODING 8800
SWIDTH 962 0
DWIDTH 26 0
BBX 26 27 0 -1
BITMAP
00000000
c0000000
60000000
30000000
18000000
0c000000
06000000
03000000
01800000
00c00000
00600000
00300000
00180000
000c0000
00060000
00030000
00018000
0000c000
00006000
00003000
00001800
00000c00
00000600
00000300
00000100
00000000
00000000
ENDCHAR
STARTCHAR 2261
ENCODING 8801
SWIDTH 962 0
DWIDTH 26 0
BBX 26 27 0 -1
BITMAP
00000000
00000000
00010000
00010000
00030000
00020000
00060000
00040000
000c0000
00080000
00180000
00100000
00300000
00200000
00600000
00400000
00c00000
00800000
01800000
01000000
03000000
02000000
06000000
04000000
04000000
00000000
00000000
ENDCHAR
STARTCHAR 2262
ENCODING 8802
SWIDTH 962 0
DWIDTH 26 0
BBX 26 27 0 -1
BITMAP
00000000
00000000
00000000
00000000
00000000
00000000
00000000
03000000
01800000
00c00000
00600000
00300000
00180000
000c0000
00060000
00030000
00018000
0000c000
00004000
00000000
00000000
00000000
00000000
00000000
00000000
00000000
00000000
ENDCHAR
STARTCHAR 2263
ENCODING 8803
SWIDTH 962 0
DWIDTH 26 0
BBX 26 27 0 -1
BITMAP
00000000
00180000
00180000
00ff0000
01998000
0318c000
0319c000
0319c000
03188000
03980000
01d80000
00fc0000
003f0000
001b8000
0019c000
0018e000
02186000
07186000
07186000
0618c000
0318c000
01998000
00ff0000
00180000
00180000
00000000
00000000
ENDCHAR
STARTCHAR 2264
ENCODING 8804
SWIDTH 962 0
DWIDTH 26 0
BBX 26 27 0 -1
BITMAP
00000000
00000000
00000000
3f00fc00
0c003000
0c003000
06006000
0300c000
0300c000
01818000
00c30000
00660000
1ffff800
00180000
00180000
00180000
1ffff800
00180000
00180000
00180000
00180000
00180000
00ff0000
00000000
00000000
00000000
00000000
ENDCHAR
STARTCHAR 2265
ENCODING 8805
SWIDTH 962 0
DWIDTH 26 0
BBX 26 27 0 -1
BITMAP
00000000
00000000
00000000
3ffffc00
3ffffc00
00000000
00000000
00000000
00000000
3ffffc00
3ffffc00
00180000
00180000
00180000
00180000
00180000
00180000
00180000
00180000
00180000
00180000
00180000
00180000
00180000
00180000
00000000
00000000
ENDCHAR
STARTCHAR 2266
ENCODING 8806
SWIDTH 962 0
DWIDTH 26 0
BBX 26 27 0 -1
BITMAP
00000000
00008000
00008000
00008000
003fc000
00632000
00c23000
01827000
03067000
03042000
06040000
060c0000
06080000
06080000
06180000
06100000
06100000
06304000
03204000
03608000
01c30000
00fc0000
00800000
01800000
01000000
00000000
00000000
ENDCHAR
STARTCHAR 2267
ENCODING 8807
SWIDTH 962 0
DWIDTH 26 0
BBX 26 27 0 -1
BITMAP
00000000
00000000
00000000
001f8000
0070c000
00c0e000
00c1e000
01c1e000
0180c000
01800000
01800000
1ffe0000
01800000
01c00000
00c00000
00c00000
0fc00000
18e00800
30f00800
30d81000
30ce3000
18c7e000
0f81c000
00000000
00000000
00000000
00000000
ENDCHAR
STARTCHAR 2268
ENCODING 8808
SWIDTH 962 0
DWIDTH 26 0
BBX 26 27 0 -1
BITMAP
00000000
00000300
07800600
18c00c00
30601800
60603000
60606000
c060c000
c0618000
c0c30000
c0c60000
c18c0000
63187800
3c318c00
00630600
00c60600
01860600
030c0600
060c0600
0c0c0c00
180c0c00
300c1800
60063000
c003c000
80000000
00000000
00000000
ENDCHAR
STARTCHAR 2269
ENCODING 8809
SWIDTH 962 0
DWIDTH 26 0
BBX 26 27 0 -1
BITMAP
00000000
00000000
00000000
00ff0000
0381c000
06006000
0c003000
183d9000
10e39800
31818800
21818800
23018800
23030800
23030800
23031800
23071000
318b3000
10f1e000
18000000
0c001000
06006000
0381c000
00ff0000
00000000
00000000
00000000
00000000
ENDCHAR
STARTCHAR 226a
ENCODING 8810
SWIDTH 962 0
DWIDTH 26 0
BBX 26 27 0 -1
BITMAP
00000000
00000000
1e000000
21000000
21078000
21186400
21303400
1e601c00
00c00c00
00c00c00
01c00400
01800400
01800000
01800000
01800000
01800000
01800000
01c00000
00c00400
00c00400
00600800
00301000
00186000
00078000
00000000
00000000
00000000
ENDCHAR
STARTCHAR 226b
ENCODING 8811
SWIDTH 962 0
DWIDTH 26 0
BBX 26 27 0 -1
BITMAP
00000000
00000000
0e000000
21000000
217ffe00
21300e00
21300600
1e300200
00300200
00300000
00302000
00306000
003fe000
00306000
00302000
00300000
00300000
00300000
00300000
00300000
00300000
00300000
00fc0000
00000000
00000000
00000000
00000000
ENDCHAR
STARTCHAR 226c
ENCODING 8812
SWIDTH 962 0
DWIDTH 26 0
BBX 26 27 0 -1
BITMAP
00000000
00000000
00000000
00000000
00000000
00000000
00000000
00180000
007e0000
00db0000
00d90000
00d80000
00780000
001e0000
001b0000
009b0000
00db0000
007e0000
00180000
00000000
00000000
00000000
00000000
00000000
00000000
00000000
00000000
ENDCHAR
STARTCHAR 226d
ENCODING 8813
SWIDTH 962 0
DWIDTH 26 0
BBX 26 27 0 -1
BITMAP
00000000
00000000
00000000
00000000
00000000
00000000
00000000
00704000
00d88000
01990000
019a0000
01b40000
00e80000
00170000
002d8000
00598000
00998000
011b0000
020e0000
00000000
00000000
00000000
00000000
00000000
00000000
00000000
00000000
ENDCHAR
STARTCHAR 226e
ENCODING 8814
SWIDTH 962 0
DWIDTH 26 0
BBX 26 27 0 -1
BITMAP
00000000
00000000
00000000
00000000
00000000
00000000
00000000
003e0000
00e38000
0180c000
011e4000
03366000
02662000
02662000
03666000
011b4000
0180c000
00e38000
003e0000
00000000
00000000
00000000
00000000
00000000
00000000
00000000
00000000
ENDCHAR
STARTCHAR 226f
ENCODING 8815
SWIDTH 962 0
DWIDTH 26 0
BBX 26 27 0 -1
BITMAP
00000000
00000000
00000000
00033c00
00078c00
00078c00
00030c00
00000c00
00000c00
eccf0c00
77638c00
66630c00
66630c00
66630c00
66630c00
66630c00
66630c00
66630c00
66630c00
66630c00
66630c00
ffffff00
00000000
00000000
00000000
00000000
00000000
ENDCHAR
STARTCHAR 2270
ENCODING 8816
SWIDTH 962 0
DWIDTH 26 0
BBX 26 27 0 -1
BITMAP
00000000
00000000
00000000
00000000
00000000
00000000
00000000
00000000
00000000
eccf7600
7763bb00
66633300
66633300
66633300
66633300
66633300
66633300
66633300
66633300
66633300
66633300
f6f7b700
00000000
00000000
00000000
00000000
00000000
ENDCHAR
STARTCHAR 2271
ENCODING 8817
SWIDTH 962 0
DWIDTH 26 0
BBX 26 27 0 -1
BITMAP
00000000
00000000
00000000
00000000
00000000
00000000
00000000
00000000
00000000
1fc6ee00
306f7600
60766600
60f66600
c0666600
c0066600
c0066600
c0066600
c0066600
60066600
60166600
30266600
1fcfff00
00000000
00000000
00000000
00000000
00000000
ENDCHAR
STARTCHAR 2272
ENCODING 8818
SWIDTH 962 0
DWIDTH 26 0
BBX 26 27 0 -1
BITMAP
00000000
00000000
00000000
e0000000
60000000
60000000
60000000
60000000
60000000
60000000
63eeee00
60977600
61066600
62066600
66066600
6a066600
73066600
61866600
61866600
60c66600
60466600
f3ef6e00
00000000
00000000
00000000
00000000
00000000
ENDCHAR
STARTCHAR 2273
ENCODING 8819
SWIDTH 962 0
DWIDTH 26 0
BBX 26 27 0 -1
BITMAP
00000000
00000000
00000000
f1f80300
604c0700
60cc0700
618c0f00
610e1b00
620a1b00
660b1300
6c0b3300
7c09a300
7409e300
6608e300
6308c300
6308c300
61880300
61880300
60c80300
60c80300
60480300
f1f80f00
00000000
00000000
00000000
00000000
00000000
ENDCHAR
STARTCHAR 2274
ENCODING 8820
SWIDTH 962 0
DWIDTH 26 0
BBX 26 27 0 -1
BITMAP
00000000
00007800
00008c00
00018c00
00008800
00003000
00006000
00008000
00010200
f33bfe00
3dcc0000
318c0000
318c0000
318c0000
318c0000
318c0000
318c0000
318c0000
318c0000
318c0000
318c0000
7bde0000
00000000
00000000
00000000
00000000
00000000
ENDCHAR
STARTCHAR 2275
ENCODING 8821
SWIDTH 962 0
DWIDTH 26 0
BBX 26 27 0 -1
BITMAP
00000000
00000000
00000000
00000000
00000000
00000000
00000000
00000000
00000000
ecc3f300
77661b00
666c0e00
666c0c00
666c0c00
666c0c00
66661800
6661f000
66630000
6663c000
66667800
666c1f00
f6fc0300
000c0300
00060600
0003fc00
00000000
00000000
ENDCHAR
STARTCHAR 2276
ENCODING 8822
SWIDTH 962 0
DWIDTH 26 0
BBX 26 27 0 -1
BITMAP
00000000
00000000
00000000
e0000000
60000000
60000000
60000000
60000000
60000000
6003f300
63e61b00
608c0e00
610c0c00
620c0c00
660c0c00
6a061800
7301f000
61830000
6183c000
60c67800
604c1f00
f3fc0300
000c0300
00060600
0003fc00
00000000
00000000
ENDCHAR
STARTCHAR 2277
ENCODING 8823
SWIDTH 962 0
DWIDTH 26 0
BBX 26 27 0 -1
BITMAP
00000000
00000000
00000000
00000000
00000000
00000000
00000000
00000000
1fc1fc00
30630600
60760700
60f60f00
c06c0400
c00c0000
c00c0000
c00c0000
c00c0000
c00c0000
60060000
60160100
30230200
1fc1fc00
00000000
00000000
00000000
00000000
00000000
ENDCHAR
STARTCHAR 2278
ENCODING 8824
SWIDTH 962 0
DWIDTH 26 0
BBX 26 27 0 -1
BITMAP
00000000
00000000
1e000000
21000000
21000000
21000000
21000000
1e000000
00000000
00000000
00000000
00000000
00000000
00000000
00000000
00000000
00000000
00000000
00000000
00000000
00000000
00000000
00000000
00000000
00000000
00000000
00000000
ENDCHAR
STARTCHAR 2279
ENCODING 8825
SWIDTH 962 0
DWIDTH 26 0
BBX 26 27 0 -1
BITMAP
00000000
06000000
07006000
06006000
06607000
fff07000
06006000
06006000
66206400
7ff7fe00
60606000
60606000
60606000
60606000
60606000
7fe06000
19806000
19806000
19806200
31806200
31806300
31806300
61800300
61ffff00
c0fffe00
00000000
00000000
ENDCHAR
STARTCHAR 227a
ENCODING 8826
SWIDTH 962 0
DWIDTH 26 0
BBX 26 27 0 -1
BITMAP
00000000
06000000
07000400
06000e00
06303800
fffbe000
06006000
06006000
66206000
7ff06000
60606600
606fff00
60606000
60606000
60606000
7fe06000
19806000
19806000
19806000
31806200
31806200
31806300
61800300
61ffff00
c0fffe00
00000000
00000000
ENDCHAR
STARTCHAR 227b
ENCODING 8827
SWIDTH 962 0
DWIDTH 26 0
BBX 26 27 0 -1
BITMAP
00000000
06000000
07000000
06001800
0641fc00
ffef8000
06018000
06019800
6621fc00
7fefc000
60718000
60618c00
6061fe00
607f8000
60618000
7fe18000
19818400
19818600
19818600
3181fe00
3180fd00
31800300
61800300
61ffff00
c0fffe00
00000000
00000000
ENDCHAR
STARTCHAR 227c
ENCODING 8828
SWIDTH 962 0
DWIDTH 26 0
BBX 26 27 0 -1
BITMAP
00000000
06000000
07001800
0603fc00
06601800
fff31800
06030c00
06060c00
06060600
662c0300
7ff00200
60600c00
6067fe00
60618c00
60618c00
60630c00
7fe30c00
19861800
19861800
318c1a00
3198fa00
31803300
61800300
61ffff00
c0fffe00
00000000
00000000
ENDCHAR
STARTCHAR 227d
ENCODING 8829
SWIDTH 962 0
DWIDTH 26 0
BBX 26 27 0 -1
BITMAP
00000000
06000000
07001800
060ffc00
0660c000
fff0c000
06018000
06030400
6627fe00
7ff60c00
60760c00
60660c00
60660c00
60660c00
6067fc00
7fe60c00
19860c00
19860c00
19860c00
31860c00
3187fc00
31800200
61800200
61ffff00
c0fffe00
00000000
00000000
ENDCHAR
STARTCHAR 227e
ENCODING 8830
SWIDTH 962 0
DWIDTH 26 0
BBX 26 27 0 -1
BITMAP
00000000
0c000000
0e180600
0c1fff00
0cd80000
fffb0c00
0c1bfe00
0c1b6c00
cc5b6c00
fffbfc00
c0db6c00
c0db6c00
c0dbfc00
c0d86000
c0d86000
ffd86800
331bfc00
33186000
33306400
3337fe00
63600100
63400300
63000300
c3ffff00
c1fffe00
00000000
00000000
ENDCHAR
STARTCHAR 2321
ENCODING 8993
SWIDTH 962 0
DWIDTH 26 0
BBX 26 27 0 -1
BITMAP
00000000
0c000000
0e000000
0c660c00
fff7fe00
0c760c00
0c660c00
18660c00
18c60c00
30c60c00
63c7fc00
c1b60c00
00700000
01dc0000
07078000
1c00f000
f1fe1f00
00000000
1ffff000
18c63000
18c63000
1ffff000
18c63000
18c6b000
18007000
00000000
00000000
ENDCHAR
STARTCHAR 2322
ENCODING 8994
SWIDTH 962 0
DWIDTH 26 0
BBX 26 27 0 -1
BITMAP
00000000
00c00000
ffe00800
30001c00
3000f000
3003c000
30cec000
3fe0c000
30c0c000
30c0cc00
38dffe00
3cc0c000
36c0c000
36c0c000
33c0c000
31c0c000
30c0c000
30c0c000
30c0c000
33c0c000
3ec0c200
70c0c300
c0c00300
00ffff00
007ffe00
00000000
00000000
ENDCHAR
STARTCHAR 2323
ENCODING 8995
SWIDTH 962 0
DWIDTH 26 0
BBX 26 27 0 -1
BITMAP
00000000
0c000000
0c180600
cc1fff00
cc580000
6cdb0600
6cdbff00
6cdb6600
3d9b6600
1c1b6600
ffdbfe00
0c1b6600
0c1b6600
1c1b6600
3e1bfe00
3f186000
6fb06000
6db06000
6db06400
cd33fe00
8d306000
8c306000
0c606000
0c606600
0cc7ff00
00000000
00000000
ENDCHAR
STARTCHAR 2324
ENCODING 8996
SWIDTH 962 0
DWIDTH 26 0
BBX 26 27 0 -1
BITMAP
00000000
00000000
00000000
00000000
00000000
00000000
00000000
00000000
00000000
00000000
00000000
00000000
00000000
00000000
00000000
00000000
00000000
00000000
00000000
00000000
00000000
00000000
ffffff00
ffffff00
ffffff00
00000000
00000000
ENDCHAR
STARTCHAR 2325
ENCODING 8997
SWIDTH 962 0
DWIDTH 26 0
BBX 26 27 0 -1
BITMAP
00000000
00000000
00000000
00000000
00000000
00000000
00000000
00000000
00000000
00000000
00000000
00000000
00000000
00000000
00000000
00000000
00000000
00000000
00000000
ffffff00
ffffff00
ffffff00
ffffff00
ffffff00
ffffff00
00000000
00000000
ENDCHAR
STARTCHAR 2326
ENCODING 8998
SWIDTH 962 0
DWIDTH 26 0
BBX 26 27 0 -1
BITMAP
00000000
00000000
00000000
00000000
00000000
00000000
00000000
00000000
00000000
00000000
00000000
00000000
00000000
00000000
00000000
00000000
ffffff00
ffffff00
ffffff00
ffffff00
ffffff00
ffffff00
ffffff00
ffffff00
ffffff00
00000000
00000000
ENDCHAR
STARTCHAR 2327
ENCODING 8999
SWIDTH 962 0
DWIDTH 26 0
BBX 26 27 0 -1
BITMAP
00000000
00000000
00000000
00000000
00000000
00000000
00000000
00000000
00000000
00000000
00000000
00000000
00000000
ffffff00
ffffff00
ffffff00
ffffff00
ffffff00
ffffff00
ffffff00
ffffff00
ffffff00
ffffff00
ffffff00
ffffff00
00000000
00000000
ENDCHAR
STARTCHAR 2328
ENCODING 9000
SWIDTH 962 0
DWIDTH 26 0
BBX 26 27 0 -1
BITMAP
00000000
00000000
00000000
00000000
00000000
00000000
00000000
00000000
00000000
00000000
ffffff00
ffffff00
ffffff00
ffffff00
ffffff00
ffffff00
ffffff00
ffffff00
ffffff00
ffffff00
ffffff00
ffffff00
ffffff00
ffffff00
ffffff00
00000000
00000000
ENDCHAR
STARTCHAR 2329
ENCODING 9001
SWIDTH 962 0
DWIDTH 26 0
BBX 26 27 0 -1
BITMAP
00000000
00000000
00000000
00000000
00000000
00000000
00000000
ffffff00
ffffff00
ffffff00
ffffff00
ffffff00
ffffff00
ffffff00
ffffff00
ffffff00
ffffff00
ffffff00
ffffff00
ffffff00
ffffff00
ffffff00
ffffff00
ffffff00
ffffff00
00000000
00000000
ENDCHAR
STARTCHAR 232a
ENCODING 9002
SWIDTH 962 0
DWIDTH 26 0
BBX 26 27 0 -1
BITMAP
00000000
00000000
00000000
00000000
ffffff00
ffffff00
ffffff00
ffffff00
ffffff00
ffffff00
ffffff00
ffffff00
ffffff00
ffffff00
ffffff00
ffffff00
ffffff00
ffffff00
ffffff00
ffffff00
ffffff00
ffffff00
ffffff00
ffffff00
ffffff00
00000000
00000000
ENDCHAR
STARTCHAR 232b
ENCODING 9003
SWIDTH 962 0
DWIDTH 26 0
BBX 26 27 0 -1
BITMAP
00000000
ffffff00
ffffff00
ffffff00
ffffff00
ffffff00
ffffff00
ffffff00
ffffff00
ffffff00
ffffff00
ffffff00
ffffff00
ffffff00
ffffff00
ffffff00
ffffff00
ffffff00
ffffff00
ffffff00
ffffff00
ffffff00
ffffff00
ffffff00
ffffff00
00000000
00000000
ENDCHAR
STARTCHAR 232c
ENCODING 9004
SWIDTH 962 0
DWIDTH 26 0
BBX 26 27 0 -1
BITMAP
00000000
e0000000
e0000000
e0000000
e0000000
e0000000
e0000000
e0000000
e0000000
e0000000
e0000000
e0000000
e0000000
e0000000
e0000000
e0000000
e0000000
e0000000
e0000000
e0000000
e0000000
e0000000
e0000000
e0000000
e0000000
00000000
00000000
ENDCHAR
STARTCHAR 232d
ENCODING 9005
SWIDTH 962 0
DWIDTH 26 0
BBX 26 27 0 -1
BITMAP
00000000
fc000000
fc000000
fc000000
fc000000
fc000000
fc000000
fc000000
fc000000
fc000000
fc000000
fc000000
fc000000
fc000000
fc000000
fc000000
fc000000
fc000000
fc000000
fc000000
fc000000
fc000000
fc000000
fc000000
fc000000
00000000
00000000
ENDCHAR
STARTCHAR 232e
ENCODING 9006
SWIDTH 962 0
DWIDTH 26 0
BBX 26 27 0 -1
BITMAP
00000000
ff800000
ff800000
ff800000
ff800000
ff800000
ff800000
ff800000
ff800000
ff800000
ff800000
ff800000
ff800000
ff800000
ff800000
ff800000
ff800000
ff800000
ff800000
ff800000
ff800000
ff800000
ff800000
ff800000
ff800000
00000000
00000000
ENDCHAR
STARTCHAR 232f
ENCODING 9007
SWIDTH 962 0
DWIDTH 26 0
BBX 26 27 0 -1
BITMAP
00000000
fff00000
fff00000
fff00000
fff00000
fff00000
fff00000
fff00000
fff00000
fff00000
fff00000
fff00000
fff00000
fff00000
fff00000
fff00000
fff00000
fff00000
fff00000
fff00000
fff00000
fff00000
fff00000
fff00000
fff00000
00000000
00000000
ENDCHAR
STARTCHAR 2330
ENCODING 9008
SWIDTH 962 0
DWIDTH 26 0
BBX 26 27 0 -1
BITMAP
00000000
fffe0000
fffe0000
fffe0000
fffe0000
fffe0000
fffe0000
fffe0000
fffe0000
fffe0000
fffe0000
fffe0000
fffe0000
fffe0000
fffe0000
fffe0000
fffe0000
fffe0000
fffe0000
fffe0000
fffe0000
fffe0000
fffe0000
fffe0000
fffe0000
00000000
00000000
ENDCHAR
STARTCHAR 2331
ENCODING 9009
SWIDTH 962 0
DWIDTH 26 0
BBX 26 27 0 -1
BITMAP
00000000
ffffc000
ffffc000
ffffc000
ffffc000
ffffc000
ffffc000
ffffc000
ffffc000
ffffc000
ffffc000
ffffc000
ffffc000
ffffc000
ffffc000
ffffc000
ffffc000
ffffc000
ffffc000
ffffc000
ffffc000
ffffc000
ffffc000
ffffc000
ffffc000
00000000
00000000
ENDCHAR
STARTCHAR 2332
ENCODING 9010
SWIDTH 962 0
DWIDTH 26 0
BBX 26 27 0 -1
BITMAP
00000000
fffff800
fffff800
fffff800
fffff800
fffff800
fffff800
fffff800
fffff800
fffff800
fffff800
fffff800
fffff800
fffff800
fffff800
fffff800
fffff800
fffff800
fffff800
fffff800
fffff800
fffff800
fffff800
fffff800
fffff800
00000000
00000000
ENDCHAR
STARTCHAR 2333
ENCODING 9011
SWIDTH 962 0
DWIDTH 26 0
BBX 26 27 0 -1
BITMAP
00000000
00100000
00100000
00100000
00100000
00100000
00100000
00100000
00100000
00100000
00100000
00100000
ffffff00
00100000
00100000
00100000
00100000
00100000
00100000
00100000
00100000
00100000
00100000
00100000
00100000
00000000
00000000
ENDCHAR
STARTCHAR 2334
ENCODING 9012
SWIDTH 962 0
DWIDTH 26 0
BBX 26 27 0 -1
BITMAP
00000000
00100000
00100000
00100000
00100000
00100000
00100000
00100000
00100000
00100000
00100000
00100000
ffffff00
00000000
00000000
00000000
00000000
00000000
00000000
00000000
00000000
00000000
00000000
00000000
00000000
00000000
00000000
ENDCHAR
STARTCHAR 2335
ENCODING 9013
SWIDTH 962 0
DWIDTH 26 0
BBX 26 27 0 -1
BITMAP
00000000
00000000
00000000
00000000
00000000
00000000
00000000
00000000
00000000
00000000
00000000
00000000
ffffff00
00100000
00100000
00100000
00100000
00100000
00100000
00100000
00100000
00100000
00100000
00100000
00100000
00000000
00000000
ENDCHAR
STARTCHAR 2336
ENCODING 9014
SWIDTH 962 0
DWIDTH 26 0
BBX 26 27 0 -1
BITMAP
00000000
00100000
00100000
00100000
00100000
00100000
00100000
00100000
00100000
00100000
00100000
00100000
fff00000
00100000
00100000
00100000
00100000
00100000
00100000
00100000
00100000
00100000
00100000
00100000
00100000
00000000
00000000
ENDCHAR
STARTCHAR 2337
ENCODING 9015
SWIDTH 962 0
DWIDTH 26 0
BBX 26 27 0 -1
BITMAP
00000000
00100000
00100000
00100000
00100000
00100000
00100000
00100000
00100000
00100000
00100000
00100000
001fff00
00100000
00100000
00100000
00100000
00100000
00100000
00100000
00100000
00100000
00100000
00100000
00100000
00000000
00000000
ENDCHAR
STARTCHAR 2338
ENCODING 9016
SWIDTH 962 0
DWIDTH 26 0
BBX 26 27 0 -1
BITMAP
00000000
ffffff00
ffffff00
ffffff00
00000000
00000000
00000000
00000000
00000000
00000000
00000000
00000000
00000000
00000000
00000000
00000000
00000000
00000000
00000000
00000000
00000000
00000000
00000000
00000000
00000000
00000000
00000000
ENDCHAR
STARTCHAR 2339
ENCODING 9017
SWIDTH 962 0
DWIDTH 26 0
BBX 26 27 0 -1
BITMAP
00000000
00000000
00000000
00000000
00000000
00000000
00000000
00000000
00000000
00000000
00000000
00000000
ffffff00
00000000
00000000
00000000
00000000
00000000
00000000
00000000
00000000
00000000
00000000
00000000
00000000
00000000
00000000
ENDCHAR
STARTCHAR 233a
ENCODING 9018
SWIDTH 962 0
DWIDTH 26 0
BBX 26 27 0 -1
BITMAP
00000000
00100000
00100000
00100000
00100000
00100000
00100000
00100000
00100000
00100000
00100000
00100000
00100000
00100000
00100000
00100000
00100000
00100000
00100000
00100000
00100000
00100000
00100000
00100000
00100000
00000000
00000000
ENDCHAR
STARTCHAR 233b
ENCODING 9019
SWIDTH 962 0
DWIDTH 26 0
BBX 26 27 0 -1
BITMAP
00000000
00000700
00000700
00000700
00000700
00000700
00000700
00000700
00000700
00000700
00000700
00000700
00000700
00000700
00000700
00000700
00000700
00000700
00000700
00000700
00000700
00000700
00000700
00000700
00000700
00000000
00000000
ENDCHAR
STARTCHAR 233c
ENCODING 9020
SWIDTH 962 0
DWIDTH 26 0
BBX 26 27 0 -1
BITMAP
00000000
00000000
00000000
00000000
00000000
00000000
00000000
00000000
00000000
00000000
00000000
00000000
001fff00
00100000
00100000
00100000
00100000
00100000
00100000
00100000
00100000
00100000
00100000
00100000
00100000
00000000
00000000
ENDCHAR
STARTCHAR 233d
ENCODING 9021
SWIDTH 962 0
DWIDTH 26 0
BBX 26 27 0 -1
BITMAP
00000000
00000000
00000000
00000000
00000000
00000000
00000000
00000000
00000000
00000000
00000000
00000000
fff00000
00100000
00100000
00100000
00100000
00100000
00100000
00100000
00100000
00100000
00100000
00100000
00100000
00000000
00000000
ENDCHAR
STARTCHAR 233e
ENCODING 9022
SWIDTH 962 0
DWIDTH 26 0
BBX 26 27 0 -1
BITMAP
00000000
00100000
00100000
00100000
00100000
00100000
00100000
00100000
00100000
00100000
00100000
00100000
001fff00
00000000
00000000
00000000
00000000
00000000
00000000
00000000
00000000
00000000
00000000
00000000
00000000
00000000
00000000
ENDCHAR
STARTCHAR 233f
ENCODING 9023
SWIDTH 962 0
DWIDTH 26 0
BBX 26 27 0 -1
BITMAP
00000000
00100000
00100000
00100000
00100000
00100000
00100000
00100000
00100000
00100000
00100000
00100000
fff00000
00000000
00000000
00000000
00000000
00000000
00000000
00000000
00000000
00000000
00000000
00000000
00000000
00000000
00000000
ENDCHAR
STARTCHAR 2340
ENCODING 9024
SWIDTH 962 0
DWIDTH 26 0
BBX 26 27 0 -1
BITMAP
00000000
00000000
00000000
00000000
00000000
00000000
00000000
00000000
00000000
00000000
00000000
00000000
00000300
00000f00
00003c00
00007000
0000c000
00018000
00030000
00060000
00060000
000c0000
000c0000
00180000
00180000
00000000
00000000
ENDCHAR
STARTCHAR 2341
ENCODING 9025
SWIDTH 962 0
DWIDTH 26 0
BBX 26 27 0 -1
BITMAP
00000000
00000000
00000000
00000000
00000000
00000000
00000000
00000000
00000000
00000000
00000000
00000000
c0000000
f0000000
3c000000
0e000000
03000000
01800000
00c00000
00600000
00600000
00300000
00300000
00180000
00180000
00000000
00000000
ENDCHAR
STARTCHAR 2342
ENCODING 9026
SWIDTH 962 0
DWIDTH 26 0
BBX 26 27 0 -1
BITMAP
00000000
00180000
00180000
000c0000
000c0000
00060000
00060000
00030000
00018000
0000c000
00007000
00003c00
00000f00
00000300
00000000
00000000
00000000
00000000
00000000
00000000
00000000
00000000
00000000
00000000
00000000
00000000
00000000
ENDCHAR
STARTCHAR 2343
ENCODING 9027
SWIDTH 962 0
DWIDTH 26 0
BBX 26 27 0 -1
BITMAP
00000000
00180000
00180000
00300000
00300000
00600000
00600000
00c00000
01800000
03000000
0e000000
3c000000
f0000000
c0000000
00000000
00000000
00000000
00000000
00000000
00000000
00000000
00000000
00000000
00000000
00000000
00000000
00000000
ENDCHAR
STARTCHAR 2344
ENCODING 9028
SWIDTH 962 0
DWIDTH 26 0
BBX 26 27 0 -1
BITMAP
00000000
00000000
00000000
00000000
00000000
00000000
00000000
ffffff00
ffffff00
00000000
00000000
00000000
00000000
00000000
00000000
00000000
00000000
ffffff00
ffffff00
00000000
00000000
00000000
00000000
00000000
00000000
00000000
00000000
ENDCHAR
STARTCHAR 2345
ENCODING 9029
SWIDTH 962 0
DWIDTH 26 0
BBX 26 27 0 -1
BITMAP
00000000
00180000
00180000
00180000
00180000
00180000
00180000
001fff00
001fff00
00180000
00180000
00180000
00180000
00180000
00180000
00180000
00180000
001fff00
001fff00
00180000
00180000
00180000
00180000
00180000
00180000
00000000
00000000
ENDCHAR
STARTCHAR 2346
ENCODING 9030
SWIDTH 962 0
DWIDTH 26 0
BBX 26 27 0 -1
BITMAP
00000000
00180000
00180000
00180000
00180000
00180000
00180000
ffffff00
ffffff00
00180000
00180000
00180000
00180000
00180000
00180000
00180000
00180000
ffffff00
ffffff00
00180000
00180000
00180000
00180000
00180000
00180000
00000000
00000000
ENDCHAR
STARTCHAR 2347
ENCODING 9031
SWIDTH 962 0
DWIDTH 26 0
BBX 26 27 0 -1
BITMAP
00000000
00180000
00180000
00180000
00180000
00180000
00180000
fff80000
fff80000
00180000
00180000
00180000
00180000
00180000
00180000
00180000
00180000
fff80000
fff80000
00180000
00180000
00180000
00180000
00180000
00180000
00000000
00000000
ENDCHAR
STARTCHAR 2348
ENCODING 9032
SWIDTH 962 0
DWIDTH 26 0
BBX 26 27 0 -1
BITMAP
00000000
00000100
00000300
00000700
00000f00
00001f00
00003f00
00007f00
0000ff00
0001ff00
0003ff00
0007ff00
000fff00
001fff00
003fff00
007fff00
00ffff00
01ffff00
03ffff00
07ffff00
0fffff00
1fffff00
3fffff00
7fffff00
ffffff00
00000000
00000000
ENDCHAR
STARTCHAR 2349
ENCODING 9033
SWIDTH 962 0
DWIDTH 26 0
BBX 26 27 0 -1
BITMAP
00000000
80000000
c0000000
e0000000
f0000000
f8000000
fc000000
fe000000
ff000000
ff800000
ffc00000
ffe00000
fff00000
fff80000
fffc0000
fffe0000
ffff0000
ffff8000
ffffc000
ffffe000
fffff000
fffff800
fffffc00
fffffe00
ffffff00
00000000
00000000
ENDCHAR
STARTCHAR 234a
ENCODING 9034
SWIDTH 962 0
DWIDTH 26 0
BBX 26 27 0 -1
BITMAP
00000000
ffffff00
7fffff00
3fffff00
1fffff00
0fffff00
07ffff00
03ffff00
01ffff00
00ffff00
007fff00
003fff00
001fff00
000fff00
0007ff00
0003ff00
0001ff00
0000ff00
00007f00
00003f00
00001f00
00000f00
00000700
00000300
00000100
00000000
00000000
ENDCHAR
STARTCHAR 234b
ENCODING 9035
SWIDTH 962 0
DWIDTH 26 0
BBX 26 27 0 -1
BITMAP
00000000
ffffff00
fffffe00
fffffc00
fffff800
fffff000
ffffe000
ffffc000
ffff8000
ffff0000
fffe0000
fffc0000
fff80000
fff00000
ffe00000
ffc00000
ff800000
ff000000
fe000000
fc000000
f8000000
f0000000
e0000000
c0000000
80000000
00000000
00000000
ENDCHAR
STARTCHAR 234c
ENCODING 9036
SWIDTH 962 0
DWIDTH 26 0
BBX 26 27 0 -1
BITMAP
00000000
00000300
00000600
00000c00
00001800
00003000
00006000
0000c000
00018000
00030000
00060000
000c0000
00180000
00300000
00600000
00c00000
01800000
03000000
06000000
0c000000
18000000
30000000
60000000
c0000000
80000000
00000000
00000000
ENDCHAR
STARTCHAR 234d
ENCODING 9037
SWIDTH 962 0
DWIDTH 26 0
BBX 26 27 0 -1
BITMAP
00000000
80000000
c0000000
60000000
30000000
18000000
0c000000
06000000
03000000
01800000
00c00000
00600000
00300000
00180000
000c0000
00060000
00030000
00018000
0000c000
00006000
00003000
00001800
00000c00
00000600
00000300
00000000
00000000
ENDCHAR
STARTCHAR 234e
ENCODING 9038
SWIDTH 962 0
DWIDTH 26 0
BBX 26 27 0 -1
BITMAP
00000000
80000300
c0000600
60000c00
30001800
18003000
0c006000
0600c000
03018000
01830000
00c60000
006c0000
00380000
00380000
006c0000
00c60000
01830000
03018000
0600c000
0c006000
18003000
30001800
60000c00
c0000600
80000300
00000000
00000000
ENDCHAR
STARTCHAR 2421
ENCODING 9249
SWIDTH 962 0
DWIDTH 26 0
BBX 26 27 0 -1
BITMAP
00000000
00000000
00000000
00ff0000
01818000
0300c000
0300c000
06006000
06006000
0c003000
0c003000
0c003000
0c003000
0c003000
0c003000
0c003000
0c003000
06006000
06006000
0300c000
0300c000
01818000
00ff0000
00000000
00000000
00000000
00000000
ENDCHAR
STARTCHAR 2422
ENCODING 9250
SWIDTH 962 0
DWIDTH 26 0
BBX 26 27 0 -1
BITMAP
00000000
00000000
00000000
00180000
00780000
01f80000
00180000
00180000
00180000
00180000
00180000
00180000
00180000
00180000
00180000
00180000
00180000
00180000
00180000
00180000
00180000
00180000
01ff8000
00000000
00000000
00000000
00000000
ENDCHAR
STARTCHAR 2423
ENCODING 9251
SWIDTH 962 0
DWIDTH 26 0
BBX 26 27 0 -1
BITMAP
00000000
00000000
00000000
01ff8000
0700c000
0e006000
0f003000
0f003000
06003000
00006000
0000c000
00038000
000e0000
00380000
00e00000
01800000
03000000
06000000
0c001000
0c001000
0c001000
0ffff000
0ffff000
00000000
00000000
00000000
00000000
ENDCHAR
STARTCHAR 2424
ENCODING 9252
SWIDTH 962 0
DWIDTH 26 0
BBX 26 27 0 -1
BITMAP
00000000
00000000
00000000
00ff0000
0381c000
07006000
07803000
07803000
03003000
00006000
0000c000
00038000
003e0000
00038000
0000e000
00006000
00003000
06003000
0f003000
0f006000
0e006000
0701c000
01ff0000
00000000
00000000
00000000
00000000
ENDCHAR
STARTCHAR 2425
ENCODING 9253
SWIDTH 962 0
DWIDTH 26 0
BBX 26 27 0 -1
BITMAP
00000000
00000000
00000000
00030000
00070000
000f0000
001b0000
00330000
00630000
00c30000
01830000
03030000
06030000
0c030000
18030000
30030000
30030000
3ffff800
00030000
00030000
00030000
00030000
001fe000
00000000
00000000
00000000
00000000
ENDCHAR
STARTCHAR 2426
ENCODING 9254
SWIDTH 962 0
DWIDTH 26 0
BBX 26 27 0 -1
BITMAP
00000000
00000000
00000000
07ffe000
07ffe000
06000000
06000000
06000000
06000000
06000000
063e0000
06c38000
0701c000
06006000
00003000
00003000
00003000
06003000
0f003000
0f006000
0600c000
03038000
01fe0000
00000000
00000000
00000000
00000000
ENDCHAR
STARTCHAR 2427
ENCODING 9255
SWIDTH 962 0
DWIDTH 26 0
BBX 26 27 0 -1
BITMAP
00000000
00000000
00000000
007f8000
01c0c000
0381e000
0601e000
0600c000
0c000000
0c000000
0c000000
0c7f0000
0dc1c000
0f00e000
0e006000
0c003000
0c003000
0c003000
0c003000
06006000
0700e000
0381c000
00ff0000
00000000
00000000
00000000
00000000
ENDCHAR
STARTCHAR 2428
ENCODING 9256
SWIDTH 962 0
DWIDTH 26 0
BBX 26 27 0 -1
BITMAP
00000000
00000000
00000000
07fff000
0ffff000
08003000
08003000
08006000
00006000
0000c000
00018000
00030000
00060000
000c0000
000c0000
00180000
00180000
00180000
00180000
00180000
00180000
00180000
00180000
00000000
00000000
00000000
00000000
ENDCHAR
STARTCHAR 2429
ENCODING 9257
SWIDTH 962 0
DWIDTH 26 0
BBX 26 27 0 -1
BITMAP
00000000
00000000
00000000
00ff0000
01818000
0300c000
06006000
06006000
06006000
0300c000
01818000
00e70000
007e0000
01c38000
0300c000
06006000
0c003000
0c003000
0c003000
0c003000
06006000
0300c000
01ff8000
00000000
00000000
00000000
00000000
ENDCHAR
STARTCHAR 242a
ENCODING 9258
SWIDTH 962 0
DWIDTH 26 0
BBX 26 27 0 -1
BITMAP
00000000
00000000
00000000
00ff0000
0381c000
0700e000
06006000
0c003000
0c003000
0c003000
0c003000
06007000
0700f000
0383b000
00fe3000
00003000
00003000
00003000
03006000
07806000
0781c000
03038000
01fe0000
00000000
00000000
00000000
00000000
ENDCHAR
STARTCHAR 242b
ENCODING 9259
SWIDTH 962 0
DWIDTH 26 0
BBX 26 27 0 -1
BITMAP
00000000
00000000
00000000
01ff8000
00180000
00180000
00180000
00180000
00180000
00180000
00180000
00180000
00180000
00180000
00180000
00180000
00180000
00180000
00180000
00180000
00180000
01ff8000
00000000
00000000
00000000
00000000
00000000
ENDCHAR
STARTCHAR 242c
ENCODING 9260
SWIDTH 962 0
DWIDTH 26 0
BBX 26 27 0 -1
BITMAP
00000000
00000000
00000000
03ffe000
00630000
00630000
00630000
00630000
00630000
00630000
00630000
00630000
00630000
00630000
00630000
00630000
00630000
00630000
00630000
00630000
00630000
03ffe000
00000000
00000000
00000000
00000000
00000000
ENDCHAR
STARTCHAR 242d
ENCODING 9261
SWIDTH 962 0
DWIDTH 26 0
BBX 26 27 0 -1
BITMAP
00000000
00000000
00000000
07ffe000
01998000
01998000
01998000
01998000
01998000
01998000
01998000
01998000
01998000
01998000
01998000
01998000
01998000
01998000
01998000
01998000
01998000
07ffe000
00000000
00000000
00000000
00000000
00000000
ENDCHAR
STARTCHAR 242e
ENCODING 9262
SWIDTH 962 0
DWIDTH 26 0
BBX 26 27 0 -1
BITMAP
00000000
00000000
00000000
7ff01e00
18600c00
18600c00
18600c00
18600c00
18301800
18301800
18301800
18301800
18183000
18183000
18183000
180c6000
180c6000
180c6000
1806c000
1806c000
18038000
7f010000
00000000
00000000
00000000
00000000
00000000
ENDCHAR
STARTCHAR 242f
ENCODING 9263
SWIDTH 962 0
DWIDTH 26 0
BBX 26 27 0 -1
BITMAP
00000000
00000000
00000000
3f007e00
0c001800
0c001800
0c001800
06003000
06003000
06003000
03006000
03006000
0180c000
0180c000
00c18000
00c18000
00630000
00630000
00360000
00360000
001c0000
00080000
00000000
00000000
00000000
00000000
00000000
ENDCHAR
STARTCHAR 2430
ENCODING 9264
SWIDTH 962 0
DWIDTH 26 0
BBX 26 27 0 -1
BITMAP
00000000
00000000
00000000
f01ffe00
600c3000
600c3000
600c3000
600c3000
30183000
30183000
30183000
30183000
18303000
18303000
18303000
0c603000
0c603000
0c603000
06c03000
06c03000
03803000
0101fe00
00000000
00000000
00000000
00000000
00000000
ENDCHAR
STARTCHAR 2431
ENCODING 9265
SWIDTH 962 0
DWIDTH 26 0
BBX 26 27 0 -1
BITMAP
00000000
00000000
00000000
780ffe00
3006cc00
3006cc00
3006cc00
3006cc00
180ccc00
180ccc00
180ccc00
180ccc00
0c18cc00
0c18cc00
0c18cc00
0630cc00
0630cc00
0630cc00
0360cc00
0360cc00
01c0cc00
0081fe00
00000000
00000000
00000000
00000000
00000000
ENDCHAR
STARTCHAR 2432
ENCODING 9266
SWIDTH 962 0
DWIDTH 26 0
BBX 26 27 0 -1
BITMAP
00000000
00000000
00000000
f07ffe00
60336c00
60336c00
60336c00
60336c00
60336c00
60336c00
30636c00
30636c00
30636c00
30636c00
30636c00
18c36c00
18c36c00
18c36c00
0d836c00
0d836c00
07036c00
0207fe00
00000000
00000000
00000000
00000000
00000000
ENDCHAR
STARTCHAR 2433
ENCODING 9267
SWIDTH 962 0
DWIDTH 26 0
BBX 26 27 0 -1
BITMAP
00000000
00000000
00000000
7ff01e00
18600c00
18600c00
18301800
18301800
18183000
18183000
180c6000
1806c000
18038000
1806c000
180c6000
18183000
18183000
18301800
18301800
18600c00
18600c00
7ff01e00
00000000
00000000
00000000
00000000
00000000
ENDCHAR
STARTCHAR 2434
ENCODING 9268
SWIDTH 962 0
DWIDTH 26 0
BBX 26 27 0 -1
BITMAP
00000000
00000000
00000000
7c003e00
18001800
0c003000
06006000
0300c000
01818000
00c30000
00660000
003c0000
00180000
003c0000
00660000
00c30000
01818000
0300c000
06006000
0c003000
18001800
7c003e00
00000000
00000000
00000000
00000000
00000000
ENDCHAR
STARTCHAR 2435
ENCODING 9269
SWIDTH 962 0
DWIDTH 26 0
BBX 26 27 0 -1
BITMAP
00000000
00000000
00000000
00200000
00300000
00300000
00300000
00300000
00300000
00300000
00300000
00300000
00300000
00300000
00300000
00300000
00300000
00300000
00300000
00300000
00300000
00300000
00100000
00000000
00000000
00000000
00000000
ENDCHAR
STARTCHAR 2436
ENCODING 9270
SWIDTH 962 0
DWIDTH 26 0
BBX 26 27 0 -1
BITMAP
00000000
00000000
00000000
00020000
00060000
00060000
00860000
01860000
01860000
01860000
01860000
01860000
01860000
01860000
01860000
01860000
01860000
01860000
01860000
00860000
00060000
00060000
00020000
00000000
00000000
00000000
00000000
ENDCHAR
STARTCHAR 2437
ENCODING 9271
SWIDTH 962 0
DWIDTH 26 0
BBX 26 27 0 -1
BITMAP
00000000
00000000
00000000
00004000
0000c000
0000c000
0300c000
0300c000
0318c000
0318c000
0318c000
0318c000
0318c000
0318c000
0318c000
0318c000
0318c000
0318c000
0300c000
0300c000
0000c000
0000c000
00004000
00000000
00000000
00000000
00000000
ENDCHAR
STARTCHAR 2438
ENCODING 9272
SWIDTH 962 0
DWIDTH 26 0
BBX 26 27 0 -1
BITMAP
00000000
00000000
00000000
00000000
18003000
0c003000
06003000
03007000
0180e000
00c1c000
00638000
00370000
001e0000
001c0000
001c0000
00360000
00630000
00c18000
0180c000
03006000
06003800
1c001c00
00000000
00000000
00000000
00000000
00000000
ENDCHAR
STARTCHAR 2439
ENCODING 9273
SWIDTH 962 0
DWIDTH 26 0
BBX 26 27 0 -1
BITMAP
00000000
00000000
00000000
00000000
0018c000
00398000
00318000
00630000
00630000
006e0000
003c0000
001e0000
00330000
00630000
00c18000
00c18000
01818000
01818000
01818000
01818000
00c30000
00c60000
006c0000
00380000
00000000
00000000
00000000
ENDCHAR
STARTCHAR 243a
ENCODING 9274
SWIDTH 962 0
DWIDTH 26 0
BBX 26 27 0 -1
BITMAP
00000000
00000000
00000000
00000000
00000000
00000000
00380000
00380000
00300000
00300000
00300000
00300000
00303000
1ffff800
0ffff000
00000000
00000000
00000000
00000000
00000000
00000000
00000000
00000000
00000000
00000000
00000000
00000000
ENDCHAR
STARTCHAR 243b
ENCODING 9275
SWIDTH 962 0
DWIDTH 26 0
BBX 26 27 0 -1
BITMAP
00000000
00000000
00000000
00000000
00000000
00300000
00380000
00380000
00300000
00300000
00304000
3fffe000
1ffff000
00000000
00000000
00008000
0fffc000
07ffe000
00000000
00000000
00000000
00000000
00000000
00000000
00000000
00000000
00000000
ENDCHAR
STARTCHAR 243c
ENCODING 9276
SWIDTH 962 0
DWIDTH 26 0
BBX 26 27 0 -1
BITMAP
00000000
00000000
00000000
00000000
00300000
00380000
00380000
00300000
00300000
00304000
1fffe000
0ffff000
00000000
00000000
00010000
03ff8000
01ffc000
00000000
00000000
00003000
3ffff800
1ffffc00
00000000
00000000
00000000
00000000
00000000
ENDCHAR
STARTCHAR 243d
ENCODING 9277
SWIDTH 962 0
DWIDTH 26 0
BBX 26 27 0 -1
BITMAP
00000000
00000000
00000000
00300000
00600000
00c00000
01800000
03fff000
07fff000
00003000
06006000
0600c000
03018000
01830000
00c60000
006c0000
00380000
003c0000
00660000
00c38000
0181c000
0700fc00
1e003800
00000000
00000000
00000000
00000000
ENDCHAR
STARTCHAR 243e
ENCODING 9278
SWIDTH 962 0
DWIDTH 26 0
BBX 26 27 0 -1
BITMAP
00000000
00000000
00000000
00100000
00180000
00180000
00180000
00180000
00180000
00180000
00181800
0ffffc00
1ffff800
00180000
00180000
00180000
00180000
00180000
00180000
00180000
00180000
00180000
00180000
00000000
00000000
00000000
00000000
ENDCHAR
STARTCHAR 243f
ENCODING 9279
SWIDTH 962 0
DWIDTH 26 0
BBX 26 27 0 -1
BITMAP
00000000
00000000
00000000
00c20000
00e38000
00e38000
00c30000
00c30000
00c30000
00c30000
00c33000
3ffff800
1ffffc00
00c30000
00c30000
00c30000
00c30000
00c30000
00c30000
00c30000
00000000
00000000
00000000
00000000
00000000
00000000
00000000
ENDCHAR
STARTCHAR 2440
ENCODING 9280
SWIDTH 962 0
DWIDTH 26 0
BBX 26 27 0 -1
BITMAP
00000000
00000000
00000000
00000000
0318c000
0318c000
0318c000
0318c000
0318c000
0318c000
031cd800
3ffffc00
1ffffc00
0318c000
0318c000
0318c000
0318c000
0318c000
0318c000
0318c000
0318c000
0318c000
00000000
00000000
00000000
00000000
00000000
ENDCHAR
STARTCHAR 2441
ENCODING 9281
SWIDTH 962 0
DWIDTH 26 0
BBX 26 27 0 -1
BITMAP
00000000
00000000
00000000
00180000
003c0000
003c0000
007e0000
00660000
00660000
00e70000
00c30000
01c38000
01818000
01818000
0381c000
03ffc000
0700e000
06006000
06006000
0e007000
0e007000
0c003000
3f00fc00
00000000
00000000
00000000
00000000
ENDCHAR
STARTCHAR 2442
ENCODING 9282
SWIDTH 962 0
DWIDTH 26 0
BBX 26 27 0 -1
BITMAP
00000000
00000000
00000000
0ffe0000
03038000
0300c000
03006000
03006000
03006000
03006000
0300c000
03018000
03ff0000
0301c000
03007000
03003000
03001800
03001800
03001800
03003000
03003000
0300e000
0fff8000
00000000
00000000
00000000
00000000
ENDCHAR
STARTCHAR 2443
ENCODING 9283
SWIDTH 962 0
DWIDTH 26 0
BBX 26 27 0 -1
BITMAP
00000000
00000000
00000000
00ff1000
0381f000
0600f000
0e007000
0c003000
1c001000
18000000
18000000
18000000
18000000
18000000
18000000
18000000
1c000000
0c000000
0c003000
06006000
0300c000
01c18000
007f0000
00000000
00000000
00000000
00000000
ENDCHAR
STARTCHAR 2444
ENCODING 9284
SWIDTH 962 0
DWIDTH 26 0
BBX 26 27 0 -1
BITMAP
00000000
00000000
00000000
1ffe0000
06038000
0600e000
06006000
06003000
06003000
06001800
06001800
06001800
06001800
06001800
06001800
06001800
06001800
06003000
06003000
06006000
0600e000
06038000
1ffe0000
00000000
00000000
00000000
00000000
ENDCHAR
STARTCHAR 2445
ENCODING 9285
SWIDTH 962 0
DWIDTH 26 0
BBX 26 27 0 -1
BITMAP
00000000
00000000
00000000
0fffe000
0300e000
03006000
03002000
03002000
03000000
03020000
03020000
03060000
03fe0000
03060000
03020000
03020000
03000000
03000000
03002000
03002000
03006000
0300e000
0fffe000
00000000
00000000
00000000
00000000
ENDCHAR
STARTCHAR 2446
ENCODING 9286
SWIDTH 962 0
DWIDTH 26 0
BBX 26 27 0 -1
BITMAP
00000000
00000000
00000000
0fffe000
0300e000
03006000
03002000
03002000
03000000
03020000
03020000
03060000
03fe0000
03060000
03020000
03020000
03000000
03000000
03000000
03000000
03000000
03000000
0fc00000
00000000
00000000
00000000
00000000
ENDCHAR
STARTCHAR 2447
ENCODING 9287
SWIDTH 962 0
DWIDTH 26 0
BBX 26 27 0 -1
BITMAP
00000000
00000000
00000000
00fe2000
0381e000
0700e000
06006000
0c002000
0c002000
1c000000
18000000
18000000
18000000
1801f800
18006000
18006000
1c006000
0c006000
0c00e000
0600e000
0701e000
03836000
00fe6000
00000000
00000000
00000000
00000000
ENDCHAR
STARTCHAR 2448
ENCODING 9288
SWIDTH 962 0
DWIDTH 26 0
BBX 26 27 0 -1
BITMAP
00000000
00000000
00000000
1f81f800
06006000
06006000
06006000
06006000
06006000
06006000
06006000
06006000
07ffe000
06006000
06006000
06006000
06006000
06006000
06006000
06006000
06006000
06006000
1f81f800
00000000
00000000
00000000
00000000
ENDCHAR
STARTCHAR 2449
ENCODING 9289
SWIDTH 962 0
DWIDTH 26 0
BBX 26 27 0 -1
BITMAP
00000000
00000000
00000000
00ff0000
00180000
00180000
00180000
00180000
00180000
00180000
00180000
00180000
00180000
00180000
00180000
00180000
00180000
00180000
00180000
00180000
00180000
00180000
00ff0000
00000000
00000000
00000000
00000000
ENDCHAR
STARTCHAR 244a
ENCODING 9290
SWIDTH 962 0
DWIDTH 26 0
BBX 26 27 0 -1
BITMAP
00000000
00000000
00000000
0007e000
00018000
00018000
00018000
00018000
00018000
00018000
00018000
00018000
00018000
00018000
00018000
00018000
06018000
0f018000
0f018000
0e038000
06030000
030e0000
01f80000
00000000
00000000
00000000
00000000
ENDCHAR
STARTCHAR 244b
ENCODING 9291
SWIDTH 962 0
DWIDTH 26 0
BBX 26 27 0 -1
BITMAP
00000000
00000000
00000000
1f83f800
0600c000
06018000
06030000
06060000
060c0000
06180000
06300000
06700000
06f80000
079c0000
070c0000
060e0000
06060000
06030000
06038000
0601c000
0601c000
0600e000
1f83f800
00000000
00000000
00000000
00000000
ENDCHAR
STARTCHAR 244c
ENCODING 9292
SWIDTH 962 0
DWIDTH 26 0
BBX 26 27 0 -1
BITMAP
00000000
00000000
00000000
0fc00000
03000000
03000000
03000000
03000000
03000000
03000000
03000000
03000000
03000000
03000000
03000000
03000000
03000000
03000000
03001000
03001000
03003000
03007000
0ffff000
00000000
00000000
00000000
00000000
ENDCHAR
STARTCHAR 244d
ENCODING 9293
SWIDTH 962 0
DWIDTH 26 0
BBX 26 27 0 -1
BITMAP
00000000
00000000
00000000
3c003c00
1c003800
1e007800
1e007800
1b00d800
1b00d800
1b81d800
19819800
19c39800
18c31800
18e71800
18661800
187e1800
183c1800
183c1800
18181800
18181800
18001800
18001800
7e007e00
00000000
00000000
00000000
00000000
ENDCHAR
STARTCHAR 244e
ENCODING 9294
SWIDTH 962 0
DWIDTH 26 0
BBX 26 27 0 -1
BITMAP
00000000
00000000
00000000
3f00fc00
0f803000
0d803000
0dc03000
0ce03000
0c603000
0c703000
0c383000
0c183000
0c1c3000
0c0e3000
0c063000
0c073000
0c03b000
0c01b000
0c01f000
0c00f000
0c007000
0c007000
3f003000
00000000
00000000
00000000
00000000
ENDCHAR
STARTCHAR 244f
ENCODING 9295
SWIDTH 962 0
DWIDTH 26 0
BBX 26 27 0 -1
BITMAP
00000000
00000000
00000000
00ff0000
0381c000
06006000
0e007000
0c003000
0c003000
1c003800
18001800
18001800
18001800
18001800
18001800
18001800
1c003800
0c003000
0c003000
0e007000
06006000
0381c000
00ff0000
00000000
00000000
00000000
00000000
ENDCHAR
STARTCHAR 2450
ENCODING 9296
SWIDTH 962 0
DWIDTH 26 0
BBX 26 27 0 -1
BITMAP
00000000
00000000
00000000
0fff0000
0301c000
03006000
03006000
03003000
03003000
03003000
03006000
03006000
0301c000
03ff0000
03000000
03000000
03000000
03000000
03000000
03000000
03000000
03000000
0fc00000
00000000
00000000
00000000
00000000
ENDCHAR
STARTCHAR 2451
ENCODING 9297
SWIDTH 962 0
DWIDTH 26 0
BBX 26 27 0 -1
BITMAP
00000000
00000000
00000000
00ff0000
0381c000
06006000
0e007000
0c003000
0c003000
1c003800
18001800
18001800
18001800
18001800
18001800
18001800
1c003800
0c1c3000
0c363000
0e033000
0601e000
0381c000
00ff6300
00003e00
00001c00
00000000
00000000
ENDCHAR
STARTCHAR 2452
ENCODING 9298
SWIDTH 962 0
DWIDTH 26 0
BBX 26 27 0 -1
BITMAP
00000000
00000000
00000000
0ffe0000
03038000
0300c000
0300c000
03006000
03006000
03006000
0300c000
03008000
03038000
03fe0000
030c0000
03060000
03030000
03030000
03018000
03018000
0300c000
03006000
0fc1f800
00000000
00000000
00000000
00000000
ENDCHAR
STARTCHAR 2453
ENCODING 9299
SWIDTH 962 0
DWIDTH 26 0
BBX 26 27 0 -1
BITMAP
00000000
00000000
00000000
00ff2000
0181e000
0300e000
06006000
06002000
07000000
03800000
01e00000
00780000
001e0000
00078000
0001e000
00007000
04003000
04003000
06003000
07007000
07806000
06c0c000
047f8000
00000000
00000000
00000000
00000000
ENDCHAR
STARTCHAR 2454
ENCODING 9300
SWIDTH 962 0
DWIDTH 26 0
BBX 26 27 0 -1
BITMAP
00000000
00000000
00000000
0ffff000
0e187000
0c183000
08181000
08181000
00180000
00180000
00180000
00180000
00180000
00180000
00180000
00180000
00180000
00180000
00180000
00180000
00180000
00180000
007e0000
00000000
00000000
00000000
00000000
ENDCHAR
STARTCHAR 2455
ENCODING 9301
SWIDTH 962 0
DWIDTH 26 0
BBX 26 27 0 -1
BITMAP
00000000
00000000
00000000
1f81f800
06006000
06006000
06006000
06006000
06006000
06006000
06006000
06006000
06006000
06006000
06006000
06006000
06006000
06006000
06006000
0300c000
0381c000
01c38000
00ff0000
00000000
00000000
00000000
00000000
ENDCHAR
STARTCHAR 2456
ENCODING 9302
SWIDTH 962 0
DWIDTH 26 0
BBX 26 27 0 -1
BITMAP
00000000
00000000
00000000
3f00fc00
0c003000
0c003000
0e007000
06006000
06006000
0700e000
0300c000
0300c000
0381c000
01818000
01c18000
00c30000
00c30000
00660000
00660000
003c0000
003c0000
00180000
00180000
00000000
00000000
00000000
00000000
ENDCHAR
STARTCHAR 2457
ENCODING 9303
SWIDTH 962 0
DWIDTH 26 0
BBX 26 27 0 -1
BITMAP
00000000
00000000
00000000
fc7e3f00
30180c00
30180c00
383c1c00
187e1800
18661800
18661800
1ce73800
0cc33000
0cc33000
0cc33000
0cc33000
0f81f000
0781e000
0781e000
0781e000
0300c000
0300c000
0300c000
0300c000
00000000
00000000
00000000
00000000
ENDCHAR
STARTCHAR 2458
ENCODING 9304
SWIDTH 962 0
DWIDTH 26 0
BBX 26 27 0 -1
BITMAP
00000000
00000000
00000000
3f00fc00
0e007000
07006000
0300c000
03818000
01c38000
00e30000
00e60000
007e0000
003c0000
003c0000
007e0000
00670000
00c70000
01c38000
0181c000
0300c000
0600e000
0e007000
3f00fc00
00000000
00000000
00000000
00000000
ENDCHAR
STARTCHAR 2459
ENCODING 9305
SWIDTH 962 0
DWIDTH 26 0
BBX 26 27 0 -1
BITMAP
00000000
00000000
00000000
3f81fc00
0e007000
06006000
0700e000
0381c000
01c38000
00c30000
00e70000
007e0000
003c0000
00180000
00180000
00180000
00180000
00180000
00180000
00180000
00180000
00180000
007e0000
00000000
00000000
00000000
00000000
ENDCHAR
STARTCHAR 245a
ENCODING 9306
SWIDTH 962 0
DWIDTH 26 0
BBX 26 27 0 -1
BITMAP
00000000
00000000
00000000
0ffff000
0e007000
0c00e000
0801c000
0801c000
00038000
00070000
000e0000
000e0000
001c0000
00380000
00700000
00e00000
01c00000
03800000
03000800
07000800
0e001800
1c003800
1ffff800
00000000
00000000
00000000
00000000
ENDCHAR
STARTCHAR 245b
ENCODING 9307
SWIDTH 962 0
DWIDTH 26 0
BBX 26 27 0 -1
BITMAP
00000000
00000000
00000000
00000000
00000000
00000000
00000000
00000000
00000000
00000000
01fc0000
03060000
07830000
02030000
00030000
00ff0000
03830000
06030000
06030000
06030000
06030000
070f2000
03f9c000
00000000
00000000
00000000
00000000
ENDCHAR
STARTCHAR 245c
ENCODING 9308
SWIDTH 962 0
DWIDTH 26 0
BBX 26 27 0 -1
BITMAP
00000000
00000000
00000000
0f000000
03000000
03000000
03000000
03000000
03000000
03000000
037f0000
03c18000
0380c000
0300c000
03006000
03006000
03006000
03006000
03006000
0300c000
0380c000
03c18000
0f7f0000
00000000
00000000
00000000
00000000
ENDCHAR
STARTCHAR 245d
ENCODING 9309
SWIDTH 962 0
DWIDTH 26 0
BBX 26 27 0 -1
BITMAP
00000000
00000000
00000000
00000000
00000000
00000000
00000000
00000000
00000000
00000000
00ff0000
01838000
0301c000
0303c000
06018000
06000000
06000000
06000000
06000000
03000000
0300c000
01818000
00ff0000
00000000
00000000
00000000
00000000
ENDCHAR
STARTCHAR 245e
ENCODING 9310
SWIDTH 962 0
DWIDTH 26 0
BBX 26 27 0 -1
BITMAP
00000000
00000000
00000000
0003c000
0000c000
0000c000
0000c000
0000c000
0000c000
0000c000
00fec000
0183c000
0301c000
0300c000
0600c000
0600c000
0600c000
0600c000
0600c000
0300c000
0301c000
0183c000
00fe4000
00000000
00000000
00000000
00000000
ENDCHAR
STARTCHAR 245f
ENCODING 9311
SWIDTH 962 0
DWIDTH 26 0
BBX 26 27 0 -1
BITMAP
00000000
00000000
00000000
00000000
00000000
00000000
00000000
00000000
00000000
00000000
00ff0000
01818000
0300c000
0300c000
06006000
06006000
07ffe000
06000000
06000000
03000000
03006000
0180c000
00ff8000
00000000
00000000
00000000
00000000
ENDCHAR
STARTCHAR 2460
ENCODING 9312
SWIDTH 962 0
DWIDTH 26 0
BBX 26 27 0 -1
BITMAP
00000000
00000000
00000000
001f0000
00338000
00638000
00610000
00600000
00600000
00600000
07ff0000
00600000
00600000
00600000
00600000
00600000
00600000
00600000
00600000
00600000
00600000
00600000
01f80000
00000000
00000000
00000000
00000000
ENDCHAR
STARTCHAR 2461
ENCODING 9313
SWIDTH 962 0
DWIDTH 26 0
BBX 26 27 0 -1
BITMAP
00000000
00000000
00000000
00000000
00000000
00000000
00000000
00000000
00000000
00000000
00fcc000
0187c000
03038000
03030000
03030000
01860000
00fc0000
01800000
01f00000
033f0000
06078000
0600c000
0600c000
03018000
01ff0000
00000000
00000000
ENDCHAR
STARTCHAR 2462
ENCODING 9314
SWIDTH 962 0
DWIDTH 26 0
BBX 26 27 0 -1
BITMAP
00000000
00000000
00000000
0f000000
03000000
03000000
03000000
03000000
03000000
03000000
033f0000
03638000
03c1c000
0380c000
0300c000
0300c000
0300c000
0300c000
0300c000
0300c000
0300c000
0300c000
0fc3f000
00000000
00000000
00000000
00000000
ENDCHAR
STARTCHAR 2463
ENCODING 9315
SWIDTH 962 0
DWIDTH 26 0
BBX 26 27 0 -1
BITMAP
00000000
00000000
00000000
00180000
003c0000
003c0000
00180000
00000000
00000000
00000000
00780000
00180000
00180000
00180000
00180000
00180000
00180000
00180000
00180000
00180000
00180000
00180000
007e0000
00000000
00000000
00000000
00000000
ENDCHAR
STARTCHAR 2464
ENCODING 9316
SWIDTH 962 0
DWIDTH 26 0
BBX 26 27 0 -1
BITMAP
00000000
00000000
00000000
000c0000
001e0000
001e0000
000c0000
00000000
00000000
00000000
001e0000
00060000
00060000
00060000
00060000
00060000
00060000
00060000
00060000
00060000
01860000
03c60000
03860000
018c0000
00f80000
00000000
00000000
ENDCHAR
STARTCHAR 2465
ENCODING 9317
SWIDTH 962 0
DWIDTH 26 0
BBX 26 27 0 -1
BITMAP
00000000
00000000
00000000
0f000000
03000000
03000000
03000000
03000000
03000000
03000000
030fc000
03030000
03060000
030c0000
03180000
03380000
036c0000
03c60000
03030000
03018000
0300c000
03006000
0fc1f800
00000000
00000000
00000000
00000000
ENDCHAR
STARTCHAR 2466
ENCODING 9318
SWIDTH 962 0
DWIDTH 26 0
BBX 26 27 0 -1
BITMAP
00000000
00000000
00000000
00780000
00180000
00180000
00180000
00180000
00180000
00180000
00180000
00180000
00180000
00180000
00180000
00180000
00180000
00180000
00180000
00180000
00180000
00180000
007e0000
00000000
00000000
00000000
00000000
ENDCHAR
STARTCHAR 2467
ENCODING 9319
SWIDTH 962 0
DWIDTH 26 0
BBX 26 27 0 -1
BITMAP
00000000
00000000
00000000
00000000
00000000
00000000
00000000
00000000
00000000
00000000
79e3e000
1f363000
1c1c1800
18181800
18181800
18181800
18181800
18181800
18181800
18181800
18181800
18181800
7e3c3c00
00000000
00000000
00000000
00000000
ENDCHAR
STARTCHAR 2468
ENCODING 9320
SWIDTH 962 0
DWIDTH 26 0
BBX 26 27 0 -1
BITMAP
00000000
00000000
00000000
00000000
00000000
00000000
00000000
00000000
00000000
00000000
0f3f0000
03618000
03c0c000
0380c000
0300c000
0300c000
0300c000
0300c000
0300c000
0300c000
0300c000
0300c000
0fc3f000
00000000
00000000
00000000
00000000
ENDCHAR
STARTCHAR 2469
ENCODING 9321
SWIDTH 962 0
DWIDTH 26 0
BBX 26 27 0 -1
BITMAP
00000000
00000000
00000000
00000000
00000000
00000000
00000000
00000000
00000000
00000000
00ff0000
01818000
0300c000
0300c000
06006000
06006000
06006000
06006000
06006000
0300c000
0300c000
01818000
00ff0000
00000000
00000000
00000000
00000000
ENDCHAR
STARTCHAR 246a
ENCODING 9322
SWIDTH 962 0
DWIDTH 26 0
BBX 26 27 0 -1
BITMAP
00000000
00000000
00000000
00000000
00000000
00000000
00000000
00000000
00000000
00000000
07bf0000
01e18000
01c0c000
0180c000
01806000
01806000
01806000
0180c000
01c0c000
01e18000
01bf0000
01800000
01800000
01800000
07e00000
00000000
00000000
ENDCHAR
STARTCHAR 246b
ENCODING 9323
SWIDTH 962 0
DWIDTH 26 0
BBX 26 27 0 -1
BITMAP
00000000
00000000
00000000
00000000
00000000
00000000
00000000
00000000
00000000
00000000
00fc8000
01878000
03038000
03018000
06018000
06018000
06018000
03018000
03038000
01878000
00fd8000
00018000
00018000
00018000
0007e000
00000000
00000000
ENDCHAR
STARTCHAR 246c
ENCODING 9324
SWIDTH 962 0
DWIDTH 26 0
BBX 26 27 0 -1
BITMAP
00000000
00000000
00000000
00000000
00000000
00000000
00000000
00000000
00000000
00000000
079f0000
01b38000
01e3c000
01c18000
01800000
01800000
01800000
01800000
01800000
01800000
01800000
01800000
07e00000
00000000
00000000
00000000
00000000
ENDCHAR
STARTCHAR 246d
ENCODING 9325
SWIDTH 962 0
DWIDTH 26 0
BBX 26 27 0 -1
BITMAP
00000000
00000000
00000000
00000000
00000000
00000000
00000000
00000000
00000000
00000000
00fe0000
01838000
03018000
03008000
03c00000
01f00000
003e0000
000f8000
0001c000
0200c000
0300c000
03818000
00ff0000
00000000
00000000
00000000
00000000
ENDCHAR
STARTCHAR 246e
ENCODING 9326
SWIDTH 962 0
DWIDTH 26 0
BBX 26 27 0 -1
BITMAP
00000000
00000000
00000000
00000000
00000000
00200000
00600000
00600000
00600000
00600000
03ff0000
00600000
00600000
00600000
00600000
00600000
00600000
00600000
00600000
00618000
00618000
00330000
001e0000
00000000
00000000
00000000
00000000
ENDCHAR
STARTCHAR 246f
ENCODING 9327
SWIDTH 962 0
DWIDTH 26 0
BBX 26 27 0 -1
BITMAP
00000000
00000000
00000000
00000000
00000000
00000000
00000000
00000000
00000000
00000000
0f03c000
0300c000
0300c000
0300c000
0300c000
0300c000
0300c000
0300c000
0300c000
0301c000
0303c000
0186c000
00fcf000
00000000
00000000
00000000
00000000
ENDCHAR
STARTCHAR 2470
ENCODING 9328
SWIDTH 962 0
DWIDTH 26 0
BBX 26 27 0 -1
BITMAP
00000000
00000000
00000000
00000000
00000000
00000000
00000000
00000000
00000000
00000000
0fc3f000
0300c000
0300c000
01818000
01818000
00c30000
00c30000
00660000
00660000
003c0000
003c0000
00180000
00180000
00000000
00000000
00000000
00000000
ENDCHAR
STARTCHAR 2471
ENCODING 9329
SWIDTH 962 0
DWIDTH 26 0
BBX 26 27 0 -1
BITMAP
00000000
00000000
00000000
00000000
00000000
00000000
00000000
00000000
00000000
00000000
3c7c7800
18383000
18383000
187c3000
0c6c6000
0cc66000
0cc66000
0cc66000
0783c000
0783c000
03018000
03018000
03018000
00000000
00000000
00000000
00000000
ENDCHAR
STARTCHAR 2472
ENCODING 9330
SWIDTH 962 0
DWIDTH 26 0
BBX 26 27 0 -1
BITMAP
00000000
00000000
00000000
00000000
00000000
00000000
00000000
00000000
00000000
00000000
0fc3f000
0300c000
01818000
00c30000
00660000
003c0000
00180000
003c0000
00660000
00c30000
01818000
0300c000
0fc3f000
00000000
00000000
00000000
00000000
ENDCHAR
STARTCHAR 2473
ENCODING 9331
SWIDTH 962 0
DWIDTH 26 0
BBX 26 27 0 -1
BITMAP
00000000
00000000
00000000
00000000
00000000
00000000
00000000
00000000
00000000
00000000
0fc1f800
03006000
0180c000
00c0c000
00618000
00618000
00330000
001e0000
001e0000
000c0000
00180000
03180000
07300000
06600000
03c00000
00000000
00000000
ENDCHAR
STARTCHAR 2474
ENCODING 9332
SWIDTH 962 0
DWIDTH 26 0
BBX 26 27 0 -1
BITMAP
00000000
00000000
00000000
00000000
00000000
00000000
00000000
00000000
00000000
00000000
03ffc000
0300c000
02018000
02030000
00060000
000c0000
00180000
00300000
00602000
00c02000
01802000
03006000
03ffe000
00000000
00000000
00000000
00000000
ENDCHAR
STARTCHAR 2475
ENCODING 9333
SWIDTH 962 0
DWIDTH 26 0
BBX 26 27 0 -1
BITMAP
00000000
00000000
00000000
00180000
003c0000
002c0000
00660000
00460000
00460000
00c30000
00830000
01818000
01018000
01018000
0300c000
03ffc000
0600e000
04006000
04006000
0c003000
08003000
08003000
3e00fc00
00000000
00000000
00000000
00000000
ENDCHAR
STARTCHAR 2476
ENCODING 9334
SWIDTH 962 0
DWIDTH 26 0
BBX 26 27 0 -1
BITMAP
00000000
00000000
00000000
0ffe0000
03038000
0300c000
03006000
03006000
03006000
03006000
0300c000
03018000
03ff0000
0301c000
03006000
03003000
03001800
03001800
03001800
03001800
03003000
0300e000
0fff8000
00000000
00000000
00000000
00000000
ENDCHAR
STARTCHAR 2477
ENCODING 9335
SWIDTH 962 0
DWIDTH 26 0
BBX 26 27 0 -1
BITMAP
00000000
00000000
00000000
0ffff000
03007000
03003000
03001000
03001000
03000000
03000000
03000000
03000000
03000000
03000000
03000000
03000000
03000000
03000000
03000000
03000000
03000000
03000000
0fc00000
00000000
00000000
00000000
00000000
ENDCHAR
STARTCHAR 2478
ENCODING 9336
SWIDTH 962 0
DWIDTH 26 0
BBX 26 27 0 -1
BITMAP
00000000
00000000
00000000
00180000
003c0000
002c0000
006e0000
00460000
00c70000
00830000
01838000
01018000
0301c000
0200c000
0600e000
04006000
0c007000
08003000
18003800
10001800
30001c00
3ffffc00
3ffffc00
00000000
00000000
00000000
00000000
ENDCHAR
STARTCHAR 2479
ENCODING 9337
SWIDTH 962 0
DWIDTH 26 0
BBX 26 27 0 -1
BITMAP
00000000
00000000
00000000
0fffe000
0300e000
03006000
03002000
03002000
03000000
03020000
03020000
03060000
03fe0000
03060000
03020000
03020000
03000000
03000000
03002000
03002000
03006000
0300e000
0fffe000
00000000
00000000
00000000
00000000
ENDCHAR
STARTCHAR 247a
ENCODING 9338
SWIDTH 962 0
DWIDTH 26 0
BBX 26 27 0 -1
BITMAP
00000000
00000000
00000000
0ffff000
0e007000
0c00e000
0800c000
0801c000
00038000
00070000
00060000
000e0000
001c0000
00380000
00700000
00e00000
01c00000
01800000
03000800
07000800
0e001800
1c003800
1ffff800
00000000
00000000
00000000
00000000
ENDCHAR
STARTCHAR 247b
ENCODING 9339
SWIDTH 962 0
DWIDTH 26 0
BBX 26 27 0 -1
BITMAP
00000000
00000000
00000000
1f81f800
06006000
06006000
06006000
06006000
06006000
06006000
06006000
06006000
07ffe000
06006000
06006000
06006000
06006000
06006000
06006000
06006000
06006000
06006000
1f81f800
00000000
00000000
00000000
00000000
ENDCHAR
STARTCHAR 247c
ENCODING 9340
SWIDTH 962 0
DWIDTH 26 0
BBX 26 27 0 -1
BITMAP
00000000
00000000
00000000
00fe0000
03838000
0600c000
0c006000
0c006000
0c006000
1c007000
18003000
18823000
18fe3000
18fe3000
18823000
18003000
1c007000
0c006000
0c006000
0c006000
0600c000
03838000
00fe0000
00000000
00000000
00000000
00000000
ENDCHAR
STARTCHAR 247d
ENCODING 9341
SWIDTH 962 0
DWIDTH 26 0
BBX 26 27 0 -1
BITMAP
00000000
00000000
00000000
00ff0000
00180000
00180000
00180000
00180000
00180000
00180000
00180000
00180000
00180000
00180000
00180000
00180000
00180000
00180000
00180000
00180000
00180000
00180000
00ff0000
00000000
00000000
00000000
00000000
ENDCHAR
STARTCHAR 247e
ENCODING 9342
SWIDTH 962 0
DWIDTH 26 0
BBX 26 27 0 -1
BITMAP
00000000
00000000
00000000
1f83f000
0600c000
06018000
06030000
06060000
060c0000
06180000
06300000
06700000
06f80000
07980000
070c0000
06060000
06060000
06030000
06018000
06018000
0600c000
0600e000
1f83f800
00000000
00000000
00000000
00000000
ENDCHAR
STARTCHAR 2521
ENCODING 9505
SWIDTH 962 0
DWIDTH 26 0
BBX 26 27 0 -1
BITMAP
00000000
00000000
00000000
00180000
003c0000
003c0000
00660000
00460000
00460000
00c30000
00830000
01818000
01018000
01018000
0300c000
0200c000
06006000
04006000
04006000
0c003000
08003000
08003000
3e00fc00
00000000
00000000
00000000
00000000
ENDCHAR
STARTCHAR 2522
ENCODING 9506
SWIDTH 962 0
DWIDTH 26 0
BBX 26 27 0 -1
BITMAP
00000000
00000000
00000000
7c003e00
1e003800
16005800
13005800
1300d800
11809800
11809800
11819800
10c11800
10c11800
10c31800
10621800
10621800
10661800
10341800
103c1800
10181800
10181800
10001800
7c007e00
00000000
00000000
00000000
00000000
ENDCHAR
STARTCHAR 2523
ENCODING 9507
SWIDTH 962 0
DWIDTH 26 0
BBX 26 27 0 -1
BITMAP
00000000
00000000
00000000
1f00f800
07802000
05802000
05c02000
04e02000
04602000
04702000
04302000
04182000
041c2000
040e2000
04062000
04072000
04032000
0401a000
0401e000
0400e000
04006000
04006000
1f002000
00000000
00000000
00000000
00000000
ENDCHAR
STARTCHAR 2524
ENCODING 9508
SWIDTH 962 0
DWIDTH 26 0
BBX 26 27 0 -1
BITMAP
00000000
00000000
00000000
03fff800
07fff000
04001000
08002000
00000000
00000000
00000000
01002000
01ffe000
03ffc000
02004000
00000000
00000000
00000000
00000000
00000000
04000800
08001000
0ffff000
1fffe000
00000000
00000000
00000000
00000000
ENDCHAR
STARTCHAR 2525
ENCODING 9509
SWIDTH 962 0
DWIDTH 26 0
BBX 26 27 0 -1
BITMAP
00000000
00000000
00000000
00ff0000
0381c000
06006000
0c003000
0c003000
0c003000
1c003800
18001800
18001800
18001800
18001800
18001800
18001800
1c003800
0c003000
0c003000
0c003000
06006000
0381c000
00ff0000
00000000
00000000
00000000
00000000
ENDCHAR
STARTCHAR 2526
ENCODING 9510
SWIDTH 962 0
DWIDTH 26 0
BBX 26 27 0 -1
BITMAP
00000000
00000000
00000000
1ffff800
06006000
06006000
06006000
06006000
06006000
06006000
06006000
06006000
06006000
06006000
06006000
06006000
06006000
06006000
06006000
06006000
06006000
06006000
1f81f800
00000000
00000000
00000000
00000000
ENDCHAR
STARTCHAR 2527
ENCODING 9511
SWIDTH 962 0
DWIDTH 26 0
BBX 26 27 0 -1
BITMAP
00000000
00000000
00000000
0fff0000
0301c000
03006000
03003000
03003000
03003000
03003000
03003000
03006000
0301c000
03ff0000
03000000
03000000
03000000
03000000
03000000
03000000
03000000
03000000
0fc00000
00000000
00000000
00000000
00000000
ENDCHAR
STARTCHAR 2528
ENCODING 9512
SWIDTH 962 0
DWIDTH 26 0
BBX 26 27 0 -1
BITMAP
00000000
00000000
00000000
07fff000
07003000
03801800
01800800
01c00000
00e00000
00700000
00380000
001c0000
000e0000
000c0000
00180000
00300000
00600000
00c00000
01800800
01800800
03001800
07fff000
0ffff000
00000000
00000000
00000000
00000000
ENDCHAR
STARTCHAR 2529
ENCODING 9513
SWIDTH 962 0
DWIDTH 26 0
BBX 26 27 0 -1
BITMAP
00000000
00000000
00000000
0ffff000
0e187000
0c183000
08181000
08181000
00180000
00180000
00180000
00180000
00180000
00180000
00180000
00180000
00180000
00180000
00180000
00180000
00180000
00180000
007e0000
00000000
00000000
00000000
00000000
ENDCHAR
STARTCHAR 252a
ENCODING 9514
SWIDTH 962 0
DWIDTH 26 0
BBX 26 27 0 -1
BITMAP
00000000
00000000
00000000
03c3c000
07e7e000
0c3c3000
18181800
10180800
10180800
00180000
00180000
00180000
00180000
00180000
00180000
00180000
00180000
00180000
00180000
00180000
00180000
00180000
007e0000
00000000
00000000
00000000
00000000
ENDCHAR
STARTCHAR 252b
ENCODING 9515
SWIDTH 962 0
DWIDTH 26 0
BBX 26 27 0 -1
BITMAP
00000000
00000000
00000000
007e0000
00180000
00180000
00ff0000
0799e000
0c183000
18181800
18181800
30180c00
30180c00
30180c00
30180c00
18181800
18181800
0c183000
0799e000
00ff0000
00180000
00180000
007e0000
00000000
00000000
00000000
00000000
ENDCHAR
STARTCHAR 252c
ENCODING 9516
SWIDTH 962 0
DWIDTH 26 0
BBX 26 27 0 -1
BITMAP
00000000
00000000
00000000
1f80fc00
07003000
03002000
03806000
01c0c000
00c18000
00e10000
00730000
00360000
003c0000
00180000
003c0000
006e0000
00c70000
01838000
03018000
0601c000
0c00e000
0c007000
3f01fc00
00000000
00000000
00000000
00000000
ENDCHAR
STARTCHAR 252d
ENCODING 9517
SWIDTH 962 0
DWIDTH 26 0
BBX 26 27 0 -1
BITMAP
00000000
00000000
00000000
387e1c00
7c183e00
c6186300
06186000
06186000
06186000
06186000
0318c000
0318c000
0318c000
0318c000
01998000
01998000
01998000
00db0000
003c0000
00180000
00180000
00180000
007e0000
00000000
00000000
00000000
00000000
ENDCHAR
STARTCHAR 252e
ENCODING 9518
SWIDTH 962 0
DWIDTH 26 0
BBX 26 27 0 -1
BITMAP
00000000
00000000
00000000
007e0000
01c38000
0300c000
0300c000
0700e000
06006000
0e007000
0e007000
0e007000
06006000
0700e000
0300c000
0300c000
01818000
00c30000
00240000
08241000
08241000
0fe7f000
0fe7f000
00000000
00000000
00000000
00000000
ENDCHAR
STARTCHAR 252f
ENCODING 9519
SWIDTH 962 0
DWIDTH 26 0
BBX 26 27 0 -1
BITMAP
00000000
00000000
00000000
00000000
00000000
00000000
00000000
00000000
00000000
00000000
003c3000
00e66000
01836000
03014000
0301c000
06018000
06018000
06018000
06038000
06028000
0306c000
030cc000
01f87000
00000000
00000000
00000000
00000000
ENDCHAR
STARTCHAR 2530
ENCODING 9520
SWIDTH 962 0
DWIDTH 26 0
BBX 26 27 0 -1
BITMAP
00000000
00000000
00000000
000f8000
0018c000
00306000
00606000
00603000
00c06000
00c06000
018ec000
018f8000
01818000
0300c000
0300c000
03006000
06006000
0600c000
0700c000
0fc18000
0c7f0000
0c000000
18000000
18000000
18000000
00000000
00000000
ENDCHAR
STARTCHAR 2531
ENCODING 9521
SWIDTH 962 0
DWIDTH 26 0
BBX 26 27 0 -1
BITMAP
00000000
00000000
00000000
00000000
00000000
00000000
00000000
00000000
00000000
00000000
01e18000
03f18000
06130000
041b0000
040e0000
000e0000
000c0000
000c0000
00180000
00180000
00300000
00300000
00600000
00000000
00000000
00000000
00000000
ENDCHAR
STARTCHAR 2532
ENCODING 9522
SWIDTH 962 0
DWIDTH 26 0
BBX 26 27 0 -1
BITMAP
00000000
00000000
00000000
003e0000
00618000
0060c000
00306000
00186000
000e0000
00030000
003f0000
00618000
00c18000
0180c000
0180c000
0300c000
0300c000
0300c000
03018000
03018000
01830000
01860000
00fc0000
00000000
00000000
00000000
00000000
ENDCHAR
STARTCHAR 2533
ENCODING 9523
SWIDTH 962 0
DWIDTH 26 0
BBX 26 27 0 -1
BITMAP
00000000
00000000
00000000
00000000
00000000
00000000
00000000
00000000
00000000
00000000
007f0000
00c1c000
01804000
01800000
01800000
00fe0000
019c0000
03000000
03000000
03004000
01c0c000
00ff8000
003e0000
00000000
00000000
00000000
00000000
ENDCHAR
STARTCHAR 2534
ENCODING 9524
SWIDTH 962 0
DWIDTH 26 0
BBX 26 27 0 -1
BITMAP
00000000
00000000
00000000
00300000
00c00000
01830000
01870000
00ee0000
00380000
00200000
00400000
00c00000
00800000
01800000
01800000
03000000
03000000
03000000
01f00000
00fc0000
000e0000
00030000
01830000
00fe0000
00000000
00000000
00000000
ENDCHAR
STARTCHAR 2535
ENCODING 9525
SWIDTH 962 0
DWIDTH 26 0
BBX 26 27 0 -1
BITMAP
00000000
00000000
00000000
00000000
00000000
00000000
00000000
00000000
00000000
00000000
038f0000
04b98000
00e0c000
00c0c000
00c0c000
0180c000
01818000
01818000
01818000
03018000
03018000
03030000
03030000
00030000
00030000
00000000
00000000
ENDCHAR
STARTCHAR 2536
ENCODING 9526
SWIDTH 962 0
DWIDTH 26 0
BBX 26 27 0 -1
BITMAP
00000000
00000000
00000000
001e0000
00738000
00c18000
0181c000
0180c000
0300c000
0300c000
0300c000
0300c000
07ffc000
0601c000
06018000
06018000
06018000
06018000
06030000
07030000
03060000
039c0000
00f00000
00000000
00000000
00000000
00000000
ENDCHAR
STARTCHAR 2537
ENCODING 9527
SWIDTH 962 0
DWIDTH 26 0
BBX 26 27 0 -1
BITMAP
00000000
00000000
00000000
00000000
00000000
00000000
00000000
00000000
00000000
00000000
00180000
00380000
00300000
00600000
00600000
00c00000
00c00000
00c00000
01800000
01820000
01820000
01fc0000
00f00000
00000000
00000000
00000000
00000000
ENDCHAR
STARTCHAR 2538
ENCODING 9528
SWIDTH 962 0
DWIDTH 26 0
BBX 26 27 0 -1
BITMAP
00000000
00000000
00000000
00000000
00000000
00000000
00000000
00000000
00000000
00000000
03c18000
04c38000
00c60000
018c0000
01980000
01b80000
03680000
034c0000
03cc0000
038c2000
070c2000
0607c000
06038000
00000000
00000000
00000000
00000000
ENDCHAR
STARTCHAR 2539
ENCODING 9529
SWIDTH 962 0
DWIDTH 26 0
BBX 26 27 0 -1
BITMAP
00000000
00000000
00000000
00600000
00700000
00180000
00180000
00080000
000c0000
00040000
00040000
000c0000
00140000
00340000
00260000
00660000
00420000
00c30000
00c30000
01818000
01818000
0380f000
03007000
00000000
00000000
00000000
00000000
ENDCHAR
STARTCHAR 253a
ENCODING 9530
SWIDTH 962 0
DWIDTH 26 0
BBX 26 27 0 -1
BITMAP
00000000
00000000
00000000
00000000
00000000
00000000
00000000
00000000
00000000
00000000
00404000
00c0c000
00c0c000
00c0c000
01c1c000
01818000
01818000
01830000
03030000
03030000
03832000
02cfa000
0678c000
06000000
06000000
00000000
00000000
ENDCHAR
STARTCHAR 253b
ENCODING 9531
SWIDTH 962 0
DWIDTH 26 0
BBX 26 27 0 -1
BITMAP
00000000
00000000
00000000
00000000
00000000
00000000
00000000
00000000
00000000
00000000
01804000
01c04000
00c04000
00e0c000
00608000
00608000
00618000
00410000
00430000
00c60000
009c0000
00f80000
01e00000
00000000
00000000
00000000
00000000
ENDCHAR
STARTCHAR 253c
ENCODING 9532
SWIDTH 962 0
DWIDTH 26 0
BBX 26 27 0 -1
BITMAP
00000000
00000000
000e0000
00100000
00300000
003fc000
00638000
00c00000
00c00000
00c00000
00700000
003fc000
00438000
00c00000
01800000
01800000
03000000
03800000
01f00000
007e0000
000f0000
00018000
00618000
007f0000
00000000
00000000
00000000
ENDCHAR
STARTCHAR 253d
ENCODING 9533
SWIDTH 962 0
DWIDTH 26 0
BBX 26 27 0 -1
BITMAP
00000000
00000000
00000000
00000000
00000000
00000000
00000000
00000000
00000000
00000000
003f0000
00618000
00c18000
0180c000
0180c000
0300c000
0300c000
0300c000
03018000
03018000
01830000
01860000
00fc0000
00000000
00000000
00000000
00000000
ENDCHAR
STARTCHAR 253e
ENCODING 9534
SWIDTH 962 0
DWIDTH 26 0
BBX 26 27 0 -1
BITMAP
00000000
00000000
00000000
00000000
00000000
00000000
00000000
00000000
00000000
00002000
01ffc000
03ff8000
04430000
00430000
00c30000
00860000
00860000
01860000
018c0000
038c0000
030c4000
070f8000
06070000
00000000
00000000
00000000
00000000
ENDCHAR
STARTCHAR 253f
ENCODING 9535
SWIDTH 962 0
DWIDTH 26 0
BBX 26 27 0 -1
BITMAP
00000000
00000000
00000000
00000000
00000000
00000000
00000000
00000000
00000000
00000000
003f0000
00618000
00c1c000
00c0c000
0180c000
0180c000
0180c000
0380c000
03818000
03c18000
03430000
067e0000
06000000
06000000
06000000
00000000
00000000
ENDCHAR
STARTCHAR 2540
ENCODING 9536
SWIDTH 962 0
DWIDTH 26 0
BBX 26 27 0 -1
BITMAP
00000000
00000000
00000000
00000000
00000000
00000000
00000000
00000000
00000000
00000800
007ef800
00c37000
01810000
03018000
03018000
06018000
06018000
06018000
06030000
06030000
03060000
030c0000
01f80000
00000000
00000000
00000000
00000000
ENDCHAR
STARTCHAR 2541
ENCODING 9537
SWIDTH 962 0
DWIDTH 26 0
BBX 26 27 0 -1
BITMAP
00000000
00000000
00000000
00000000
00000000
00000000
00000000
00000000
00000000
00008000
01ff0000
03fe0000
04300000
00700000
00600000
00e00000
00c00000
00c00000
01800000
01820000
01820000
01fc0000
00f00000
00000000
00000000
00000000
00000000
ENDCHAR
STARTCHAR 2542
ENCODING 9538
SWIDTH 962 0
DWIDTH 26 0
BBX 26 27 0 -1
BITMAP
00000000
00000000
00000000
00000000
00000000
00000000
00000000
00000000
00000000
00000000
01818000
01c08000
00c0c000
00c0c000
00c0c000
0080c000
0181c000
01018000
01018000
01010000
01830000
00c60000
007c0000
00000000
00000000
00000000
00000000
ENDCHAR
STARTCHAR 2543
ENCODING 9539
SWIDTH 962 0
DWIDTH 26 0
BBX 26 27 0 -1
BITMAP
00000000
00000000
00000000
00030000
00030000
00060000
00060000
00060000
000c0000
003f0000
00ed8000
018cc000
030cc000
03086000
06186000
06186000
0618c000
0310c000
03318000
01b70000
00fc0000
00600000
00600000
00c00000
00c00000
00000000
00000000
ENDCHAR
STARTCHAR 2544
ENCODING 9540
SWIDTH 962 0
DWIDTH 26 0
BBX 26 27 0 -1
BITMAP
00000000
00000000
00000000
00000000
00000000
00000000
00000000
00000000
00000000
00000000
00c06000
01e0e000
0220c000
00318000
00110000
00190000
000a0000
000c0000
00140000
00640000
00c40000
01860000
03061000
0703e000
0601c000
00000000
00000000
ENDCHAR
STARTCHAR 2545
ENCODING 9541
SWIDTH 962 0
DWIDTH 26 0
BBX 26 27 0 -1
BITMAP
00000000
00000000
00000000
00030000
00030000
00070000
00060000
00060000
00060000
00040000
00cc4000
018ce000
030c6000
03086000
06186000
06186000
0618c000
0610c000
03318000
03318000
01b30000
00fe0000
00600000
00e00000
00c00000
00000000
00000000
ENDCHAR
STARTCHAR 2546
ENCODING 9542
SWIDTH 962 0
DWIDTH 26 0
BBX 26 27 0 -1
BITMAP
00000000
00000000
00000000
00000000
00000000
00000000
00000000
00000000
00000000
00000000
00e02000
01801000
03001000
06041800
060c1800
0c0c1800
0c1c1800
0c181800
0c183000
06083000
06186000
0334c000
01e70000
00000000
00000000
00000000
00000000
ENDCHAR
STARTCHAR 2547
ENCODING 9543
SWIDTH 962 0
DWIDTH 26 0
BBX 26 27 0 -1
BITMAP
00000000
00000000
00000000
01c00000
00c00000
01800000
03000000
06000000
0c07e000
1ffff000
0ff83000
00003000
00003000
00006000
00006000
00006000
0000c000
0000c000
00018000
00c30000
00760000
003c0000
00180000
00000000
00000000
00000000
00000000
ENDCHAR
STARTCHAR 2548
ENCODING 9544
SWIDTH 962 0
DWIDTH 26 0
BBX 26 27 0 -1
BITMAP
00000000
00000000
00000000
00700000
00300000
00600000
00c00000
0187e000
03fff000
07f83000
00006000
0600c000
03018000
01830000
00c60000
006c0000
00380000
003c0000
00660000
00c30000
0381e000
0700fc00
1e007000
00000000
00000000
00000000
00000000
ENDCHAR
STARTCHAR 2549
ENCODING 9545
SWIDTH 962 0
DWIDTH 26 0
BBX 26 27 0 -1
BITMAP
00000000
00000000
00000000
00000000
00000000
00000000
0c1ff000
0ffff800
0fe03000
0c003000
0c003000
0c003000
0c003000
0c003000
0c003000
0c003000
0c003000
0c003000
0c003000
0c003000
0c003000
0c003000
00000000
00000000
00000000
00000000
00000000
ENDCHAR
STARTCHAR 254a
ENCODING 9546
SWIDTH 962 0
DWIDTH 26 0
BBX 26 27 0 -1
BITMAP
00000000
00000000
00000000
00000000
00000000
00000000
0007f000
1ffff800
0ff80000
0c000000
0c000000
0c000000
0c000000
0c000000
0c000000
0c000000
0c000000
0c000000
0c000000
0c0ff800
0ffff000
07f00000
00000000
00000000
00000000
00000000
00000000
ENDCHAR
STARTCHAR 254b
ENCODING 9547
SWIDTH 962 0
DWIDTH 26 0
BBX 26 27 0 -1
BITMAP
00000000
00000000
00000000
03800000
01c00000
03000000
06003000
0c0ff000
0ffff800
07f01800
00301800
00601800
00c01800
00c03000
01803000
01803000
03006000
03006000
06006000
0c08c000
000dc000
00078000
00030000
00000000
00000000
00000000
00000000
ENDCHAR
STARTCHAR 254c
ENCODING 9548
SWIDTH 962 0
DWIDTH 26 0
BBX 26 27 0 -1
BITMAP
00000000
00000000
00000000
00380000
001c0000
00180000
00380000
00300000
003ff000
1ffff800
1ff00000
00300000
00600000
00600000
00c00000
00c00000
01818000
0181c000
0300c000
070fe000
0ffff000
0ff03000
00003000
00000000
00000000
00000000
00000000
ENDCHAR
STARTCHAR 254d
ENCODING 9549
SWIDTH 962 0
DWIDTH 26 0
BBX 26 27 0 -1
BITMAP
00000000
00000000
00000000
003f8000
0fffc000
07c18000
00030000
00060000
000c2000
001ff000
000e3800
00003000
00003000
00006000
00006000
00006000
0000c000
0000c000
0000c000
00618000
003b8000
001f0000
000e0000
00000000
00000000
00000000
00000000
ENDCHAR
STARTCHAR 254e
ENCODING 9550
SWIDTH 962 0
DWIDTH 26 0
BBX 26 27 0 -1
BITMAP
00000000
00000000
00000000
03860000
01c60000
030c0000
060c0000
0c180000
0c1fe000
1ffff000
0ff03000
00306000
00606000
00c06000
00c0c000
0180c000
0180c000
03018000
03018000
06018000
063b0000
0c1e0000
180c0000
00000000
00000000
00000000
00000000
ENDCHAR
STARTCHAR 254f
ENCODING 9551
SWIDTH 962 0
DWIDTH 26 0
BBX 26 27 0 -1
BITMAP
00000000
00000000
00000000
00000000
00606000
00606000
00c0c000
00c0c000
01818000
03030000
06060000
0c0c0000
18180000
18180000
0c0c0000
06060000
03030000
01818000
00c0c000
00c0c000
00606000
00606000
00000000
00000000
00000000
00000000
00000000
ENDCHAR
STARTCHAR 2550
ENCODING 9552
SWIDTH 962 0
DWIDTH 26 0
BBX 26 27 0 -1
BITMAP
00000000
00000000
00000000
0007f000
1ffff800
0ff80000
00180000
00300000
00300000
00600000
0063e000
00fff800
00001800
00003000
00003000
00006000
00006000
0000c000
0000c000
00c18000
00730000
001e0000
000c0000
00000000
00000000
00000000
00000000
ENDCHAR
STARTCHAR 2551
ENCODING 9553
SWIDTH 962 0
DWIDTH 26 0
BBX 26 27 0 -1
BITMAP
00000000
00000000
00000000
03fff800
01fff000
01800000
01800000
01800000
01800000
01800000
01800000
01800000
01800000
01800000
01800000
01800000
03000000
03000000
03000000
06000000
06000000
0c000000
18000000
00000000
00000000
00000000
00000000
ENDCHAR
STARTCHAR 2552
ENCODING 9554
SWIDTH 962 0
DWIDTH 26 0
BBX 26 27 0 -1
BITMAP
00000000
00000000
00010000
00018000
00018000
00018000
08018000
0c018000
0c018000
0c018000
0c018000
0c018000
0c078000
0c1f8000
0cf98000
0fe18000
0f018000
08018000
00018000
00018000
00018000
00018000
00018000
00010000
00000000
00000000
00000000
ENDCHAR
STARTCHAR 2553
ENCODING 9555
SWIDTH 962 0
DWIDTH 26 0
BBX 26 27 0 -1
BITMAP
00000000
00000000
00000000
00038000
00038000
00070000
000e0000
001c0000
00380000
00700000
00e00000
01c00000
03800000
07000000
03800000
01c00000
00e00000
00700000
00380000
001c0000
000e0000
00070000
00038000
00000000
00000000
00000000
00000000
ENDCHAR
STARTCHAR 2554
ENCODING 9556
SWIDTH 962 0
DWIDTH 26 0
BBX 26 27 0 -1
BITMAP
00000000
00000000
00000000
00000000
001ff800
0fffe000
07f80000
00180000
00180000
00180000
00180000
00180000
00180000
00180000
00180000
00180000
00180000
00180000
00180000
00180000
00180000
00180000
00000000
00000000
00000000
00000000
00000000
ENDCHAR
STARTCHAR 2555
ENCODING 9557
SWIDTH 962 0
DWIDTH 26 0
BBX 26 27 0 -1
BITMAP
00000000
00000000
00000000
00000000
000c0000
000c1000
020c3000
060c3000
060c3000
060c3000
060c3000
060ff000
07fff000
03fc0000
000c0000
000c0000
000c0000
000c0000
000c0000
000ff800
0ffff800
0ffc0000
00000000
00000000
00000000
00000000
00000000
ENDCHAR
STARTCHAR 2556
ENCODING 9558
SWIDTH 962 0
DWIDTH 26 0
BBX 26 27 0 -1
BITMAP
00000000
00000000
00000000
00060000
00070000
000c0000
00186000
00307000
0060c000
00c18000
03830000
0f0e0000
001e0000
00760000
01c60000
07060000
00060000
00060000
00060000
00060000
00060000
00060000
00060000
00060000
00000000
00000000
00000000
ENDCHAR
STARTCHAR 2557
ENCODING 9559
SWIDTH 962 0
DWIDTH 26 0
BBX 26 27 0 -1
BITMAP
00000000
00000000
00000000
00001000
01fff800
03fff800
00003000
00003000
00003000
00003000
00fff000
01fff000
01800000
01800000
01800000
01800000
01800000
03800000
03000000
03000000
03000000
06000000
06000000
06000000
0c000000
00000000
00000000
ENDCHAR
STARTCHAR 2558
ENCODING 9560
SWIDTH 962 0
DWIDTH 26 0
BBX 26 27 0 -1
BITMAP
00000000
00000000
00000000
00002000
0607f000
07fff000
07f86000
06006000
06006000
06006000
06306000
06386000
061c6000
060e6000
060e6000
06006000
06006000
06006000
06006000
0607e000
07ffe000
07f86000
06000000
00000000
00000000
00000000
00000000
ENDCHAR
STARTCHAR 2559
ENCODING 9561
SWIDTH 962 0
DWIDTH 26 0
BBX 26 27 0 -1
BITMAP
00000000
00000000
00000000
00000000
0007c000
0fffe000
1ff86000
03006000
0300c000
0300c000
0300c000
0300c000
03318000
03198000
030d8000
03078000
03030000
03000000
03000000
03000000
03000000
03000000
03000000
00000000
00000000
00000000
00000000
ENDCHAR
STARTCHAR 255a
ENCODING 9562
SWIDTH 962 0
DWIDTH 26 0
BBX 26 27 0 -1
BITMAP
00000000
00000000
00000000
00300000
00300000
00300000
003ff000
0ffff800
1ff00000
00600000
00600000
00c00000
00cfc000
01ffe000
01f06000
0000c000
0000c000
00018000
00030000
00060000
000c0000
00180000
00300000
00000000
00000000
00000000
00000000
ENDCHAR
STARTCHAR 255b
ENCODING 9563
SWIDTH 962 0
DWIDTH 26 0
BBX 26 27 0 -1
BITMAP
00000000
00000000
00000000
00000000
00000000
00600000
00300000
00380000
00700000
00600000
00600000
00c00000
00c00000
00c00000
01818000
0180c000
03806000
03006000
0300f000
061ff000
07ff9800
0ff01800
00001000
00000000
00000000
00000000
00000000
ENDCHAR
STARTCHAR 255c
ENCODING 9564
SWIDTH 962 0
DWIDTH 26 0
BBX 26 27 0 -1
BITMAP
00000000
00000000
00000000
00000000
0e007000
0700e000
0300c000
01818000
00c30000
00660000
003c0000
00180000
00180000
00180000
00180000
00180000
00180000
00180000
00180000
00180000
00180000
00180000
00180000
00000000
00000000
00000000
00000000
ENDCHAR
STARTCHAR 255d
ENCODING 9565
SWIDTH 962 0
DWIDTH 26 0
BBX 26 27 0 -1
BITMAP
00000000
00000000
00000000
00000000
001ff000
1ffff800
0ff80000
00180000
00180000
00180000
00180000
00180000
01f80000
07f80000
0e180000
18000000
18000000
18000000
18000000
1800e000
0c038000
07ff0000
03fc0000
00000000
00000000
00000000
00000000
ENDCHAR
STARTCHAR 255e
ENCODING 9566
SWIDTH 962 0
DWIDTH 26 0
BBX 26 27 0 -1
BITMAP
00000000
00000000
00000000
00000000
000c0000
000c0000
000c0000
000ff000
0ffff800
1ffc0000
000c0000
000c0000
000c0000
03ec0000
07fc0000
0c1c0000
18000000
18000000
18000000
18000000
0c00f000
07ffc000
03ff0000
00000000
00000000
00000000
00000000
ENDCHAR
STARTCHAR 255f
ENCODING 9567
SWIDTH 962 0
DWIDTH 26 0
BBX 26 27 0 -1
BITMAP
00000000
00000000
00000000
00000000
03000000
03030000
03030000
03030000
03030000
03030000
031ff000
3ffff800
1fe30000
03030000
03030000
03030000
03030000
03030000
03000000
03000000
03000000
03ffe000
01ffc000
00000000
00000000
00000000
00000000
ENDCHAR
STARTCHAR 2560
ENCODING 9568
SWIDTH 962 0
DWIDTH 26 0
BBX 26 27 0 -1
BITMAP
00000000
00000000
00000000
00000000
000fe000
1ffff000
0ff80000
060c0000
060c0000
06180000
0c300000
0c300000
0fffe000
0fffe000
0c607000
00606000
0060c000
00c0c000
00c0c000
00c18000
01818000
01830000
03060000
00000000
00000000
00000000
00000000
ENDCHAR
STARTCHAR 2561
ENCODING 9569
SWIDTH 962 0
DWIDTH 26 0
BBX 26 27 0 -1
BITMAP
00000000
00000000
00000000
00000000
00c00000
01e00000
03e00000
03300000
07300000
0e180000
3c180000
000c0000
000c0000
000e0000
00060000
00060000
00030000
00030000
00018000
0001c000
0000e000
0000f800
00006000
00000000
00000000
00000000
00000000
ENDCHAR
STARTCHAR 2562
ENCODING 9570
SWIDTH 962 0
DWIDTH 26 0
BBX 26 27 0 -1
BITMAP
00000000
00000000
00000000
00000000
00700000
00306000
00606000
00c0c000
0180c000
1b018000
0f030000
07060000
038c0000
01d80000
00f00000
00600000
00618000
00c0c000
0180c000
030fe000
0fffb000
07f03000
00002000
00000000
00000000
00000000
00000000
ENDCHAR
STARTCHAR 2563
ENCODING 9571
SWIDTH 962 0
DWIDTH 26 0
BBX 26 27 0 -1
BITMAP
00000000
00000000
00000000
00000000
000fe000
1ffff000
0ff83000
00006000
0600c000
03018000
01830000
00c60000
006c0000
003c0000
003c0000
00660000
00c30000
01818000
0300c000
06006000
0c003000
18001800
00000000
00000000
00000000
00000000
00000000
ENDCHAR
STARTCHAR 2564
ENCODING 9572
SWIDTH 962 0
DWIDTH 26 0
BBX 26 27 0 -1
BITMAP
00000000
00000000
00000000
00000000
00008000
1fffc000
0fffc000
03018000
03018000
03018000
03018000
06030000
06030000
07fff000
07fff800
06003000
00003000
00003000
00003000
00006000
00006000
0000c000
00018000
00030000
00060000
00000000
00000000
ENDCHAR
STARTCHAR 2565
ENCODING 9573
SWIDTH 962 0
DWIDTH 26 0
BBX 26 27 0 -1
BITMAP
00000000
00000000
00000000
00000000
01800000
03000000
03000000
06000000
06000000
0c000000
0c3fe000
1ffff000
1fc07000
00006000
00006000
0000c000
0000c000
00018000
00018000
00030000
00030000
00060000
00000000
00000000
00000000
00000000
00000000
ENDCHAR
STARTCHAR 2566
ENCODING 9574
SWIDTH 962 0
DWIDTH 26 0
BBX 26 27 0 -1
BITMAP
00000000
00000000
00000000
00000000
001c0000
000c0000
000c0000
000c0000
000ff000
07fff800
0ff80000
00180000
00180000
001c0000
00360000
00360000
00360000
00660000
00c60000
01860000
03060000
0603fc00
0c01f000
00000000
00000000
00000000
00000000
ENDCHAR
STARTCHAR 2567
ENCODING 9575
SWIDTH 962 0
DWIDTH 26 0
BBX 26 27 0 -1
BITMAP
00000000
00000000
00000000
00000000
00000000
00000000
00000000
00180000
000c0000
001c0000
00380000
00700000
00600000
00c00000
01800000
03000000
06000000
0c000000
1803f800
1ffffc00
1ffc0000
00000000
00000000
00000000
00000000
00000000
00000000
ENDCHAR
STARTCHAR 2568
ENCODING 9576
SWIDTH 962 0
DWIDTH 26 0
BBX 26 27 0 -1
BITMAP
00000000
00000000
00000000
00000000
001c0000
038c0000
018c0000
018c0000
018c0000
018c0000
018c0000
018c0000
018c0000
030c0000
030c0000
030c0000
030c0000
060c0000
060c0000
060c0000
0c0ff800
1c07f000
00000000
00000000
00000000
00000000
00000000
ENDCHAR
STARTCHAR 2569
ENCODING 9577
SWIDTH 962 0
DWIDTH 26 0
BBX 26 27 0 -1
BITMAP
00000000
00000000
00000000
00000000
00000000
00000000
00000000
00000000
00000000
00000000
00000000
00000000
1ffff800
1ffff800
00000000
00000000
00000000
00000000
00000000
00000000
00000000
00000000
00000000
00000000
00000000
00000000
00000000
ENDCHAR
STARTCHAR 256a
ENCODING 9578
SWIDTH 962 0
DWIDTH 26 0
BBX 26 27 0 -1
BITMAP
00000000
00000000
00000000
00000000
0c006000
0c006000
0600c000
0600c000
03018000
01830000
00c60000
006c0000
00380000
00380000
006c0000
00c60000
01830000
03018000
0600c000
0600c000
0c006000
0c006000
00000000
00000000
00000000
00000000
00000000
ENDCHAR
STARTCHAR 256b
ENCODING 9579
SWIDTH 962 0
DWIDTH 26 0
BBX 26 27 0 -1
BITMAP
00000000
00000000
00000000
00000000
00000000
04002000
0c003000
0c003000
0c003000
0c003000
0c003000
0c003000
0c003000
0c003000
0c003000
0c003000
0c003000
0c003000
0c0ff000
0ffff000
0ff03000
0c003000
00000000
00000000
00000000
00000000
00000000
ENDCHAR
STARTCHAR 256c
ENCODING 9580
SWIDTH 962 0
DWIDTH 26 0
BBX 26 27 0 -1
BITMAP
00000000
00000000
00000000
00000000
00000000
00000000
00000000
00000000
00000000
00000000
00180000
003c0000
003c0000
00180000
00000000
00000000
00000000
00000000
00000000
00000000
00000000
00000000
00000000
00000000
00000000
00000000
00000000
ENDCHAR
STARTCHAR 256d
ENCODING 9581
SWIDTH 962 0
DWIDTH 26 0
BBX 26 27 0 -1
BITMAP
00000000
00000000
00000000
00000000
00000000
00000000
00000000
00000000
00000000
00000000
00000000
00000000
00000000
00000000
00000000
00000000
00000000
00000000
00000000
00000000
00000000
00000000
00000000
00000000
00000000
00000000
00000000
ENDCHAR
STARTCHAR 256e
ENCODING 9582
SWIDTH 962 0
DWIDTH 26 0
BBX 26 27 0 -1
BITMAP
00000000
00000000
00000000
00000000
00000000
00000000
00000000
00000000
00008000
00018000
00030000
00060000
000c0000
00180000
01700000
01e00000
01c00000
01800000
01000000
00000000
00000000
00000000
00000000
00000000
00000000
00000000
00000000
ENDCHAR
STARTCHAR 256f
ENCODING 9583
SWIDTH 962 0
DWIDTH 26 0
BBX 26 27 0 -1
BITMAP
00000000
00000000
00000000
00000000
00000000
00000000
00000000
00003000
00006000
0000c000
01018000
01830000
018e0000
01dc0000
01f80000
00f00000
00e00000
00c00000
00800000
00000000
00000000
00000000
00000000
00000000
00000000
00000000
00000000
ENDCHAR
STARTCHAR 2570
ENCODING 9584
SWIDTH 962 0
DWIDTH 26 0
BBX 26 27 0 -1
BITMAP
00000000
00000000
00000000
00000000
00000000
00000000
00000000
00000000
00c00000
00e00000
00f00000
00f80000
003c0000
000e0000
00070000
00030000
00018000
00008000
00000000
00000000
00000000
00000000
00000000
00000000
00000000
00000000
00000000
ENDCHAR
STARTCHAR 2621
ENCODING 9761
SWIDTH 962 0
DWIDTH 26 0
BBX 26 27 0 -1
BITMAP
00000000
007e0000
01c38000
0700e000
1c183800
10380800
30780c00
20980400
60180600
40180200
c0180300
80180100
80180100
80180100
80180100
c0180300
40180200
60180600
20180400
30180c00
11ff8800
1c003800
0700e000
01c38000
007e0000
00000000
00000000
ENDCHAR
STARTCHAR 2622
ENCODING 9762
SWIDTH 962 0
DWIDTH 26 0
BBX 26 27 0 -1
BITMAP
00000000
007e0000
01c38000
0700e000
1c003800
107e0800
30c30c00
21818400
63018600
43030200
c0030300
80060100
800c0100
80180100
80300100
c0608300
40c08200
6180c600
23ffc400
33ff8c00
10000800
1c003800
0700e000
01c38000
007e0000
00000000
00000000
ENDCHAR
STARTCHAR 2623
ENCODING 9763
SWIDTH 962 0
DWIDTH 26 0
BBX 26 27 0 -1
BITMAP
00000000
007e0000
01c38000
0700e000
1c003800
10ff8800
31ffcc00
23006400
62006600
40006200
c0006300
8000c100
807f8100
807fc100
80006100
c0003300
40003200
63003600
23006400
31ffcc00
10ff8800
1c003800
0700e000
01c38000
007e0000
00000000
00000000
ENDCHAR
STARTCHAR 2624
ENCODING 9764
SWIDTH 962 0
DWIDTH 26 0
BBX 26 27 0 -1
BITMAP
00000000
007e0000
01c38000
0700e000
1c003800
10060800
300e0c00
201e0400
60360600
40660200
c0c60300
81860100
83060100
86060100
86060100
c6060300
47ffe200
67ffe600
20060400
30060c00
10060800
1c003800
0700e000
01c38000
007e0000
00000000
00000000
ENDCHAR
STARTCHAR 2625
ENCODING 9765
SWIDTH 962 0
DWIDTH 26 0
BBX 26 27 0 -1
BITMAP
00000000
007e0000
01c38000
0700e000
1c003800
13ffc800
33ffcc00
23000400
63000600
43000200
c3000300
833f8100
83ffc100
83806100
80003100
c0003300
40003200
60003600
23006400
31ffcc00
10ff8800
1c003800
0700e000
01c38000
007e0000
00000000
00000000
ENDCHAR
STARTCHAR 2626
ENCODING 9766
SWIDTH 962 0
DWIDTH 26 0
BBX 26 27 0 -1
BITMAP
00000000
007e0000
01c38000
0700e000
1c003800
10ff8800
31ffcc00
23006400
66006600
46000200
c6000300
86000100
867f0100
86ff8100
8780c100
c6006300
46006200
66006600
2300c400
31ff8c00
10ff0800
1c003800
0700e000
01c38000
007e0000
00000000
00000000
ENDCHAR
STARTCHAR 2627
ENCODING 9767
SWIDTH 962 0
DWIDTH 26 0
BBX 26 27 0 -1
BITMAP
00000000
007e0000
01c38000
0700e000
1c003800
11ff8800
33ffcc00
2300c400
6300c600
4300c200
c0018300
80018100
80018100
80018100
80030100
c0030300
40030200
60060600
20060400
30060c00
10060800
1c003800
0700e000
01c38000
007e0000
00000000
00000000
ENDCHAR
STARTCHAR 2628
ENCODING 9768
SWIDTH 962 0
DWIDTH 26 0
BBX 26 27 0 -1
BITMAP
00000000
007e0000
01c38000
0700e000
1c003800
10ff0800
31818c00
2300c400
6300c600
4300c200
c300c300
81818100
80ff0100
81818100
8300c100
c6006300
46006200
62004600
2300c400
31818c00
107e0800
1c003800
0700e000
01c38000
007e0000
00000000
00000000
ENDCHAR
STARTCHAR 2629
ENCODING 9769
SWIDTH 962 0
DWIDTH 26 0
BBX 26 27 0 -1
BITMAP
00000000
007e0000
01c38000
0700e000
1c003800
107f0800
30ff8c00
2180c400
6300c600
4300c200
c300c300
8180c100
80ffc100
807ec100
8000c100
c000c300
4000c200
62018600
23018400
33ff8c00
10ff0800
1c003800
0700e000
01c38000
007e0000
00000000
00000000
ENDCHAR
STARTCHAR 262a
ENCODING 9770
SWIDTH 962 0
DWIDTH 26 0
BBX 26 27 0 -1
BITMAP
00000000
007e0000
01c38000
0700e000
1c003800
10000800
318f8c00
2398c400
65904600
41b06200
c1b06300
81b06100
81b06100
81b06100
81b06100
c1b06300
41b06200
61904600
2198c400
37ef8c00
10000800
1c003800
0700e000
01c38000
007e0000
00000000
00000000
ENDCHAR
STARTCHAR 262b
ENCODING 9771
SWIDTH 962 0
DWIDTH 26 0
BBX 26 27 0 -1
BITMAP
00000000
00000000
08181000
10780800
10f80800
30180c00
20180400
20180400
20180400
60180600
40180200
40180200
40180200
40180200
40180200
40180200
60180600
20180400
20180400
20180400
30180c00
10180800
10180800
087e1000
00000000
00000000
00000000
ENDCHAR
STARTCHAR 262c
ENCODING 9772
SWIDTH 962 0
DWIDTH 26 0
BBX 26 27 0 -1
BITMAP
00000000
00000000
087e1000
11838800
1381c800
37006c00
27006400
23006400
20006400
6000c600
40018200
40030200
40060200
400c0200
40180200
40300200
60600600
20c00400
21804400
23004400
36004c00
17ffc800
17ffc800
08001000
00000000
00000000
00000000
ENDCHAR
STARTCHAR 262d
ENCODING 9773
SWIDTH 962 0
DWIDTH 26 0
BBX 26 27 0 -1
BITMAP
00000000
00000000
083f1000
10638800
10c0c800
31e06c00
21e06400
20406400
20006400
6000c600
40018200
40030200
403e0200
40030200
40018200
4000c200
60006600
20406400
21e06400
21e06400
30c0cc00
10638800
103f0800
08001000
00000000
00000000
00000000
ENDCHAR
STARTCHAR 262e
ENCODING 9774
SWIDTH 962 0
DWIDTH 26 0
BBX 26 27 0 -1
BITMAP
00000000
00000000
08019000
10038800
10058800
300d8c00
20198400
20318400
20318400
60618600
40418200
40c18200
41818200
41818200
43018200
43018200
62018600
26018400
2c018400
2ffff400
36018c00
10018800
1003e800
08001000
00000000
00000000
00000000
ENDCHAR
STARTCHAR 262f
ENCODING 9775
SWIDTH 962 0
DWIDTH 26 0
BBX 26 27 0 -1
BITMAP
00000000
00000000
08019000
13ffc800
13000800
33000c00
23000400
23000400
23000400
630f0600
4371c200
43c0e200
43803200
40003200
40003200
40003200
60003600
21803400
23803400
23c06400
33818c00
10ff0800
107c0800
08001000
00000000
00000000
00000000
ENDCHAR
STARTCHAR 2630
ENCODING 9776
SWIDTH 962 0
DWIDTH 26 0
BBX 26 27 0 -1
BITMAP
00000000
00000000
08001000
10ff0800
1381c800
3703cc00
2603c400
2c018400
2c000400
6c000600
4c000200
4c000200
4c7e0200
4cc18200
4d80c200
4f006200
6c006600
2c006400
26006400
26006400
3300cc00
11818800
10ff0800
08001000
00000000
00000000
00000000
ENDCHAR
STARTCHAR 2631
ENCODING 9777
SWIDTH 962 0
DWIDTH 26 0
BBX 26 27 0 -1
BITMAP
00000000
00000000
08001000
13ffc800
13ff8800
34008c00
24008400
24018400
20010400
60030600
40020200
40060200
40040200
400c0200
400c0200
40180200
60180600
20300400
20300400
20300400
30300c00
10300800
10000800
08001000
00000000
00000000
00000000
ENDCHAR
STARTCHAR 2632
ENCODING 9778
SWIDTH 962 0
DWIDTH 26 0
BBX 26 27 0 -1
BITMAP
00000000
00000000
08ff1000
1381c800
1700e800
36006c00
26006400
26006400
26006400
6300c600
41ff8200
4300c200
46006200
4c003200
4c003200
4c003200
6c003600
2c003400
2c003400
26006400
3300cc00
11ff8800
10000800
08001000
00000000
00000000
00000000
ENDCHAR
STARTCHAR 2633
ENCODING 9779
SWIDTH 962 0
DWIDTH 26 0
BBX 26 27 0 -1
BITMAP
00000000
00000000
08ff1000
1381c800
1700c800
36004c00
26006400
2c006400
2c006400
6c006600
46006200
4301e200
41fe6200
40006200
40006200
40006200
60006600
23006400
2780c400
27818400
33030c00
10fe0800
10000800
08001000
00000000
00000000
00000000
ENDCHAR
STARTCHAR 2634
ENCODING 9780
SWIDTH 962 0
DWIDTH 26 0
BBX 26 27 0 -1
BITMAP
00000000
00000000
09c79000
138cc800
17884800
31986c00
21902400
21b03400
21b03400
61b03600
41b03200
41b03200
41b03200
41b03200
41b03200
41b03200
61b03600
21b03400
21b03400
21986400
31986c00
118cc800
17e78800
08001000
00000000
00000000
00000000
ENDCHAR
STARTCHAR 2635
ENCODING 9781
SWIDTH 962 0
DWIDTH 26 0
BBX 26 27 0 -1
BITMAP
00000000
00000000
00000000
00180000
003c0000
00180000
00000000
00000000
00780000
00180000
00180000
00180000
00180000
00180000
00180000
00180000
00180000
00180000
00180000
00180000
00180000
00180000
007e0000
00000000
00000000
00000000
00000000
ENDCHAR
STARTCHAR 2636
ENCODING 9782
SWIDTH 962 0
DWIDTH 26 0
BBX 26 27 0 -1
BITMAP
00000000
00000000
00c30000
01e78000
00c30000
00000000
00000000
03cf0000
00c30000
00c30000
00c30000
00c30000
00c30000
00c30000
00c30000
00c30000
00c30000
00c30000
00c30000
00c30000
00c30000
00c30000
03e7c000
00000000
00000000
00000000
00000000
ENDCHAR
STARTCHAR 2637
ENCODING 9783
SWIDTH 962 0
DWIDTH 26 0
BBX 26 27 0 -1
BITMAP
00000000
00000000
00000000
06186000
0f3cf000
06186000
00000000
1e79e000
06186000
06186000
06186000
06186000
06186000
06186000
06186000
06186000
06186000
06186000
06186000
06186000
06186000
06186000
1f3cf800
00000000
00000000
00000000
00000000
ENDCHAR
STARTCHAR 2638
ENCODING 9784
SWIDTH 962 0
DWIDTH 26 0
BBX 26 27 0 -1
BITMAP
00000000
00000000
00000000
06000000
0f000000
06000000
00000000
00000000
1e7c7800
06301000
06301000
06301000
06181000
06182000
06182000
060c2000
060c4000
060e4000
060e4000
06068000
06068000
06038000
1f830000
00000000
00000000
00000000
00000000
ENDCHAR
STARTCHAR 2639
ENCODING 9785
SWIDTH 962 0
DWIDTH 26 0
BBX 26 27 0 -1
BITMAP
00000000
00000000
00000000
00000000
00000000
00000000
00000000
00000000
07e3e000
01808000
01808000
01808000
00c08000
00c10000
00c10000
00610000
00620000
00620000
00220000
00240000
00240000
001c0000
00180000
00000000
00000000
00000000
00000000
ENDCHAR
STARTCHAR 263a
ENCODING 9786
SWIDTH 962 0
DWIDTH 26 0
BBX 26 27 0 -1
BITMAP
00000000
00000000
00000000
00003000
00007800
00003000
00000000
00000000
3f1e7000
0c043000
0c043000
0c043000
06043000
06083000
06083000
03083000
03103000
03103000
01103000
01203000
01203000
00e03000
00c0fc00
00000000
00000000
00000000
00000000
ENDCHAR
STARTCHAR 263b
ENCODING 9787
SWIDTH 962 0
DWIDTH 26 0
BBX 26 27 0 -1
BITMAP
00000000
00000000
00031800
0007bc00
00031800
00000000
00000000
00000000
f8e73800
30431800
30431800
30431800
30431800
18831800
18831800
18831800
18831800
0d031800
0d031800
0d031800
0d031800
06031800
060f3e00
00000000
00000000
00000000
00000000
ENDCHAR
STARTCHAR 263c
ENCODING 9788
SWIDTH 962 0
DWIDTH 26 0
BBX 26 27 0 -1
BITMAP
00000000
00000000
00000000
0018c600
003def00
0018c600
00000000
00000000
f1d9ce00
6098c600
6098c600
6098c600
6098c600
3118c600
3118c600
3118c600
3118c600
1a18c600
1a18c600
1a18c600
1a18c600
0c18c600
0c79cf00
00000000
00000000
00000000
00000000
ENDCHAR
STARTCHAR 263d
ENCODING 9789
SWIDTH 962 0
DWIDTH 26 0
BBX 26 27 0 -1
BITMAP
00000000
00000000
00000000
0c000000
1e000000
0c000000
00000000
00000000
3cf03e00
0c600800
0c301000
0c182000
0c0c4000
0c068000
0c030000
0c030000
0c058000
0c08c000
0c106000
0c203000
0c401800
0c800c00
3ff03f00
00000000
00000000
00000000
00000000
ENDCHAR
STARTCHAR 263e
ENCODING 9790
SWIDTH 962 0
DWIDTH 26 0
BBX 26 27 0 -1
BITMAP
00000000
00000000
00000000
00000000
00000000
00000000
00000000
00000000
0f81f000
03004000
01808000
00c10000
00620000
00340000
00180000
00180000
002c0000
00460000
00830000
01018000
0200c000
04006000
1f81f800
00000000
00000000
00000000
00000000
ENDCHAR
STARTCHAR 2721
ENCODING 10017
SWIDTH 962 0
DWIDTH 26 0
BBX 26 27 0 -1
BITMAP
00000000
00000000
00000000
00000000
00000000
00000000
00000000
00000000
00000000
00000000
00000000
00000c00
00001e00
ffffff00
00000000
00000000
00000000
00000000
00000000
00000000
00000000
00000000
00000000
00000000
00000000
00000000
00000000
ENDCHAR
STARTCHAR 2722
ENCODING 10018
SWIDTH 962 0
DWIDTH 26 0
BBX 26 27 0 -1
BITMAP
00000000
00380000
00300000
00300000
00300000
00300000
00300000
00300000
00300000
00300000
00300000
00300000
00300000
00300000
00300000
00300000
00300000
00300000
00300000
00300000
00300000
00300000
00300000
00300000
00300000
00000000
00000000
ENDCHAR
STARTCHAR 2723
ENCODING 10019
SWIDTH 962 0
DWIDTH 26 0
BBX 26 27 0 -1
BITMAP
00000000
00000000
00000000
00000000
00000000
00000000
00000000
00180000
00060000
00030000
00018000
0001c000
0000c000
0000c000
00000000
00000000
00000000
00000000
00000000
00000000
00000000
00000000
00000000
00000000
00000000
00000000
00000000
ENDCHAR
STARTCHAR 2724
ENCODING 10020
SWIDTH 962 0
DWIDTH 26 0
BBX 26 27 0 -1
BITMAP
00000000
00003000
00003800
00003000
00003000
00003000
00003000
00007000
00006000
00006000
00006000
0000e000
0000c000
0001c000
00018000
00038000
00030000
00070000
000e0000
001c0000
00380000
00700000
01c00000
07000000
38000000
00000000
00000000
ENDCHAR
STARTCHAR 2725
ENCODING 10021
SWIDTH 962 0
DWIDTH 26 0
BBX 26 27 0 -1
BITMAP
00000000
00000000
00004000
7fffe000
0000f000
0001e000
00078000
000e0000
00180000
00300000
00600000
00c00000
01800000
03000000
06000000
0c000000
18000000
30000400
30000400
60000400
70000400
38000600
1ffffe00
07fffc00
00000000
00000000
00000000
ENDCHAR
STARTCHAR 2726
ENCODING 10022
SWIDTH 962 0
DWIDTH 26 0
BBX 26 27 0 -1
BITMAP
00000000
00000000
00000000
00380000
00180000
00180000
00180000
00180000
00180000
00180000
00180000
00180000
00180000
00180000
00180000
00180000
00180000
00180000
00180000
00180000
00180000
00180000
00180000
07f80000
00f00000
00000000
00000000
ENDCHAR
STARTCHAR 2727
ENCODING 10023
SWIDTH 962 0
DWIDTH 26 0
BBX 26 27 0 -1
BITMAP
00000000
00000000
00000000
00000000
00002000
00007000
3ffff800
00000000
00000000
00000000
00000000
00000000
00000000
00000000
00000000
00000000
00000000
00000400
00000e00
ffffff00
00000000
00000000
00000000
00000000
00000000
00000000
00000000
ENDCHAR
STARTCHAR 2728
ENCODING 10024
SWIDTH 962 0
DWIDTH 26 0
BBX 26 27 0 -1
BITMAP
00000000
00000000
00000000
00000000
00000000
00000000
00000000
001c0000
00180000
00180000
00180000
00180000
00180400
00180e00
ffffff00
00000000
00000000
00000000
00000000
00000000
00000000
00000000
00000000
00000000
00000000
00000000
00000000
ENDCHAR
STARTCHAR 2729
ENCODING 10025
SWIDTH 962 0
DWIDTH 26 0
BBX 26 27 0 -1
BITMAP
00000000
00380000
00300000
00300000
00300000
00300000
00300000
00300000
00300000
00380000
00780000
00680000
00680000
00e40000
00c40000
00c60000
01820000
01830000
03018000
03018000
0600c000
0c007000
18003c00
30001f00
c0000600
00000000
00000000
ENDCHAR
STARTCHAR 272a
ENCODING 10026
SWIDTH 962 0
DWIDTH 26 0
BBX 26 27 0 -1
BITMAP
00000000
0381c000
03018000
03018000
03018000
03018000
03018000
03018000
03018000
03018000
03018000
03018000
03018000
03018000
03018000
03018000
07018000
06018200
06018200
06018200
0c018200
0c018200
18018300
3001ff00
c000fe00
00000000
00000000
ENDCHAR
STARTCHAR 272b
ENCODING 10027
SWIDTH 962 0
DWIDTH 26 0
BBX 26 27 0 -1
BITMAP
00000000
00e00000
00600000
00600000
00600000
00300000
00300000
00300000
00180000
00180000
00180000
001c0000
002c0000
00660000
00660000
00c30000
00c30000
01818000
0180c000
0300c000
06006000
0c007000
18003c00
30001f00
c0000600
00000000
00000000
ENDCHAR
STARTCHAR 272c
ENCODING 10028
SWIDTH 962 0
DWIDTH 26 0
BBX 26 27 0 -1
BITMAP
00000000
00000000
00000000
00000000
00020000
00020000
01830000
01c30000
01830000
01810000
03810000
03018000
03018000
03008000
0600c000
0600c000
0c006000
0c006000
18003000
18003800
30001c00
60000f00
80000600
00000000
00000000
00000000
00000000
ENDCHAR
STARTCHAR 272d
ENCODING 10029
SWIDTH 962 0
DWIDTH 26 0
BBX 26 27 0 -1
BITMAP
00000000
20000400
3ffffe00
30000e00
30000c00
30000c00
30000c00
30000c00
30000c00
30000c00
30000c00
30000c00
30000c00
30000c00
30000c00
30000c00
30000c00
30000c00
30000c00
30000c00
30000c00
30000c00
30000c00
3001fc00
30003800
00000000
00000000
ENDCHAR
STARTCHAR 272e
ENCODING 10030
SWIDTH 962 0
DWIDTH 26 0
BBX 26 27 0 -1
BITMAP
00000000
00000000
00000000
00000000
00000000
00000000
00000000
00000000
20000000
20000200
3fffff00
60000700
60000e00
e0001800
c0000000
00000000
00000000
00000000
00000000
00000000
00000000
00000000
00000000
00000000
00000000
00000000
00000000
ENDCHAR
STARTCHAR 272f
ENCODING 10031
SWIDTH 962 0
DWIDTH 26 0
BBX 26 27 0 -1
BITMAP
00000000
00000000
00000000
00600000
00300000
00180000
00190000
00010000
00020000
00020000
00060000
000c0000
000c0000
00180000
00180000
00780000
00300000
00300000
00180000
00180000
00180000
00180000
00000000
00000000
00000000
00000000
00000000
ENDCHAR
STARTCHAR 2730
ENCODING 10032
SWIDTH 962 0
DWIDTH 26 0
BBX 26 27 0 -1
BITMAP
00000000
00000000
02004000
03ffe000
0300e000
0300c000
0300c000
0300c000
0300c000
0300c000
0300c000
0300c000
0300c000
0300c000
0300c000
0300c000
0300c000
0600c200
0600c200
0600c200
0c00c200
0c00c300
1800c300
3000ff00
c0007e00
00000000
00000000
ENDCHAR
STARTCHAR 2731
ENCODING 10033
SWIDTH 962 0
DWIDTH 26 0
BBX 26 27 0 -1
BITMAP
00000000
00000000
38000e00
30000c00
30000c00
30000c00
30000c00
30000c00
30000c00
30000c00
30000c00
30000c00
30000c00
30000c00
30000c00
30000c00
30000c00
30000c00
30000c00
30000c00
30000c00
3ffffc00
30000c00
30000c00
30000c00
00000000
00000000
ENDCHAR
STARTCHAR 2732
ENCODING 10034
SWIDTH 962 0
DWIDTH 26 0
BBX 26 27 0 -1
BITMAP
00000000
00000000
00000400
7ffffe00
00600e00
00600c00
00600c00
00600c00
00600c00
00600c00
00600c00
00600c00
00c00c00
00c00c00
00c00c00
00c00c00
01800c00
01800c00
03000c00
03001800
06001800
0c003800
18007000
300fe000
c003c000
00000000
00000000
ENDCHAR
STARTCHAR 2733
ENCODING 10035
SWIDTH 962 0
DWIDTH 26 0
BBX 26 27 0 -1
BITMAP
00000000
00380000
00300000
00300000
00300000
00300000
00300400
3ffffe00
00300e00
00300c00
00300c00
00600c00
00600c00
00600c00
00c00c00
00c00c00
01800c00
01800c00
03000c00
03000c00
06001800
0c001800
18003800
300ff000
c000e000
00000000
00000000
ENDCHAR
STARTCHAR 2734
ENCODING 10036
SWIDTH 962 0
DWIDTH 26 0
BBX 26 27 0 -1
BITMAP
00000000
07000000
06000000
06000000
06000000
0c000200
0fffff00
0c000700
18000600
18000600
30000600
20000600
40000600
80000600
00000600
00000600
00000600
00000600
00000c00
00000c00
00000c00
00000c00
00001800
0003f800
0000e000
00000000
00000000
ENDCHAR
STARTCHAR 2735
ENCODING 10037
SWIDTH 962 0
DWIDTH 26 0
BBX 26 27 0 -1
BITMAP
00000000
1c000000
18000000
18000000
18018000
1803c000
18070000
180e0000
181c0000
18300000
18600000
19800000
1e000000
78000000
18000000
18000800
18000800
18000800
18000800
18000800
18000800
18000c00
1ffffc00
0ffff800
00000000
00000000
00000000
ENDCHAR
STARTCHAR 2736
ENCODING 10038
SWIDTH 962 0
DWIDTH 26 0
BBX 26 27 0 -1
BITMAP
00000000
00000400
40000e00
7fffff00
60000000
60000000
60000000
60000000
60000000
60000000
60000000
60000000
60000000
60000000
60000000
60000000
60000000
60000000
60000000
60000000
60000400
60000e00
7fffff00
60000000
60000000
00000000
00000000
ENDCHAR
STARTCHAR 2737
ENCODING 10039
SWIDTH 962 0
DWIDTH 26 0
BBX 26 27 0 -1
BITMAP
00000000
00000000
00000400
00000e00
ffffff00
18000000
18000000
18000000
18000000
18000000
18000000
18000000
18000000
18000000
18000000
18000000
18000000
18000000
18000000
18000000
1c000000
0fffff00
07fffe00
00000000
00000000
00000000
00000000
ENDCHAR
STARTCHAR 2738
ENCODING 10040
SWIDTH 962 0
DWIDTH 26 0
BBX 26 27 0 -1
BITMAP
00000000
001c0000
00180000
00180000
00180000
00180000
00180000
00180000
00180000
00180400
00180e00
ffffff00
00180000
00180000
00180000
00180000
00180000
00180000
00180000
00180000
00180000
00180000
00180000
00180000
00180000
00000000
00000000
ENDCHAR
STARTCHAR 2739
ENCODING 10041
SWIDTH 962 0
DWIDTH 26 0
BBX 26 27 0 -1
BITMAP
00000000
00e00000
00c00000
00c00000
00c00000
00c00000
00c00000
00c00000
00c00000
00f80000
00c70000
00c1c000
00c07000
00c03800
00c01800
00c00000
00c00000
00c00000
00c00000
00c00000
00c00000
00c00000
00c00000
00c00000
00c00000
00000000
00000000
ENDCHAR
STARTCHAR 273a
ENCODING 10042
SWIDTH 962 0
DWIDTH 26 0
BBX 26 27 0 -1
BITMAP
00000000
02004000
03ffe000
0300e000
0300c000
0300c000
0300c000
0300c000
0300c000
0300c000
0300c000
0300c000
0300c000
0300c000
0300c000
0300c000
0300c000
033fc000
03078000
03000000
03000000
03000000
03000000
03000000
03000000
00000000
00000000
ENDCHAR
STARTCHAR 273b
ENCODING 10043
SWIDTH 962 0
DWIDTH 26 0
BBX 26 27 0 -1
BITMAP
00000000
00000400
20000e00
3fffff00
30000000
30000000
30000000
30000000
30000000
30000000
30000000
30000000
30000000
30000000
30000000
30000000
30000000
30000000
30000000
60000000
60000000
60000000
40000000
40000000
80000000
00000000
00000000
ENDCHAR
STARTCHAR 273c
ENCODING 10044
SWIDTH 962 0
DWIDTH 26 0
BBX 26 27 0 -1
BITMAP
00000000
00180000
001c0000
00180000
00180000
00180000
00380000
00300000
00300000
00300000
00600000
00600000
00610000
00c0c000
00c06000
00803000
01801800
01001c00
02007c00
043f8e00
fffc0600
ffc00700
60000600
00000000
00000000
00000000
00000000
ENDCHAR
STARTCHAR 273d
ENCODING 10045
SWIDTH 962 0
DWIDTH 26 0
BBX 26 27 0 -1
BITMAP
00000000
00000000
00003000
3ffff800
02003800
02003000
02003000
02006000
01006000
0100c000
0180c000
00818000
00c18000
00430000
00630000
00360000
001c0000
001c0000
00360000
00630000
00c1c000
0180f000
06007c00
18001f00
e0000600
00000000
00000000
ENDCHAR
STARTCHAR 273e
ENCODING 10046
SWIDTH 962 0
DWIDTH 26 0
BBX 26 27 0 -1
BITMAP
00000000
00000000
00000000
00000000
10000800
1ffffc00
18001c00
18001800
18001800
18001800
18001800
18001800
18001800
18001800
18001800
18001800
18001800
18001800
18001800
18001800
1ffff800
18001800
18001800
18001800
00000000
00000000
00000000
ENDCHAR
STARTCHAR 273f
ENCODING 10047
SWIDTH 962 0
DWIDTH 26 0
BBX 26 27 0 -1
BITMAP
00000000
00000000
20000400
3ffffe00
30000e00
30000c00
30000c00
30000c00
30000c00
30000c00
30000c00
30000c00
30000c00
30000c00
30000c00
30000c00
30000c00
30000c00
30000c00
30000c00
30000c00
30000c00
3ffffc00
30000c00
30000c00
00000000
00000000
ENDCHAR
STARTCHAR 2740
ENCODING 10048
SWIDTH 962 0
DWIDTH 26 0
BBX 26 27 0 -1
BITMAP
00000000
001c0000
00180000
00180000
00180000
00180000
00180000
00180000
00180000
00181800
3ffffc00
00180000
00180000
00180000
00180000
00180000
00180000
00180000
00180000
00180000
00180400
00180e00
ffffff00
00000000
00000000
00000000
00000000
ENDCHAR
STARTCHAR 2741
ENCODING 10049
SWIDTH 962 0
DWIDTH 26 0
BBX 26 27 0 -1
BITMAP
00000000
001c0000
00180000
00180000
00180000
00180000
00180000
00180000
00180400
00180e00
ffffff00
00180000
00180000
00180000
00180000
00180000
00180000
00180000
00180000
00180000
00180000
00180000
00181800
3ffffc00
00000000
00000000
00000000
ENDCHAR
STARTCHAR 2742
ENCODING 10050
SWIDTH 962 0
DWIDTH 26 0
BBX 26 27 0 -1
BITMAP
00000000
01c00000
01800000
01800000
03008000
03ffc000
3301c000
16018000
1e018000
0c030000
0c030000
1e060000
33060000
610c0000
818c0000
00d80000
00700000
00300000
00780000
00cc0000
01870000
03038000
0601e000
1800fc00
e0007f00
00000000
00000000
ENDCHAR
STARTCHAR 2743
ENCODING 10051
SWIDTH 962 0
DWIDTH 26 0
BBX 26 27 0 -1
BITMAP
00000000
00c00000
00e00000
00c00000
01c00400
01fffe00
01800e00
03000c00
03001c00
07001800
06c03800
0c603000
18387000
601c6000
001ce000
0008c000
00018000
00030000
00060000
000c0000
00180000
00700000
01c00000
07000000
78000000
00000000
00000000
ENDCHAR
STARTCHAR 2744
ENCODING 10052
SWIDTH 962 0
DWIDTH 26 0
BBX 26 27 0 -1
BITMAP
00000000
001c0000
00180000
00180000
00180000
00180000
00180400
00180e00
ffffff00
00180000
00180000
00340000
00340000
00340000
00620000
00630000
00c10000
00c18000
0180c000
0300e000
06007800
0c003f00
30001e00
c0000400
00000000
00000000
00000000
ENDCHAR
STARTCHAR 2745
ENCODING 10053
SWIDTH 962 0
DWIDTH 26 0
BBX 26 27 0 -1
BITMAP
00000000
00700000
00600000
00600000
00c00000
00c00000
00c00000
01800600
ffffff00
0180c000
0300c000
0300c000
0301c000
06018000
06018000
0fc30000
0c330000
181e0000
000f0000
00198000
0030c000
00607000
01c03800
0f001c00
f0001800
00000000
00000000
ENDCHAR
STARTCHAR 2746
ENCODING 10054
SWIDTH 962 0
DWIDTH 26 0
BBX 26 27 0 -1
BITMAP
00000000
00000000
00001800
3ffffc00
00003800
00007000
0000e000
00038000
001e0000
00180000
00180000
00180400
00180e00
ffffff00
00180000
00180000
00180000
00180000
00180000
00180000
00180000
00180000
00180000
03f80000
00700000
00000000
00000000
ENDCHAR
STARTCHAR 2747
ENCODING 10055
SWIDTH 962 0
DWIDTH 26 0
BBX 26 27 0 -1
BITMAP
00000000
00000000
00000000
00000000
00000000
00000000
00000000
001c0000
00180000
00180000
20180200
3fffff00
60000700
60000600
e0000c00
c0000000
00000000
00000000
00000000
00000000
00000000
00000000
00000000
00000000
00000000
00000000
00000000
ENDCHAR
STARTCHAR 2748
ENCODING 10056
SWIDTH 962 0
DWIDTH 26 0
BBX 26 27 0 -1
BITMAP
00000000
0000e000
0000c000
0000c000
0000c000
0000c000
0000c300
ffffff00
0000c000
0000c000
0c00c000
0300c000
0180c000
01c0c000
00e0c000
00c0c000
0000c000
0000c000
0000c000
0000c000
0000c000
0000c000
0000c000
003fc000
00078000
00000000
00000000
ENDCHAR
STARTCHAR 2749
ENCODING 10057
SWIDTH 962 0
DWIDTH 26 0
BBX 26 27 0 -1
BITMAP
00000000
001c0000
00180000
00180000
00180000
00180000
00180000
06188000
07186000
0e183000
0c181800
0c181c00
18180c00
18180e00
30180600
30180700
60180300
c0180300
00180000
00180000
00180000
00180000
00180000
07f80000
00700000
00000000
00000000
ENDCHAR
STARTCHAR 274a
ENCODING 10058
SWIDTH 962 0
DWIDTH 26 0
BBX 26 27 0 -1
BITMAP
00000000
00380000
00300000
00300000
00300000
00300400
00300e00
ffffff00
00300000
00300000
00370000
00360000
00360000
00660000
00660000
00660000
00c60000
00c60000
01860000
03860200
03060200
06060200
0c060300
3007ff00
c003fe00
00000000
00000000
ENDCHAR
STARTCHAR 274b
ENCODING 10059
SWIDTH 962 0
DWIDTH 26 0
BBX 26 27 0 -1
BITMAP
00000000
00000000
04000200
07ffff00
06000700
06000600
06000600
06000600
06000600
06000600
06000600
07fffe00
06000600
06000600
06000000
06000000
0c000000
0c000000
0c000000
18000000
18000000
30000000
20000000
40000000
80000000
00000000
00000000
ENDCHAR
STARTCHAR 274c
ENCODING 10060
SWIDTH 962 0
DWIDTH 26 0
BBX 26 27 0 -1
BITMAP
00000000
001c0000
00180000
00180000
38180e00
30180c00
30180c00
30180c00
30180c00
30180c00
30180c00
30180c00
30180c00
3ffffc00
30180c00
00180000
00180000
00180000
00180000
00180000
00180000
00180000
00180000
00180000
00180000
00000000
00000000
ENDCHAR
STARTCHAR 274d
ENCODING 10061
SWIDTH 962 0
DWIDTH 26 0
BBX 26 27 0 -1
BITMAP
00000000
001c0000
00180000
00180000
00180000
00180000
00180000
38180e00
30180c00
30180c00
30180c00
30180c00
30180c00
30180c00
30180c00
30180c00
30180c00
30180c00
30180c00
30180c00
30180c00
3ffffc00
30000c00
30000c00
00000000
00000000
00000000
ENDCHAR
STARTCHAR 274e
ENCODING 10062
SWIDTH 962 0
DWIDTH 26 0
BBX 26 27 0 -1
BITMAP
00000000
060c1800
070e1c00
060c1800
060c1800
060c1800
04081000
0c183000
08102000
08102000
18306000
10204000
50a14000
20408000
10204000
18306000
0c183000
04081000
060c1800
02040800
03060c00
03060c00
03060c00
03870e00
03060c00
00000000
00000000
ENDCHAR
STARTCHAR 274f
ENCODING 10063
SWIDTH 962 0
DWIDTH 26 0
BBX 26 27 0 -1
BITMAP
00000000
00000000
00000000
00000000
00000c00
7ffffe00
00180000
00180000
00180000
00180000
00180000
00180000
00180000
00180000
00180000
00180000
00180000
00180000
00180000
00180000
00180400
00180e00
ffffff00
00000000
00000000
00000000
00000000
ENDCHAR
STARTCHAR 2750
ENCODING 10064
SWIDTH 962 0
DWIDTH 26 0
BBX 26 27 0 -1
BITMAP
00000000
00000000
00002000
7ffff000
00007000
00006000
00006000
00006000
00006000
00006000
20006000
3fffe000
30006000
30000000
30000000
30000000
30000000
30000400
30000400
30000400
30000400
30000600
3ffffe00
1ffffc00
00000000
00000000
00000000
ENDCHAR
STARTCHAR 2751
ENCODING 10065
SWIDTH 962 0
DWIDTH 26 0
BBX 26 27 0 -1
BITMAP
00000000
001c0000
00180000
00180000
00180000
20180400
3ffffe00
30180e00
30180c00
30180c00
30180c00
30180c00
30180c00
30180c00
30180c00
30180c00
30180c00
30180c00
30180c00
30180c00
3018fc00
30183800
00180000
00180000
00180000
00000000
00000000
ENDCHAR
STARTCHAR 2752
ENCODING 10066
SWIDTH 962 0
DWIDTH 26 0
BBX 26 27 0 -1
BITMAP
00000000
00000000
00001800
3ffffc00
00180000
00180000
00180000
00180000
00180000
00180000
00180000
00180400
00180e00
ffffff00
00180000
00180000
00180000
00180000
00180000
00180000
00180000
00180000
00180000
00180000
00180000
00000000
00000000
ENDCHAR
STARTCHAR 2753
ENCODING 10067
SWIDTH 962 0
DWIDTH 26 0
BBX 26 27 0 -1
BITMAP
00000000
000c0000
000e0000
001c0000
00180000
00300000
00606000
30407000
0c80e000
0300e000
0181c000
00c18000
00c30000
00060000
000c0000
00180000
00308000
00606000
00c03000
00801800
0100f800
ffff0c00
ffc00c00
40000e00
00000600
00000000
00000000
ENDCHAR
STARTCHAR 2754
ENCODING 10068
SWIDTH 962 0
DWIDTH 26 0
BBX 26 27 0 -1
BITMAP
00000000
000e0000
000c0000
200c0600
7fffff00
08000000
0c000000
0c000000
0c000000
0c000000
0c000000
0c000000
0c000000
0c000000
0c000000
0c000000
0c000000
0c000000
08000000
08000000
18000000
10000000
30000000
20000000
40000000
00000000
00000000
ENDCHAR
STARTCHAR 2755
ENCODING 10069
SWIDTH 962 0
DWIDTH 26 0
BBX 26 27 0 -1
BITMAP
00000000
01000000
7f800000
03800000
03000000
06000000
0c000000
0c000000
18800000
3fc00000
11c00000
01800000
01800000
01800000
31800000
39800000
25800000
03000000
03000000
06800000
06600000
0c380000
180fff00
3003fe00
40000000
00000000
00000000
ENDCHAR
STARTCHAR 2756
ENCODING 10070
SWIDTH 962 0
DWIDTH 26 0
BBX 26 27 0 -1
BITMAP
00000000
01c1c000
01818000
01818000
01818000
01818000
01818000
01818000
01818000
01818600
ffffff00
01818000
01818000
01818000
01818000
03018000
03018000
03018000
06018000
06018000
0c018000
0c018000
18018000
30018000
c0018000
00000000
00000000
ENDCHAR
STARTCHAR 2757
ENCODING 10071
SWIDTH 962 0
DWIDTH 26 0
BBX 26 27 0 -1
BITMAP
00000000
001c0000
0018c000
00183000
00181800
00181800
00180000
00180600
001fff00
fff80000
00180000
00180000
00180000
000c0000
000c0000
000c0000
00060000
00060200
00030200
00038200
0001c200
0000e200
00007b00
00001f00
00000600
00000000
00000000
ENDCHAR
STARTCHAR 2758
ENCODING 10072
SWIDTH 962 0
DWIDTH 26 0
BBX 26 27 0 -1
BITMAP
00000000
00000800
7ffffc00
00001c00
00001800
00001800
00001800
20001800
3ffff800
30001800
30000000
60000000
60000000
60000400
7ffffe00
60000e00
60000c00
00000c00
00001c00
00001800
00001800
00001800
00003000
001ff000
0003e000
00000000
00000000
ENDCHAR
STARTCHAR 2759
ENCODING 10073
SWIDTH 962 0
DWIDTH 26 0
BBX 26 27 0 -1
BITMAP
00000000
00000000
00000000
00000000
00000000
00002000
0ffff000
00003800
00003000
00003000
00003000
00003000
00003000
07fff000
04003000
00003000
00003000
00003000
00003000
40003200
ffffff00
00000000
00000000
00000000
00000000
00000000
00000000
ENDCHAR
STARTCHAR 275a
ENCODING 10074
SWIDTH 962 0
DWIDTH 26 0
BBX 26 27 0 -1
BITMAP
00000000
00000000
0000c000
0001e000
00038000
00070000
001c0000
00703000
01c07800
0700e000
7801c000
00038000
000e0000
00380600
00e00f00
07801c00
38003800
00007000
0001c000
00078000
001e0000
00780000
07c00000
78000000
00000000
00000000
00000000
ENDCHAR
STARTCHAR 275b
ENCODING 10075
SWIDTH 962 0
DWIDTH 26 0
BBX 26 27 0 -1
BITMAP
00000000
00060000
00070000
000e0000
00180000
00318000
0061c000
01838000
0e070000
000c0000
00180000
00380000
00780000
00d80000
03180000
0c180000
70180000
00180000
00180000
00180000
00180000
00180000
00180000
00180000
00180000
00000000
00000000
ENDCHAR
STARTCHAR 275c
ENCODING 10076
SWIDTH 962 0
DWIDTH 26 0
BBX 26 27 0 -1
BITMAP
00000000
01c00000
00700000
001c0000
000e0000
00070000
00030000
03800000
03000000
03002000
03001000
13001800
13000c00
13000e00
33000600
23000700
23000300
63002300
63002000
e3002000
c3002000
03003000
03fff000
01ffe000
00000000
00000000
00000000
ENDCHAR
STARTCHAR 275d
ENCODING 10077
SWIDTH 962 0
DWIDTH 26 0
BBX 26 27 0 -1
BITMAP
00000000
00700000
00638000
0060e000
00607000
00601000
00600000
00600600
ffffff00
00300000
00300000
00303000
00383800
00187000
0018e000
001dc000
000f8000
000f0000
000e0200
001b0200
00338200
00c1c200
0300f300
1c003f00
e0000e00
00000000
00000000
ENDCHAR
STARTCHAR 275e
ENCODING 10078
SWIDTH 962 0
DWIDTH 26 0
BBX 26 27 0 -1
BITMAP
00000000
0000e000
0003f000
003e0000
09e00000
0f000000
0c000800
0ffffc00
0c001c00
0c001800
0c001800
0c001800
0c001800
0c001800
0ffff800
0c001800
0c001800
18000000
18000000
18000000
30000000
30000000
60000000
40000000
80000000
00000000
00000000
ENDCHAR
STARTCHAR 275f
ENCODING 10079
SWIDTH 962 0
DWIDTH 26 0
BBX 26 27 0 -1
BITMAP
00000000
0000f000
0007f800
007f0000
3ff80000
00180000
00180000
00180000
00181800
3ffffc00
00180000
00180000
00180000
00180000
00180600
ffffff00
00180000
00180000
00180000
00180000
00180000
00180000
00180000
07f80000
00f00000
00000000
00000000
ENDCHAR
STARTCHAR 2760
ENCODING 10080
SWIDTH 962 0
DWIDTH 26 0
BBX 26 27 0 -1
BITMAP
00000000
001c0000
00180000
00180000
00180600
ffffff00
00180000
00180000
00180000
00180000
00182000
3ffff000
02007800
0300e000
0100c000
01818000
00c30000
00660000
003c0000
003c0000
006e0000
01c38000
0701e000
1c007f00
e0001c00
00000000
00000000
ENDCHAR
STARTCHAR 2761
ENCODING 10081
SWIDTH 962 0
DWIDTH 26 0
BBX 26 27 0 -1
BITMAP
00000000
001c0000
00180000
00180000
00181800
001ffc00
00180000
00180000
00180000
00181000
1ffff800
02003800
02003000
01003000
01006000
0080c000
00c18000
00630000
001e0000
000c0000
001f0000
0071c000
01c07800
0f001f00
f0000600
00000000
00000000
ENDCHAR
STARTCHAR 2762
ENCODING 10082
SWIDTH 962 0
DWIDTH 26 0
BBX 26 27 0 -1
BITMAP
00000000
00700000
00300000
00180000
00180000
00080600
ffffff00
02007000
02006000
0100e000
0100c000
0181c000
00818000
00c38000
00430000
00660000
00360000
001c0000
001c0000
00360000
00630000
01c1c000
0700f800
1c003f00
e0000e00
00000000
00000000
ENDCHAR
STARTCHAR 2763
ENCODING 10083
SWIDTH 962 0
DWIDTH 26 0
BBX 26 27 0 -1
BITMAP
00000000
0000e000
0380c000
00e0c000
0060c000
0000c000
0000c000
0000c000
0c00c000
0300c000
0180c000
0180c000
0000c000
0000c000
0000c600
0000ff00
00ffc000
ff00c000
0000c000
0000c000
0000c000
0000c000
0000c000
0000c000
0000c000
00000000
00000000
ENDCHAR
STARTCHAR 2764
ENCODING 10084
SWIDTH 962 0
DWIDTH 26 0
BBX 26 27 0 -1
BITMAP
00000000
00007800
0007fc00
101f8000
1fe00000
18000000
18000000
18000000
18000400
18000e00
1fffff00
18060000
18060000
18060000
18060000
18060000
18060000
30060000
30060000
30060000
20060000
60060000
40060000
80060000
00060000
00000000
00000000
ENDCHAR
STARTCHAR 2765
ENCODING 10085
SWIDTH 962 0
DWIDTH 26 0
BBX 26 27 0 -1
BITMAP
00000000
001c0000
00180000
00180000
00180600
ffffff00
00c00000
00c00000
00c00000
00c00000
00c01000
00fff800
00c03800
00c03000
01c03000
01803000
01803000
03003000
03003000
06003000
06006000
0c006000
1800e000
303fc000
c0078000
00000000
00000000
ENDCHAR
STARTCHAR 2766
ENCODING 10086
SWIDTH 962 0
DWIDTH 26 0
BBX 26 27 0 -1
BITMAP
00000000
00000000
00001800
3ffffc00
00180000
00180000
00180000
00180000
00180000
00300000
00300600
ffffff00
00600000
00600000
007c0000
00d80000
00d80000
01980000
01980200
03180200
06180200
0c180200
18180300
301fff00
c00ffe00
00000000
00000000
ENDCHAR
STARTCHAR 2767
ENCODING 10087
SWIDTH 962 0
DWIDTH 26 0
BBX 26 27 0 -1
BITMAP
00000000
00000000
00000000
08002000
0ffff000
0c007000
0c006000
0c006000
0c006000
0c006000
0c006000
0c006000
0fffe000
0c006000
0c006000
0c006000
0c006000
0c006000
0c006000
0c006000
0c006000
0fffe000
0c006000
0c006000
00000000
00000000
00000000
ENDCHAR
STARTCHAR 2768
ENCODING 10088
SWIDTH 962 0
DWIDTH 26 0
BBX 26 27 0 -1
BITMAP
00000000
00000000
00000000
40000200
7fffff00
60000700
60000600
60000600
60000600
60000600
60000600
60000600
7ffffe00
60000600
60000600
60000600
60000600
60000600
60000600
60000600
7ffffe00
60000600
60000600
00000000
00000000
00000000
00000000
ENDCHAR
STARTCHAR 2769
ENCODING 10089
SWIDTH 962 0
DWIDTH 26 0
BBX 26 27 0 -1
BITMAP
00000000
01000800
01fffc00
01801c00
01801800
01801800
01801800
01801800
01fff800
01801800
01801800
01801800
01801800
01801800
01fff800
01801800
03801800
03001800
03001800
06001800
06001800
0c001800
18001800
3007f800
40007000
00000000
00000000
ENDCHAR
STARTCHAR 276a
ENCODING 10090
SWIDTH 962 0
DWIDTH 26 0
BBX 26 27 0 -1
BITMAP
00000000
001c0000
00180000
00180000
00180000
00180000
00180600
ffffff00
00380000
007c0000
007c0000
00da0000
00db0000
01990000
01998000
0318c000
06186000
0c183800
18181f00
30180e00
c0180400
00180000
00180000
00180000
00180000
00000000
00000000
ENDCHAR
STARTCHAR 276b
ENCODING 10091
SWIDTH 962 0
DWIDTH 26 0
BBX 26 27 0 -1
BITMAP
00000000
03800000
03000000
03000000
06000000
06000600
0fffff00
0c180600
18180e00
18180c00
30381800
60343000
80340000
00660000
00620000
00630000
00c10000
00c18000
0180c000
01806000
03006000
06003000
0c001c00
30000f00
c0000600
00000000
00000000
ENDCHAR
STARTCHAR 276c
ENCODING 10092
SWIDTH 962 0
DWIDTH 26 0
BBX 26 27 0 -1
BITMAP
00000000
000e0000
000c0000
000c0000
000c0000
000c0000
000c0000
0e0c0000
0c0c0000
0c0c0000
0c0c1800
0c0ffc00
0c0c0000
0c0c0000
0c0c0000
0c0c0000
0c0c0000
0c0c0000
0c0c0000
0c0c0000
0c0c0000
0c0c0400
0c0c0e00
ffffff00
00000000
00000000
00000000
ENDCHAR
STARTCHAR 276d
ENCODING 10093
SWIDTH 962 0
DWIDTH 26 0
BBX 26 27 0 -1
BITMAP
00000000
00000400
00000e00
7fffff00
00600000
00600000
00c00000
00c02000
00fff000
01807000
01806000
0300e000
07c0c000
0c71c000
18398000
601b8000
00070000
000e0000
001c0000
00380000
00600000
01c00000
07000000
18000000
e0000000
00000000
00000000
ENDCHAR
STARTCHAR 276e
ENCODING 10094
SWIDTH 962 0
DWIDTH 26 0
BBX 26 27 0 -1
BITMAP
00000000
02008000
03ffc000
0301c000
03018000
03018000
03018000
03018000
06018000
0601ff00
0c00fe00
70000000
00002000
0ffff000
02007000
01006000
0180c000
00c18000
00630000
003e0000
003c0000
00f60000
0383c000
0e00ff00
70001e00
00000000
00000000
ENDCHAR
STARTCHAR 276f
ENCODING 10095
SWIDTH 962 0
DWIDTH 26 0
BBX 26 27 0 -1
BITMAP
00000000
10000800
1ffffc00
18181c00
18181800
18181800
18181800
18181800
18181800
18181800
18181b00
ffffff00
30303000
30303000
30303000
30303000
30303000
30303000
30603000
30603600
3ffffe00
30c03000
00c03000
0181f000
0200e000
00000000
00000000
ENDCHAR
STARTCHAR 2770
ENCODING 10096
SWIDTH 962 0
DWIDTH 26 0
BBX 26 27 0 -1
BITMAP
00000000
38070000
30060000
30060000
30060000
30060000
30060000
30060000
30060000
30060000
30c60c00
3fe7fe00
30060000
30060000
30060000
30060000
30060000
30060200
30060200
30060200
30060200
30660300
33860300
3e07ff00
1c03fe00
00000000
00000000
ENDCHAR
STARTCHAR 2771
ENCODING 10097
SWIDTH 962 0
DWIDTH 26 0
BBX 26 27 0 -1
BITMAP
00000000
00000000
0000f800
000ffc00
01ff0000
3e600000
00600000
00600000
00600000
00603000
007ff800
7fe00000
00600000
00600000
00600000
00600600
007fff00
ffe00000
00600000
00600200
00600200
00600200
00600300
007fff00
003ffe00
00000000
00000000
ENDCHAR
STARTCHAR 2772
ENCODING 10098
SWIDTH 962 0
DWIDTH 26 0
BBX 26 27 0 -1
BITMAP
00000000
00000000
00001800
0000fc00
103fe000
1ffc0000
180c0000
180c0000
180c0000
180c0000
180c0000
180c0c00
1ffffe00
180c0000
180c0000
18060000
18060000
18060000
18030200
18038200
1839c200
1be0e200
ff007300
70003f00
00000e00
00000000
00000000
ENDCHAR
STARTCHAR 2773
ENCODING 10099
SWIDTH 962 0
DWIDTH 26 0
BBX 26 27 0 -1
BITMAP
00000000
0e000000
0c000000
0c001800
0ffffc00
18000000
10000000
30006000
27fff000
40000000
80000000
00002000
fffff000
00007000
00006000
00006000
00006000
00006000
00003100
00003100
00003100
00001900
00001d00
00000f00
00000200
00000000
00000000
ENDCHAR
STARTCHAR 2774
ENCODING 10100
SWIDTH 962 0
DWIDTH 26 0
BBX 26 27 0 -1
BITMAP
00000000
001c0000
00180000
00180000
00180000
00180c00
00180c00
009c1800
7fdc1800
01da3000
019a6000
019a8000
03190000
03190000
03198000
0618c000
0618c000
0c186000
18183000
30181c00
60180f00
80180600
00180000
01f80000
00300000
00000000
00000000
ENDCHAR
STARTCHAR 2775
ENCODING 10101
SWIDTH 962 0
DWIDTH 26 0
BBX 26 27 0 -1
BITMAP
00000000
001c0000
00180000
00180000
00180000
00180000
04180c00
04180e00
0c181c00
0c183000
18346000
18348000
30350000
70320000
20630000
00630000
00c18000
00c18000
0180c000
0180c000
03006000
06007800
0c003f00
18001f00
e0000600
00000000
00000000
ENDCHAR
STARTCHAR 2776
ENCODING 10102
SWIDTH 962 0
DWIDTH 26 0
BBX 26 27 0 -1
BITMAP
00000000
00001800
0000fc00
081fe000
0ff82000
0c182000
0c182000
0c182000
0c182000
0c182000
0c182000
0c182000
0c182000
0c183000
0c183000
18183000
18183000
18181800
18181800
18181800
30180c00
30180c00
60180e00
40180700
80000200
00000000
00000000
ENDCHAR
STARTCHAR 2777
ENCODING 10103
SWIDTH 962 0
DWIDTH 26 0
BBX 26 27 0 -1
BITMAP
00000000
01c00000
01818000
03806000
03003000
06001c00
0c000e00
38000700
e100c600
0100e000
0100c000
00818000
00818000
00c30000
00430000
00660000
00360000
001c0000
001c0000
00360000
00638000
01c1e000
07007800
1c001f00
f0000600
00000000
00000000
ENDCHAR
STARTCHAR 2778
ENCODING 10104
SWIDTH 962 0
DWIDTH 26 0
BBX 26 27 0 -1
BITMAP
00000000
0000c000
3c01e000
03838000
00e70000
003c0000
003e0000
00e3c000
0380e000
7c007000
00000000
02006000
02007000
0200e000
0100c000
01018000
01830000
00c60000
006c0000
00380000
003c0000
00e78000
0381f000
0e007f00
f0000e00
00000000
00000000
ENDCHAR
STARTCHAR 2779
ENCODING 10105
SWIDTH 962 0
DWIDTH 26 0
BBX 26 27 0 -1
BITMAP
00000000
00007000
03806000
03006000
03006000
03006000
03006000
03006000
03006000
03ffe000
02006000
00006000
00006000
04006000
07ffe000
06006000
06006000
06006000
06006000
06006000
06006000
0c006000
0c006000
18006000
30006000
00000000
00000000
ENDCHAR
STARTCHAR 277a
ENCODING 10106
SWIDTH 962 0
DWIDTH 26 0
BBX 26 27 0 -1
BITMAP
00000000
0e000000
0c007000
0c006000
0c006000
0c006000
0c006000
0c006000
0fffe000
0c006000
0c000000
0c000000
0c002000
0ffff000
0c007000
0c006000
0c006000
0c006000
18006000
18006000
18006000
10003000
30003000
20001800
40000800
00000000
00000000
ENDCHAR
STARTCHAR 277b
ENCODING 10107
SWIDTH 962 0
DWIDTH 26 0
BBX 26 27 0 -1
BITMAP
00000000
00000000
00001800
7ffffc00
00030000
00030000
1c030000
18030000
18030000
30030000
30030600
3fffff00
30070000
000f0000
001b0000
003b0000
00730000
00e30000
01830000
07030000
1c030000
f0030000
00030000
00ff0000
001e0000
00000000
00000000
ENDCHAR
STARTCHAR 277c
ENCODING 10108
SWIDTH 962 0
DWIDTH 26 0
BBX 26 27 0 -1
BITMAP
00000000
001c0000
0c180000
0e180000
0c180000
0c180000
18181800
1ffffc00
30180000
20180000
60180000
40180000
80180000
00180000
00180600
ffffff00
00180000
00180000
00180000
00180000
00180000
00180000
00180000
00180000
00180000
00000000
00000000
ENDCHAR
STARTCHAR 277d
ENCODING 10109
SWIDTH 962 0
DWIDTH 26 0
BBX 26 27 0 -1
BITMAP
00000000
001c0000
00180000
00198000
00186000
00183000
00183000
00180000
00180600
ffffff00
00380000
00340000
00340000
00720000
00620000
00630000
00c10000
00c18000
01808000
0180c000
03006000
06007000
0c003c00
38001f00
c0000600
00000000
00000000
ENDCHAR
STARTCHAR 277e
ENCODING 10110
SWIDTH 962 0
DWIDTH 26 0
BBX 26 27 0 -1
BITMAP
00000000
001c0000
00180000
00180400
00180e00
ffffff00
00300000
00300000
00600000
00602000
00c07000
0180e000
1900c000
06018000
03830000
01c60000
00cc0000
00d80000
00304000
00e03000
03801800
1e00fc00
1fff0c00
0f000600
00000600
00000000
00000000
ENDCHAR
STARTCHAR 2821
ENCODING 10273
SWIDTH 962 0
DWIDTH 26 0
BBX 26 27 0 -1
BITMAP
00000000
00000000
00000c00
7ffffe00
00300000
00300000
00300000
00300000
00300000
00300000
00300000
00301800
3ffffc00
00300000
00300000
00318000
0030c000
00306000
00307000
00302000
00300000
00300400
00300e00
ffffff00
00000000
00000000
00000000
ENDCHAR
STARTCHAR 2822
ENCODING 10274
SWIDTH 962 0
DWIDTH 26 0
BBX 26 27 0 -1
BITMAP
00000000
00001000
0003f800
083ff800
0fd82000
0c182000
0c182000
0c182000
0c182000
0c182000
0c182000
0c182000
0c183000
0c181000
0c181000
0c301000
18301800
18311800
18609800
10608c00
30c3cc00
219cce00
63f06700
41c07700
80002200
00000000
00000000
ENDCHAR
STARTCHAR 2823
ENCODING 10275
SWIDTH 962 0
DWIDTH 26 0
BBX 26 27 0 -1
BITMAP
00000000
00000000
00000600
ffffff00
03000000
03000000
03000000
03008000
03ffc000
0301c000
06018000
06018000
06c18000
06318000
06198000
06198000
0c098000
0c018000
0c018200
0c098200
0cf18200
0f818300
fc01ff00
e000fe00
00000000
00000000
00000000
ENDCHAR
STARTCHAR 2824
ENCODING 10276
SWIDTH 962 0
DWIDTH 26 0
BBX 26 27 0 -1
BITMAP
00000000
07007000
06006000
06006000
06006000
06006600
ffffff00
06006000
06006000
06006000
06006000
06006000
06006000
06006000
07ffe000
06006000
06006000
06006000
06006000
06006000
06006000
06006000
07ffe000
06006000
06006000
00000000
00000000
ENDCHAR
STARTCHAR 2825
ENCODING 10277
SWIDTH 962 0
DWIDTH 26 0
BBX 26 27 0 -1
BITMAP
00000000
001c0000
00180000
0c180000
0e180000
0c180000
0c180c00
1ffffe00
18180000
18180000
30180000
30180000
60180000
40181800
8ffffc00
00180000
00180000
00180000
00180000
00180000
00180400
00180e00
ffffff00
00000000
00000000
00000000
00000000
ENDCHAR
STARTCHAR 2826
ENCODING 10278
SWIDTH 962 0
DWIDTH 26 0
BBX 26 27 0 -1
BITMAP
00000000
10000400
1ffffe00
18180e00
18180c00
18180c00
18180c00
18180c00
1ffffc00
18180c00
18180c00
18180c00
18180c00
18180c00
1ffffc00
18180c00
18180c00
18180c00
30180c00
30180c00
30180c00
20180c00
60180c00
4019fc00
80003800
00000000
00000000
ENDCHAR
STARTCHAR 2827
ENCODING 10279
SWIDTH 962 0
DWIDTH 26 0
BBX 26 27 0 -1
BITMAP
00000000
00000000
00000000
20000400
3ffffe00
30180e00
30180c00
30180c00
30180c00
30180c00
30180c00
30180c00
3ffffc00
30180c00
30180c00
30180c00
30180c00
30180c00
30180c00
30180c00
30180c00
3ffffc00
30000c00
30000c00
00000000
00000000
00000000
ENDCHAR
STARTCHAR 2828
ENCODING 10280
SWIDTH 962 0
DWIDTH 26 0
BBX 26 27 0 -1
BITMAP
00000000
00000000
00000400
fffffe00
00180e00
00180c00
00181800
00186000
00180000
0e180000
0c180000
0c181800
0c1ffc00
0c180000
0c180000
18180000
18180000
14180000
36180000
33180000
21980000
60f80000
403fff00
800ffe00
00000000
00000000
00000000
ENDCHAR
STARTCHAR 2829
ENCODING 10281
SWIDTH 962 0
DWIDTH 26 0
BBX 26 27 0 -1
BITMAP
00000000
000e0000
000c0000
100c0600
3fffff00
8c000000
4c000000
4c000000
6c000000
6c000000
0c000000
0c000000
0c000000
3c000000
ec000000
cc000000
8c000000
18000000
18000000
10000000
30000000
20000000
40000000
80000000
00000000
00000000
00000000
ENDCHAR
STARTCHAR 282a
ENCODING 10282
SWIDTH 962 0
DWIDTH 26 0
BBX 26 27 0 -1
BITMAP
00000000
00000000
00000000
00000000
00240000
7ff40000
00741000
00643800
40626000
3062c000
18c30400
1cc30e00
0cc11800
0181b000
0180c000
0300c000
06006000
0c007000
18003c00
30001f00
c0000600
00000000
00000000
00000000
00000000
00000000
00000000
ENDCHAR
STARTCHAR 282b
ENCODING 10283
SWIDTH 962 0
DWIDTH 26 0
BBX 26 27 0 -1
BITMAP
00000000
00300000
00380000
00600000
00400000
10800800
1ffffc00
18001c00
18001800
18001800
18001800
18001800
18001800
18001800
1ffff800
18001800
18001800
18001800
18001800
18001800
18001800
18001800
1ffff800
18001800
18001800
00000000
00000000
ENDCHAR
STARTCHAR 282c
ENCODING 10284
SWIDTH 962 0
DWIDTH 26 0
BBX 26 27 0 -1
BITMAP
00000000
001c0000
00180000
10180400
1ffffe00
18180e00
18181c00
18183000
18180000
18180000
18182000
1ffff000
19007000
19006000
1880c000
18c0c000
18618000
30330000
301e0000
300e0000
201b0000
6031c000
40c0f800
83003f00
1c000e00
00000000
00000000
ENDCHAR
STARTCHAR 282d
ENCODING 10285
SWIDTH 962 0
DWIDTH 26 0
BBX 26 27 0 -1
BITMAP
00000000
00000000
00000000
20000800
3ffffc00
30c61c00
30c61800
30c61800
30c61800
30c61800
30c61800
30c61800
30c61800
30c61800
30c61800
30c61800
30c61800
30c61800
30c61800
30c61800
30c61800
30c61b00
ffffff00
00000000
00000000
00000000
00000000
ENDCHAR
STARTCHAR 282e
ENCODING 10286
SWIDTH 962 0
DWIDTH 26 0
BBX 26 27 0 -1
BITMAP
00000000
00000000
10001000
1ffff800
18003800
18003000
18003000
18003000
18003000
1ffff000
18003000
18003000
18003000
18003000
18003000
1ffff000
18003000
18003000
18003000
18003000
18003000
18003000
1ffff000
18003000
18003000
00000000
00000000
ENDCHAR
STARTCHAR 282f
ENCODING 10287
SWIDTH 962 0
DWIDTH 26 0
BBX 26 27 0 -1
BITMAP
00000000
00001000
1ffff800
00003800
00007000
01c0c000
00330000
001c0000
000e0000
00060200
ffffff00
001c0700
003c0e00
007c1800
006ce000
00cc0000
018c0000
030c0000
0c0c0000
300c0000
c00c0000
000c0000
000c0000
01fc0000
00380000
00000000
00000000
ENDCHAR
STARTCHAR 2830
ENCODING 10288
SWIDTH 962 0
DWIDTH 26 0
BBX 26 27 0 -1
BITMAP
00000000
07000000
06000000
06000000
0c000000
0c001800
1ffffc00
18180000
30180000
40180000
00180000
00180000
00180600
ffffff00
00340000
00340000
00620000
00620000
00c10000
01818000
0300c000
06006000
0c003800
30001f00
c0000600
00000000
00000000
ENDCHAR
STARTCHAR 2831
ENCODING 10289
SWIDTH 962 0
DWIDTH 26 0
BBX 26 27 0 -1
BITMAP
00000000
00000400
00000e00
ffffff00
00600000
00600000
00c00000
00c00000
01800000
01800000
03000000
03000800
07fffc00
0f001c00
1b001800
33001800
63001800
c3001800
03001800
03001800
03001800
03001800
03fff800
03001800
03001800
00000000
00000000
ENDCHAR
STARTCHAR 2832
ENCODING 10290
SWIDTH 962 0
DWIDTH 26 0
BBX 26 27 0 -1
BITMAP
00000000
00001800
1ffffc00
00000000
00000000
00000000
00000000
00000000
00000600
ffffff00
00180000
00180000
00180000
04180000
06186000
0e183000
0c181800
1c181800
18180c00
30180e00
60180e00
80180400
00180000
03f80000
00700000
00000000
00000000
ENDCHAR
STARTCHAR 2833
ENCODING 10291
SWIDTH 962 0
DWIDTH 26 0
BBX 26 27 0 -1
BITMAP
00000000
001c0000
00180000
00180000
00180000
20180400
3ffffe00
30180e00
30180c00
30180c00
30180c00
30110c00
30318c00
30308c00
3030cc00
30606c00
3067ec00
37fc6c00
33006c00
30000c00
30000c00
30000c00
30000c00
3001fc00
30003800
00000000
00000000
ENDCHAR
STARTCHAR 2834
ENCODING 10292
SWIDTH 962 0
DWIDTH 26 0
BBX 26 27 0 -1
BITMAP
00000000
00001c00
0007fe00
00ffe000
7f180000
00180000
00180000
00180000
00180000
00180600
ffffff00
00380000
007c0000
007a0000
00db0000
00d90000
01998000
0318c000
06186000
0c183800
30181f00
c0180600
00180000
00180000
00180000
00000000
00000000
ENDCHAR
STARTCHAR 2835
ENCODING 10293
SWIDTH 962 0
DWIDTH 26 0
BBX 26 27 0 -1
BITMAP
00000000
001c0000
00180000
20180000
20180200
3fffff00
60000700
60000600
c0010c00
c0e11000
00c10000
00c10000
00c10000
01818000
01808000
03008000
0300c000
06004000
06006000
0c003000
0c003000
18001800
30001c00
60000f00
80000600
00000000
00000000
ENDCHAR
STARTCHAR 2836
ENCODING 10294
SWIDTH 962 0
DWIDTH 26 0
BBX 26 27 0 -1
BITMAP
00000000
00380000
00300000
00300000
00300000
00300c00
7ffffe00
00000000
0000c000
0800e000
0400c000
0600c000
02018000
03018000
03018000
01810000
01810000
01830000
01c20000
01860000
00040400
00080e00
ffffff00
00000000
00000000
00000000
00000000
ENDCHAR
STARTCHAR 2837
ENCODING 10295
SWIDTH 962 0
DWIDTH 26 0
BBX 26 27 0 -1
BITMAP
00000000
0c00c000
0e00e000
0c00c000
0c018000
18018000
18030000
18630600
3ff7ff00
26043000
66043000
460c3000
46083000
86103000
06003000
06003000
06003000
06003000
06003000
06003000
06003000
06003000
06003000
0603f000
0600e000
00000000
00000000
ENDCHAR
STARTCHAR 2838
ENCODING 10296
SWIDTH 962 0
DWIDTH 26 0
BBX 26 27 0 -1
BITMAP
00000000
001c0000
00180000
20183800
18183000
0c186000
0e186000
0718c000
06188000
00190600
ffffff00
00380000
007c0000
007a0000
00da0000
00990000
01998000
0318c000
06186000
0c183800
18181e00
30180f00
c0180600
00180000
00180000
00000000
00000000
ENDCHAR
STARTCHAR 2839
ENCODING 10297
SWIDTH 962 0
DWIDTH 26 0
BBX 26 27 0 -1
BITMAP
00000000
00300000
00700000
00604000
00c0e000
1900c000
06018000
01830000
00c60000
006c2000
00181800
00200c00
00403e00
7fffc600
3f180300
00180300
02188000
03186000
06183000
06181800
0c180c00
18180e00
60180600
00180000
00180000
00000000
00000000
ENDCHAR
STARTCHAR 283a
ENCODING 10298
SWIDTH 962 0
DWIDTH 26 0
BBX 26 27 0 -1
BITMAP
00000000
0e000000
0c000000
0c003000
1ffff800
18180000
30180000
30180000
60180000
40180000
80180600
7fffff00
00180000
00180000
38181c00
30181800
30181800
30181800
30181800
30181800
30181800
3ffff800
30001800
30001800
30001800
00000000
00000000
ENDCHAR
STARTCHAR 283b
ENCODING 10299
SWIDTH 962 0
DWIDTH 26 0
BBX 26 27 0 -1
BITMAP
00000000
40000400
7ffffe00
60000e00
60810c00
60e1cc00
60e1cc00
60c18c00
60c18c00
6edd8c00
63c78c00
61c38c00
60e1cc00
61b36c00
61a34c00
63060c00
6c180c00
60000c00
60000c00
60000c00
60000c00
60000c00
60000c00
6000fc00
60003800
00000000
00000000
ENDCHAR
STARTCHAR 283c
ENCODING 10300
SWIDTH 962 0
DWIDTH 26 0
BBX 26 27 0 -1
BITMAP
00000000
0600c000
0300c000
01818000
01810400
7ffffe00
00180000
00180000
00180000
00180000
00181800
3ffffc00
00180000
00180000
00180000
00180000
00180600
ffffff00
00180000
00180000
00180000
00180000
00180000
00180000
00180000
00000000
00000000
ENDCHAR
STARTCHAR 283d
ENCODING 10301
SWIDTH 962 0
DWIDTH 26 0
BBX 26 27 0 -1
BITMAP
00000000
00000000
00400200
ffe7ff00
00600700
00600600
40640600
30630600
18618600
0c60c600
0e60e600
04604600
00600600
00e00e00
01601600
06602600
0c60c600
38618600
f0670600
40620600
00600600
00600600
00600600
0fe0fe00
01c01c00
00000000
00000000
ENDCHAR
STARTCHAR 283e
ENCODING 10302
SWIDTH 962 0
DWIDTH 26 0
BBX 26 27 0 -1
BITMAP
00000000
00e00000
00c00000
00c01800
00c63800
3fff3000
00c06000
00c0c000
00c18000
00c30600
ffffff00
000c0000
00180000
00300000
01600000
01c00000
07806000
1dfff000
e1800000
01800400
01800400
01800400
01800600
01fffe00
00fffc00
00000000
00000000
ENDCHAR
STARTCHAR 283f
ENCODING 10303
SWIDTH 962 0
DWIDTH 26 0
BBX 26 27 0 -1
BITMAP
00000000
00000000
00000600
ffffff00
00700000
00600000
00c00000
00c00000
40800400
7ffffe00
61860e00
61860c00
61860c00
61860c00
61860c00
61860c00
61860c00
61860c00
61860c00
61860c00
61860c00
61860c00
61860c00
61867c00
60001800
00000000
00000000
ENDCHAR
STARTCHAR 2840
ENCODING 10304
SWIDTH 962 0
DWIDTH 26 0
BBX 26 27 0 -1
BITMAP
00000000
001c0000
00183000
0019f800
001fc000
7ff80000
00180000
00180000
00180800
3ffffc00
00180000
00180000
00180600
ffffff00
003c0000
007a0000
00fb0000
01d98000
0398e000
06183800
0c181f00
30180600
c0180000
00180000
00180000
00000000
00000000
ENDCHAR
STARTCHAR 2841
ENCODING 10305
SWIDTH 962 0
DWIDTH 26 0
BBX 26 27 0 -1
BITMAP
00000000
00000600
ffffff00
06006000
06006000
06006000
06006000
07ffe000
06006000
06006000
06006000
06006000
06006000
07ffe000
06006000
06006000
06006000
06006000
0601ff00
067e6000
ffc06000
7e006000
00006000
00006000
00006000
00000000
00000000
ENDCHAR
STARTCHAR 2842
ENCODING 10306
SWIDTH 962 0
DWIDTH 26 0
BBX 26 27 0 -1
BITMAP
00000000
00380000
00300000
00301000
3ffff800
00303800
00303000
00303200
ffffff00
00303000
00303000
00303000
3ffff000
00300000
00300000
00303000
3ffff800
00300000
00300000
00300600
ffffff00
00300000
00300000
00300000
00300000
00000000
00000000
ENDCHAR
STARTCHAR 2843
ENCODING 10307
SWIDTH 962 0
DWIDTH 26 0
BBX 26 27 0 -1
BITMAP
00000000
00380000
00300000
00300000
40300400
7ffffe00
60600e00
60700c00
60cc0c00
60c30c00
6180cc00
63306c00
66304c00
6c600c00
70780c00
60c60c00
60c18c00
6180cc00
63006c00
64004c00
68000c00
60000c00
60000c00
6003fc00
60003800
00000000
00000000
ENDCHAR
STARTCHAR 2844
ENCODING 10308
SWIDTH 962 0
DWIDTH 26 0
BBX 26 27 0 -1
BITMAP
00000000
00000000
40001800
7ffffc00
60180000
60180000
60180000
60180000
60181000
7ffff800
60003800
60003000
60003000
60003000
60003000
7ffff000
60183000
60180000
60180000
60180000
60180000
60180c00
7ffffe00
60000000
60000000
00000000
00000000
ENDCHAR
STARTCHAR 2845
ENCODING 10309
SWIDTH 962 0
DWIDTH 26 0
BBX 26 27 0 -1
BITMAP
00000000
001c0000
00180000
00300000
08401000
0ffff800
0c003800
0c003000
0c003000
0c003000
0ffff000
0c003000
0c003000
0c003000
0c003000
0c003000
0ffff000
0c003000
0c003000
0c003000
0c003000
0c003000
0ffff000
0c003000
0c003000
00000000
00000000
ENDCHAR
STARTCHAR 2846
ENCODING 10310
SWIDTH 962 0
DWIDTH 26 0
BBX 26 27 0 -1
BITMAP
00000000
00000600
ffffff00
00380000
00700000
00600000
00c18000
00c06000
01803000
02001800
041fec00
7ff00e00
3e000600
001c0000
00180000
00180000
00181800
3ffffc00
00180000
00180000
00180000
00180000
00180600
ffffff00
00000000
00000000
00000000
ENDCHAR
STARTCHAR 2847
ENCODING 10311
SWIDTH 962 0
DWIDTH 26 0
BBX 26 27 0 -1
BITMAP
00000000
00100000
00780000
01e00000
23800400
3c0ffe00
30000e00
30000c00
30000c00
30000c00
30000c00
30000c00
30c00c00
3fe7fc00
30000c00
30000c00
30000c00
30000c00
30000c00
30000c00
30000c00
30000c00
3ffffc00
30000c00
30000c00
00000000
00000000
ENDCHAR
STARTCHAR 2848
ENCODING 10312
SWIDTH 962 0
DWIDTH 26 0
BBX 26 27 0 -1
BITMAP
00000000
00006000
0ffff000
00180000
00180000
00180000
00180000
00180600
ffffff00
00180000
00180000
00180000
00180000
00180000
10180800
1ffffc00
18001c00
18001800
18001800
18001800
18001800
18001800
18001800
1ffff800
18001800
00000000
00000000
ENDCHAR
STARTCHAR 2849
ENCODING 10313
SWIDTH 962 0
DWIDTH 26 0
BBX 26 27 0 -1
BITMAP
00000000
0e003800
0c003000
0c003000
0c003000
0c203200
1ff7ff00
18703000
18603000
30673000
30663000
68663000
4cc63000
86c63000
06c63300
038fff00
01803000
03003000
03003000
06003000
06003000
0c003000
18003000
30003000
c0003000
00000000
00000000
ENDCHAR
STARTCHAR 284a
ENCODING 10314
SWIDTH 962 0
DWIDTH 26 0
BBX 26 27 0 -1
BITMAP
00000000
00380000
00300000
00600000
08401000
0ffff800
0c003800
0c203000
0c103000
0c183000
0c0c3000
0c083000
0c003300
ffffff00
0c183000
0c183000
0c183000
0c183000
18183000
18183000
10183000
30003000
20003000
4003f000
8000e000
00000000
00000000
ENDCHAR
STARTCHAR 284b
ENCODING 10315
SWIDTH 962 0
DWIDTH 26 0
BBX 26 27 0 -1
BITMAP
00000000
08002000
0ffff000
0c007000
0c006000
0c006000
0c006000
0fffe000
0c006000
0c006000
0c006000
0c006000
0fffe000
0c200000
0c203800
0c103000
0c186000
0c0c4000
0c068000
0c030000
0c118000
0c60e000
0dc03800
0f801f00
07000600
00000000
00000000
ENDCHAR
STARTCHAR 284c
ENCODING 10316
SWIDTH 962 0
DWIDTH 26 0
BBX 26 27 0 -1
BITMAP
00000000
03000000
03000000
06010000
07ff8000
0c038000
0c060000
180c0000
30100800
6ffffc00
8c181c00
0c181800
0c181800
0c181800
0c181800
0ffff800
0c001800
0c000000
0c000000
0c000200
0c000200
0c000200
0c000300
0fffff00
07fffe00
00000000
00000000
ENDCHAR
STARTCHAR 284d
ENCODING 10317
SWIDTH 962 0
DWIDTH 26 0
BBX 26 27 0 -1
BITMAP
00000000
07007000
06006000
06006000
06006000
66666700
66666600
66666600
66666600
66666600
66666600
66666600
66666600
66666600
66666600
7fe7fe00
66066600
06066000
06006000
0c006000
0c006000
18006000
30006000
60006000
80006000
00000000
00000000
ENDCHAR
STARTCHAR 284e
ENCODING 10318
SWIDTH 962 0
DWIDTH 26 0
BBX 26 27 0 -1
BITMAP
00000000
00380000
00300000
00303000
003ff800
00300000
20300200
3fffff00
30000600
30380600
30300400
30306400
303ff000
37f00000
30300000
30300000
303ffe00
301ffc00
30000000
20000000
20000000
60000000
40000000
40000000
80000000
00000000
00000000
ENDCHAR
STARTCHAR 284f
ENCODING 10319
SWIDTH 962 0
DWIDTH 26 0
BBX 26 27 0 -1
BITMAP
00000000
001c0000
00180000
00180000
00180000
00180000
20180400
3ffffe00
30180e00
30180c00
30180c00
30180c00
30180c00
30180c00
3ffffc00
30180c00
30180000
00198000
00186000
00183800
00181c00
001ffe00
7ffc0700
7f800300
20000300
00000000
00000000
ENDCHAR
STARTCHAR 2850
ENCODING 10320
SWIDTH 962 0
DWIDTH 26 0
BBX 26 27 0 -1
BITMAP
00000000
00300000
00380000
00300000
00600000
00600000
10400800
1ffffc00
18c31c00
18c31800
18c31800
18c31800
18c31800
18c31800
18c31800
18c31800
18c31800
18c31800
18c31800
18c31800
18c31800
18c31800
18c31b00
ffffff00
00000000
00000000
00000000
ENDCHAR
STARTCHAR 2851
ENCODING 10321
SWIDTH 962 0
DWIDTH 26 0
BBX 26 27 0 -1
BITMAP
00000000
0c000000
0c000c00
183ffe00
18000000
30000000
60000000
86000000
06000600
0c7fff00
0c003000
18003000
18003000
3c003000
3c003000
6c003000
4c003000
8c003000
0c003000
0c003000
0c003000
0c003000
0c003000
0c0ff000
0c00e000
00000000
00000000
ENDCHAR
STARTCHAR 2852
ENCODING 10322
SWIDTH 962 0
DWIDTH 26 0
BBX 26 27 0 -1
BITMAP
00000000
001c0000
00180000
00180000
00180000
00180600
ffffff00
00300000
00300000
00680000
00681800
00c41c00
01c43000
03866000
07028000
0f030000
1b010000
33018000
c300c000
03006000
03027000
030c3800
03381c00
03e00f00
01c00600
00000000
00000000
ENDCHAR
STARTCHAR 2853
ENCODING 10323
SWIDTH 962 0
DWIDTH 26 0
BBX 26 27 0 -1
BITMAP
00000000
00000600
ffffff00
01830000
01830000
01830000
41830400
7ffffe00
61830e00
61830c00
61830c00
61830c00
61830c00
61830c00
61830c00
61ff0c00
61830c00
61830c00
60000c00
60000c00
60000c00
60000c00
60000c00
60000c00
60000c00
00000000
00000000
ENDCHAR
STARTCHAR 2854
ENCODING 10324
SWIDTH 962 0
DWIDTH 26 0
BBX 26 27 0 -1
BITMAP
00000000
00000000
08001000
0ffff800
0c003800
0c003000
0c003000
0ffff000
0c003000
0c003000
0c003000
0ffff000
0c003000
0c003000
0c003000
0ffff000
0c663000
00c60000
00c60000
01860200
01860200
03060200
06060300
1c07ff00
e003fe00
00000000
00000000
ENDCHAR
STARTCHAR 2855
ENCODING 10325
SWIDTH 962 0
DWIDTH 26 0
BBX 26 27 0 -1
BITMAP
00000000
00e00000
00c08000
01ffc000
0180c000
03018000
06030000
0c040400
1ffffe00
360c0e00
c60c0c00
060c0c00
07fffc00
060c0c00
060c0c00
060c0c00
060c0c00
07fffc00
0c000c00
0c000c00
0c000c00
18000c00
18000c00
3001fc00
c0003800
00000000
00000000
ENDCHAR
STARTCHAR 2856
ENCODING 10326
SWIDTH 962 0
DWIDTH 26 0
BBX 26 27 0 -1
BITMAP
00000000
00700000
00380000
00180000
00080600
ffffff00
00000000
00000000
00006000
0ffff000
00000000
00000000
00006000
0ffff000
00000000
00000000
08001000
0ffff800
0c003800
0c003000
0c003000
0c003000
0c003000
0ffff000
0c003000
00000000
00000000
ENDCHAR
STARTCHAR 2857
ENCODING 10327
SWIDTH 962 0
DWIDTH 26 0
BBX 26 27 0 -1
BITMAP
00000000
03038000
03806000
06003000
0c001800
181c1c00
30380c00
c0340000
00620000
00c30000
01818000
0300c000
06007000
0c003c00
38000f00
e7ffe600
06006000
06006000
06006000
06006000
06006000
06006000
06006000
07ffe000
06006000
00000000
00000000
ENDCHAR
STARTCHAR 2858
ENCODING 10328
SWIDTH 962 0
DWIDTH 26 0
BBX 26 27 0 -1
BITMAP
00000000
00000000
00001c00
7ffffe00
00000000
00000000
00000000
08001000
0ffff800
0c003800
0c003000
0c003000
0c003000
0c003000
0ffff000
00000000
0000c000
0400e000
0300c000
01818000
01c10000
00c20400
00040e00
ffffff00
00000000
00000000
00000000
ENDCHAR
STARTCHAR 2859
ENCODING 10329
SWIDTH 962 0
DWIDTH 26 0
BBX 26 27 0 -1
BITMAP
00000000
00000600
ffffff00
003a0000
00720000
00e20000
01c20c00
07630e00
1c311c00
e079b000
00e9c000
01cc8000
030cc000
061ec000
183e6000
e0766000
00e63000
01863800
03061c00
06060e00
18060700
e0060200
000e0000
03fc0000
00780000
00000000
00000000
ENDCHAR
STARTCHAR 285a
ENCODING 10330
SWIDTH 962 0
DWIDTH 26 0
BBX 26 27 0 -1
BITMAP
00000000
00007800
0001f000
001f8000
0ff00600
020c0e00
01861c00
00c27000
0041c000
001f0000
01f90000
1f838000
0006c000
00184000
0060e000
0381e000
3c033000
00063000
00183000
00e03000
3f007000
00006000
0000e000
003fc000
000f8000
00000000
00000000
ENDCHAR
STARTCHAR 285b
ENCODING 10331
SWIDTH 962 0
DWIDTH 26 0
BBX 26 27 0 -1
BITMAP
00000000
08001000
0ffff800
0c003800
0c003000
0c003000
0c003000
0ffff000
0c003000
0c003000
0c003000
0c003000
0ffff000
0c003000
0c003000
0c003000
0c003000
0ffff000
00800000
01c38000
03806000
07001800
0c000e00
30000700
c0000600
00000000
00000000
ENDCHAR
STARTCHAR 285c
ENCODING 10332
SWIDTH 962 0
DWIDTH 26 0
BBX 26 27 0 -1
BITMAP
00000000
001c0000
00180000
00180000
00181800
3ffffc00
00180000
00180000
00180000
00180600
ffffff00
00c30000
00c30000
0cc30000
0cc32000
18c31800
18c30c00
31830600
31830600
61830300
83030300
03030000
06030000
0c3f0000
700e0000
00000000
00000000
ENDCHAR
STARTCHAR 285d
ENCODING 10333
SWIDTH 962 0
DWIDTH 26 0
BBX 26 27 0 -1
BITMAP
00000000
001c0000
00180000
00180000
00181800
3ffffc00
00180000
00180000
00180000
00180600
ffffff00
00180000
00180000
00180000
07180000
06183000
061ff800
06180000
0e180000
0d180000
19980000
18f80000
30780000
603fff00
800ffe00
00000000
00000000
ENDCHAR
STARTCHAR 285e
ENCODING 10334
SWIDTH 962 0
DWIDTH 26 0
BBX 26 27 0 -1
BITMAP
00000000
08000800
0ffffc00
0c001c00
0c001800
0c001800
0c001800
0c001800
0c001800
0c001800
0ffff800
0c0c1800
000c0000
000c0000
070c0000
060c1800
060ffc00
060c0000
0c0c0000
0c0c0000
1a0c0000
198c0000
30ec0000
603fff00
800ffe00
00000000
00000000
ENDCHAR
STARTCHAR 285f
ENCODING 10335
SWIDTH 962 0
DWIDTH 26 0
BBX 26 27 0 -1
BITMAP
00000000
00380000
00300000
04602000
07fff000
06007000
06006000
06006000
07ffe000
06006600
06006700
06006e00
07fffc00
06007000
06006000
0600e000
061fe000
ffe36000
7c066000
001c6000
00706000
03806000
1c006000
e01fe000
0001c000
00000000
00000000
ENDCHAR
STARTCHAR 2860
ENCODING 10336
SWIDTH 962 0
DWIDTH 26 0
BBX 26 27 0 -1
BITMAP
00000000
001c0000
00180000
00180c00
7ffffe00
00180000
08181000
0ffff800
0c183800
0c183000
0c183000
0ffff000
0c183000
0c183000
0c183000
0ffff000
0c183000
00180000
00180600
ffffff00
00180000
00180000
00180000
00180000
00180000
00000000
00000000
ENDCHAR
STARTCHAR 2861
ENCODING 10337
SWIDTH 962 0
DWIDTH 26 0
BBX 26 27 0 -1
BITMAP
00000000
001c0000
00180000
00181800
3ffffc00
00000000
02018000
03018000
01830000
01820000
00040600
ffffff00
00180000
00180000
00180000
00180000
00180c00
7ffffe00
00180000
00180000
00180000
00180000
00180000
00180000
00180000
00000000
00000000
ENDCHAR
STARTCHAR 2862
ENCODING 10338
SWIDTH 962 0
DWIDTH 26 0
BBX 26 27 0 -1
BITMAP
00000000
10000600
1fffff00
18000000
18000000
18003000
19fff800
18000000
18000000
18000000
18000600
1fffff00
18c40000
18c40000
18c20600
18c20600
30c10c00
30c09800
20c0e000
20c06000
60c07000
40c33800
40ce1c00
80f80f00
00700600
00000000
00000000
ENDCHAR
STARTCHAR 2863
ENCODING 10339
SWIDTH 962 0
DWIDTH 26 0
BBX 26 27 0 -1
BITMAP
00000000
00020000
000f0000
00380000
00e08000
0f01c000
00070000
001c1000
00f03800
0f007000
0001c000
00070000
003c0000
01f80000
1e180000
00180000
01182000
039ff000
03180000
06180000
07180000
0d980000
18fc0000
e03fff00
0001fc00
00000000
00000000
ENDCHAR
STARTCHAR 2864
ENCODING 10340
SWIDTH 962 0
DWIDTH 26 0
BBX 26 27 0 -1
BITMAP
00000000
10001000
1ffff800
18003800
18003000
18003000
18003000
1ffff000
00000000
20000800
3ffffc00
30301c00
30301800
30301800
30301800
30301800
3ffff800
30001800
30000000
30000200
30000200
30000300
3fffff00
1ffffe00
00000000
00000000
00000000
ENDCHAR
STARTCHAR 2865
ENCODING 10341
SWIDTH 962 0
DWIDTH 26 0
BBX 26 27 0 -1
BITMAP
00000000
00000600
ffffff00
00c60000
00c60000
00c60000
20c60400
3ffffe00
30c60e00
30c60c00
31860c00
31860c00
31860c00
3307fc00
3603ec00
38000c00
30000c00
30000c00
33ffcc00
30000c00
30000c00
30000c00
3ffffc00
30000c00
30000c00
00000000
00000000
ENDCHAR
STARTCHAR 2866
ENCODING 10342
SWIDTH 962 0
DWIDTH 26 0
BBX 26 27 0 -1
BITMAP
00000000
0000f000
000ff800
0ffc0600
00001800
30c03000
1860e000
0c31c000
0c330000
00000000
001c0000
00180000
00180600
ffffff00
007c0000
007a0000
00db0000
01998000
0318c000
06186000
0c183800
30181f00
c0180600
00180000
00180000
00000000
00000000
ENDCHAR
STARTCHAR 2867
ENCODING 10343
SWIDTH 962 0
DWIDTH 26 0
BBX 26 27 0 -1
BITMAP
00000000
10000800
1ffffc00
18181c00
18181800
18181800
18181800
1ffff800
18181800
18181800
18181800
18181800
1ffff800
18181800
00180000
00180000
00181800
3ffffc00
00180000
00180000
00180000
00180400
00180e00
ffffff00
00000000
00000000
00000000
ENDCHAR
STARTCHAR 2868
ENCODING 10344
SWIDTH 962 0
DWIDTH 26 0
BBX 26 27 0 -1
BITMAP
00000000
001c0000
00180000
00340000
00620000
00c30000
01818000
0300c000
06007000
0c00bc00
3bffdf00
e0180600
00180000
00180000
00181800
3ffffc00
00180000
08183000
04183000
06186000
03186000
0318c000
00190600
ffffff00
00000000
00000000
00000000
ENDCHAR
STARTCHAR 2869
ENCODING 10345
SWIDTH 962 0
DWIDTH 26 0
BBX 26 27 0 -1
BITMAP
00000000
04003000
07fff800
06000000
06002000
07fff000
06000000
06000000
06006000
07fff000
06000000
06000000
06000600
ffffff00
06100000
06101800
06083000
060c6000
06068000
06030000
060d8000
0630c000
06e07000
07803f00
03000e00
00000000
00000000
ENDCHAR
STARTCHAR 286a
ENCODING 10346
SWIDTH 962 0
DWIDTH 26 0
BBX 26 27 0 -1
BITMAP
00000000
40440400
7fe7fe00
60e60e00
60c60c00
60c60c00
7fc7fc00
60c60c00
60c60c00
60c60c00
7fc7fc00
60c60c00
60000c00
60000c00
60000c00
60000c00
60000c00
60000c00
60000c00
60000c00
60000c00
60000c00
60000c00
6001fc00
60003800
00000000
00000000
ENDCHAR
STARTCHAR 286b
ENCODING 10347
SWIDTH 962 0
DWIDTH 26 0
BBX 26 27 0 -1
BITMAP
00000000
00180000
10301000
1ffff800
18003800
18003000
18003000
1ffff000
18000000
18000000
18000800
1ffffc00
18001c00
18001800
18001800
1ffff800
18180000
00180000
00180600
ffffff00
00180000
00180000
00180000
00180000
00180000
00000000
00000000
ENDCHAR
ENDFONT
